<svg width="32" height="24" viewBox="0 0 32 24" fill="none" xmlns="http://www.w3.org/2000/svg">
<path d="M0 12C0 5.37258 5.37258 0 12 0C18.6274 0 24 5.37258 24 12C24 18.6274 18.6274 24 12 24C5.37258 24 0 18.6274 0 12Z" fill="white"/>
<path d="M29.8011 9.99999C30.2578 12.2413 29.9323 14.5714 28.879 16.6018C27.8256 18.6322 26.108 20.24 24.0126 21.1573C21.9172 22.0746 19.5707 22.2458 17.3644 21.6424C15.1581 21.0389 13.2253 19.6974 11.8884 17.8414C10.5515 15.9854 9.89122 13.7272 10.0178 11.4434C10.1443 9.15952 11.05 6.98808 12.5838 5.29116C14.1175 3.59424 16.1867 2.47442 18.4462 2.11844C20.7056 1.76247 23.0189 2.19185 25.0001 3.33499M17.0001 11L20.0001 14L30.0001 3.99999" stroke="#1A4DC2" stroke-width="2" stroke-linecap="round" stroke-linejoin="round"/>
</svg>
