<svg width="531" height="462" viewBox="0 0 531 462" fill="none" xmlns="http://www.w3.org/2000/svg">
<g clip-path="url(#clip0_4128_1554)">
<path d="M56.8648 434.006H12.693C11.8397 434.006 11.147 433.314 11.147 432.462C11.147 431.609 11.8397 430.917 12.693 430.917H56.8648C57.7181 430.917 58.4109 431.609 58.4109 432.462C58.4109 433.314 57.7181 434.006 56.8648 434.006Z" fill="#1A4DC2"/>
<path d="M251.394 302.637C251.771 303.535 251.758 302.805 253.126 303.075C273.554 307.095 294.013 308.066 314.76 308.907C336.395 309.785 358.049 310.538 379.705 310.165C387.496 310.03 395.286 309.751 403.064 309.28C407.195 309.03 411.448 308.693 415.144 306.832C418.84 304.972 421.88 301.202 421.623 297.075C421.042 301.096 415.728 302.041 411.661 301.993L326.417 300.973C304.366 300.709 282.316 300.445 260.265 300.182C257.863 300.154 254.836 299.064 252.694 300.22C251.352 300.944 251.059 301.84 251.393 302.638L251.394 302.637Z" fill="white"/>
<path d="M313.471 378.713C322.698 377.766 332.024 377.792 341.246 378.788C346.023 379.304 351.084 380.038 355.446 378.027C359.808 376.016 362.623 369.943 359.53 366.271C359.794 368.921 357.713 371.353 355.256 372.385C352.798 373.416 350.041 373.363 347.376 373.293C333.864 372.937 320.353 372.583 306.841 372.228C304.111 372.156 301.32 372.072 298.766 371.105C296.214 370.138 294.175 368.232 293.337 365.615C288.922 378.318 304.837 379.597 313.471 378.713Z" fill="white"/>
<path d="M370.587 302.982H251.954C251.1 302.982 250.408 302.29 250.408 301.437C250.408 300.585 251.1 299.893 251.954 299.893H370.587C371.44 299.893 372.133 300.585 372.133 301.437C372.133 302.29 371.44 302.982 370.587 302.982Z" fill="#1A4DC2"/>
<path d="M415.863 302.982H379.475C378.621 302.982 377.929 302.289 377.929 301.437C377.929 300.584 378.621 299.892 379.475 299.892H415.863C418.238 299.892 420.169 297.962 420.169 295.59L420.903 172.463C420.908 171.613 421.599 170.927 422.449 170.927H422.457C423.311 170.932 424 171.628 423.995 172.482L423.261 295.6C423.261 299.668 419.942 302.984 415.863 302.984V302.982Z" fill="#1A4DC2"/>
<path d="M219.957 141.228H219.952C219.099 141.226 218.407 140.531 218.411 139.677L218.447 128.224C218.458 124.16 221.777 120.853 225.846 120.853C226.202 120.853 335.607 120.553 335.467 120.553C336.319 120.553 337.012 121.243 337.013 122.094C337.016 122.947 336.325 123.641 335.471 123.644L225.85 123.944C223.478 123.944 221.547 125.867 221.539 128.232L221.503 139.686C221.501 140.537 220.808 141.226 219.957 141.226V141.228Z" fill="#1A4DC2"/>
<path d="M220.272 213.024C219.421 213.024 218.731 212.338 218.726 211.486L218.384 149.137C218.379 148.284 219.068 147.588 219.922 147.584H219.931C220.782 147.584 221.472 148.27 221.477 149.121L221.819 211.47C221.824 212.324 221.135 213.02 220.281 213.024H220.272Z" fill="#1A4DC2"/>
<path d="M234.121 149.433C233.269 149.433 232.578 148.745 232.575 147.894C232.573 147.041 233.263 146.346 234.116 146.343L323.755 146.045H323.76C324.612 146.045 325.304 146.734 325.306 147.585C325.309 148.438 324.619 149.132 323.765 149.136L234.126 149.433H234.121Z" fill="#1A4DC2"/>
<path d="M236.66 139.338C239.229 139.338 241.312 137.258 241.312 134.691C241.312 132.124 239.229 130.043 236.66 130.043C234.091 130.043 232.008 132.124 232.008 134.691C232.008 137.258 234.091 139.338 236.66 139.338Z" fill="#1A4DC2"/>
<path d="M252.269 139.338C254.838 139.338 256.921 137.258 256.921 134.691C256.921 132.124 254.838 130.043 252.269 130.043C249.7 130.043 247.617 132.124 247.617 134.691C247.617 137.258 249.7 139.338 252.269 139.338Z" fill="#1A4DC2"/>
<path d="M267.877 139.338C270.447 139.338 272.529 137.258 272.529 134.691C272.529 132.124 270.447 130.043 267.877 130.043C265.308 130.043 263.226 132.124 263.226 134.691C263.226 137.258 265.308 139.338 267.877 139.338Z" fill="#1A4DC2"/>
<path d="M422.833 66.9955C433.576 72.7981 439.762 85.9788 437.36 97.9418C440.791 86.5563 440.318 74.0356 436.035 62.9424C427.941 64.5094 419.251 62.7364 412.418 58.1269C408.633 55.5729 405.351 52.1676 401.117 50.46C400.153 50.0714 403.427 56.2281 403.762 56.6402C408.414 62.3663 416.593 63.626 422.833 66.998V66.9955Z" fill="white"/>
<path d="M424.606 135.25L423.888 134.983C423.088 134.686 422.681 133.796 422.978 132.995C423.277 132.196 424.165 131.787 424.968 132.086L425.685 132.353C426.485 132.65 426.893 133.539 426.595 134.34C426.296 135.14 425.406 135.547 424.606 135.25Z" fill="#1A4DC2"/>
<path d="M367.779 194.53C366.11 187.584 365.159 180.459 364.949 173.315C363.111 174.261 361.487 175.627 360.256 177.285C359.431 178.393 357.664 177.946 357.48 176.568C356.195 166.906 359.25 156.748 365.654 149.395C366.215 148.751 367.19 148.683 367.836 149.243C368.481 149.803 368.548 150.781 367.988 151.423C362.908 157.257 360.143 165.029 360.29 172.75C361.952 171.326 363.894 170.225 365.975 169.548C366.964 169.227 367.992 169.956 368 171.005C368.051 177.855 368.804 184.704 370.24 191.401C375.016 187.327 379.051 182.319 381.996 176.793C382.514 175.823 383.865 175.679 384.567 176.551C386.259 178.653 387.598 181.04 388.52 183.575C392.941 176.349 395.373 167.891 395.418 159.423C395.423 158.573 396.114 157.886 396.964 157.886H396.973C397.828 157.891 398.517 158.587 398.512 159.439C398.455 169.638 395.154 179.823 389.216 188.119C388.434 189.211 386.72 188.852 386.444 187.538C385.911 185.005 384.912 182.571 383.519 180.387C380.088 186.151 375.531 191.304 370.227 195.39C369.336 196.076 368.04 195.613 367.778 194.528L367.779 194.53Z" fill="#1A4DC2"/>
<path d="M397.861 160.936L366.029 149.598C364.725 149.134 364.045 147.701 364.509 146.398L364.596 146.156C365.06 144.853 366.495 144.173 367.799 144.637L399.631 155.974C400.935 156.438 401.615 157.872 401.151 159.175L401.064 159.417C400.6 160.72 399.165 161.399 397.861 160.936Z" fill="#1A4DC2"/>
<path d="M397.341 162.39L365.509 151.054C364.489 150.691 363.673 149.952 363.209 148.975C362.744 147.997 362.689 146.897 363.053 145.878L363.141 145.635C363.898 143.512 366.229 142.437 368.32 143.182L400.15 154.518C402.254 155.269 403.357 157.589 402.607 159.693L402.52 159.937C402.157 160.954 401.418 161.771 400.439 162.235C399.429 162.713 398.326 162.742 397.341 162.39ZM366.545 146.13C366.073 146.353 366.031 146.789 365.965 146.918C365.788 147.413 366.046 147.963 366.548 148.142L398.379 159.48C398.883 159.658 399.429 159.396 399.605 158.898L399.693 158.655C399.87 158.159 399.609 157.609 399.109 157.431L367.279 146.094C367.037 146.008 366.777 146.021 366.545 146.131V146.13Z" fill="#1A4DC2"/>
<path d="M429.389 39.5222C428.296 37.7295 426.13 36.8843 424.12 37.4827C404.003 43.4062 384.703 58.6376 373.473 78.6894C362.265 98.6746 358.842 123.522 364.307 145.157C364.513 145.981 365.348 146.486 366.184 146.28C367.009 146.063 367.514 145.229 367.307 144.394C362.028 123.512 365.349 99.5098 376.175 80.1934C382.147 69.5419 391.064 59.7406 399.281 53.7492C409.757 62.5166 422.913 67.3791 436.576 67.4815C438.741 79.0706 438.596 91.3297 435.936 103.013C431.069 124.296 417.697 144.096 400.179 155.974C398.895 156.847 399.556 158.807 401.044 158.807C401.343 158.807 401.642 158.714 401.91 158.539C420.068 146.228 433.915 125.727 438.947 103.702C443.968 81.7085 440.39 57.7147 429.389 39.5222ZM426.336 59.7652C426.264 60.2797 425.821 60.6511 425.315 60.6511C424.66 60.6511 424.206 60.0823 424.294 59.4765C424.82 55.7159 424.047 51.8331 422.108 48.5573C421.819 48.0626 421.984 47.4346 422.468 47.1459C422.964 46.8572 423.592 47.0126 423.881 47.5061C426.057 51.1841 426.923 55.5419 426.335 59.7652H426.336Z" fill="#1A4DC2"/>
<path d="M416.069 82.2477C417.566 78.0519 415.684 73.5479 411.865 72.1877C408.045 70.8274 403.736 73.126 402.239 77.3218C400.742 81.5176 402.624 86.0216 406.443 87.3819C410.263 88.7421 414.572 86.4435 416.069 82.2477Z" fill="#1A4DC2"/>
<path d="M407.219 104.925C408.716 100.73 406.834 96.2256 403.014 94.8654C399.195 93.5051 394.886 95.8038 393.389 99.9996C391.892 104.195 393.774 108.699 397.593 110.06C401.412 111.42 405.722 109.121 407.219 104.925Z" fill="#1A4DC2"/>
<path d="M430.161 126.104C432.975 130.331 435.145 135.073 436.565 140.103C437.851 144.66 437.003 146.563 433.28 150.384C427.034 156.796 420.787 163.208 414.541 169.619C414.636 162.321 413.931 155.524 413.007 148.359C419.216 142.051 424.86 134.466 430.161 126.104Z" fill="#1A4DC2"/>
<path d="M413.948 171.047C413.363 170.805 412.985 170.231 412.993 169.6C413.083 162.623 412.451 156.143 411.473 148.558C411.411 148.087 411.57 147.616 411.904 147.278C417.584 141.506 423.129 134.31 428.852 125.278C429.402 124.413 430.765 124.227 431.447 125.248C434.362 129.626 436.584 134.483 438.051 139.684C439.53 144.908 438.381 147.362 434.387 151.462L415.648 170.697C415.204 171.152 414.529 171.288 413.948 171.046V171.047ZM414.635 148.904C415.402 154.932 415.942 160.304 416.066 165.835C433.395 147.934 435.096 146.975 435.534 144.176C435.723 142.973 435.396 141.659 435.075 140.523C433.917 136.421 432.263 132.55 430.146 128.985C424.94 136.983 419.846 143.522 414.635 148.904Z" fill="#1A4DC2"/>
<path d="M365.896 102.096C360.943 102.968 356.335 104.764 351.78 107.214C348.188 109.145 346.906 110.718 346.758 116.744C346.537 125.758 346.314 134.772 346.093 143.787C351.209 138.658 357.279 134.403 363.006 130.111C362.664 120.2 363.337 110.734 365.896 102.096Z" fill="#1A4DC2"/>
<path d="M344.547 143.749L345.211 116.706C345.352 110.944 346.307 108.4 351.048 105.854C356.096 103.141 360.864 101.414 365.628 100.575C366.16 100.48 366.694 100.669 367.05 101.068C367.407 101.468 367.532 102.023 367.38 102.536C365.103 110.22 364.178 119.222 364.552 130.059C364.57 130.563 364.339 131.044 363.935 131.348C363.043 132.017 362.142 132.684 361.238 133.354C356.414 136.93 351.428 140.627 347.189 144.878C346.206 145.865 344.513 145.144 344.546 143.75L344.547 143.749ZM363.737 104.129C360.094 105.02 356.4 106.485 352.515 108.574C349.408 110.244 348.438 111.324 348.306 116.782L347.732 140.105C352.051 136.22 356.792 132.819 361.435 129.356C361.155 119.661 361.911 111.371 363.737 104.13V104.129Z" fill="#1A4DC2"/>
<path d="M354.632 262.075H343.827V283.217H354.632V262.075Z" fill="#1A4DC2"/>
<path d="M354.631 284.763H343.826C342.973 284.763 342.28 284.071 342.28 283.218V262.076C342.28 261.222 342.973 260.531 343.826 260.531H354.631C355.484 260.531 356.177 261.223 356.177 262.076V283.218C356.177 284.072 355.484 284.763 354.631 284.763ZM345.372 281.673H353.084V263.621H345.372V281.673Z" fill="#1A4DC2"/>
<path d="M379.168 246.781H368.363V283.218H379.168V246.781Z" fill="#1A4DC2"/>
<path d="M379.17 284.763H368.363C367.51 284.763 366.817 284.071 366.817 283.218V246.782C366.817 245.928 367.51 245.237 368.363 245.237H379.17C380.023 245.237 380.716 245.929 380.716 246.782V283.218C380.716 284.072 380.023 284.763 379.17 284.763ZM369.911 281.672H377.624V248.326H369.911V281.672Z" fill="#1A4DC2"/>
<path d="M403.707 230.811H392.902V282.768H403.707V230.811Z" fill="#1A4DC2"/>
<path d="M403.706 284.313H392.9C392.046 284.313 391.354 283.621 391.354 282.768V230.811C391.354 229.958 392.046 229.267 392.9 229.267H403.706C404.559 229.267 405.252 229.959 405.252 230.811V282.768C405.252 283.622 404.559 284.313 403.706 284.313ZM394.447 281.222H402.16V232.356H394.447V281.222Z" fill="#1A4DC2"/>
<path d="M343.003 250.308C342.286 249.846 342.077 248.89 342.539 248.172C347.144 241.02 352.119 234.492 357.326 228.767C357.831 228.213 358.659 228.101 359.293 228.497C363.81 231.332 368.114 234.476 372.689 236.974C379.265 227.975 385.311 218.737 391.954 209.724C392.462 209.037 393.431 208.891 394.116 209.396C394.804 209.902 394.951 210.871 394.445 211.557C387.573 220.88 381.285 230.53 374.39 239.883C373.941 240.495 373.111 240.689 372.436 240.34C367.586 237.835 363.226 234.687 358.746 231.812C353.968 237.175 349.395 243.236 345.141 249.844C344.675 250.566 343.718 250.767 343.003 250.308Z" fill="#1A4DC2"/>
<path d="M398.293 217.818C394.331 213.667 390.368 209.516 386.406 205.364C391.605 204.801 397.383 203.113 402.582 202.549C401.417 207.399 400.112 213.042 398.294 217.818H398.293Z" fill="#1A4DC2"/>
<path d="M397.176 218.884L385.287 206.43C384.881 206.004 384.753 205.385 384.954 204.833C385.157 204.28 385.655 203.89 386.24 203.828C391.272 203.282 397.188 201.58 402.414 201.012C403.504 200.901 404.329 201.889 404.086 202.908C402.883 207.93 401.571 213.554 399.741 218.367C399.552 218.863 399.122 219.227 398.601 219.332C398.09 219.435 397.547 219.274 397.176 218.884ZM389.602 206.473L397.677 214.932C398.802 211.531 399.724 207.826 400.552 204.382C397.024 204.937 393.24 205.862 389.602 206.474V206.473Z" fill="#1A4DC2"/>
<path d="M125.597 94.1982C135.012 99.316 147.079 99.5295 156.378 94.2031C165.676 88.8768 171.119 81.659 170.025 71.0063C169.407 80.4684 163.707 85.5073 155.261 89.8293C146.814 94.1513 136.483 94.229 127.652 90.7559C120.818 88.0674 115.99 83.3728 110.821 78.4931C113.876 85.0594 119.234 90.7398 125.597 94.1982Z" fill="white"/>
<path d="M124.093 92.1031C123.33 91.7181 123.025 90.7891 123.409 90.0266C123.794 89.2653 124.726 88.9606 125.486 89.3443C129.756 91.4985 134.372 92.5904 139.205 92.5904C152.821 92.5904 164.908 83.4602 168.602 70.3868C168.834 69.5651 169.69 69.0889 170.51 69.3184C171.332 69.5503 171.81 70.4041 171.578 71.2258C165.868 91.4442 142.883 101.586 124.093 92.1031Z" fill="#1A4DC2"/>
<path d="M119.64 89.4139C105.355 79.1955 101.567 60.1061 109.961 45.4213C111.853 42.1098 114.269 39.1684 117.146 36.681C117.79 36.1221 118.767 36.1937 119.326 36.8377C119.886 37.483 119.815 38.4589 119.169 39.0178C116.56 41.2757 114.366 43.9444 112.648 46.9525C106.346 57.9753 107.413 72.3022 116.377 82.3541C117.89 84.0493 119.593 85.5792 121.44 86.9006C122.136 87.3979 122.295 88.3627 121.797 89.0561C121.3 89.7495 120.334 89.9099 119.64 89.4127V89.4139Z" fill="#1A4DC2"/>
<path d="M152.012 34.1966C151.806 34.1966 151.594 34.1546 151.393 34.067C147.546 32.3878 143.445 31.5365 139.205 31.5365C136.183 31.5365 133.202 31.977 130.341 32.8456C129.376 33.138 128.34 32.373 128.34 31.3675C128.34 30.6395 128.842 30.03 129.518 29.8659C132.646 28.9233 135.905 28.4458 139.205 28.4458C143.875 28.4458 148.392 29.3835 152.632 31.2342C153.415 31.576 153.772 32.4865 153.431 33.2687C153.176 33.8486 152.608 34.1953 152.012 34.1953V34.1966Z" fill="#1A4DC2"/>
<path d="M171.301 63.871C170.447 63.871 169.755 63.1788 169.755 62.3262V62.061C169.755 52.3781 165.084 43.1763 157.263 37.4478C156.573 36.9431 156.425 35.9758 156.929 35.2874C157.434 34.5989 158.402 34.4509 159.091 34.9542C167.706 41.2639 172.848 51.3972 172.848 62.061V62.3262C172.848 63.18 172.155 63.871 171.302 63.871H171.301Z" fill="#1A4DC2"/>
<path d="M133.803 94.5512C123.546 74.6006 123.704 49.8961 134.216 30.0774C134.616 29.3224 135.554 29.0361 136.306 29.4359C137.062 29.8356 137.348 30.7708 136.948 31.5247C126.904 50.4649 126.752 74.0737 136.553 93.1397C136.943 93.8998 136.643 94.8301 135.885 95.2212C135.121 95.6111 134.192 95.31 133.803 94.5524V94.5512Z" fill="#1A4DC2"/>
<path d="M142.194 94.9043C141.409 94.5675 141.046 93.6582 141.384 92.8747C150.089 72.6427 148.992 47.383 138.714 31.4472C138.251 30.7303 138.458 29.7741 139.176 29.3115C139.891 28.8488 140.849 29.0548 141.313 29.7729C152.116 46.5231 153.313 72.9734 144.224 94.0949C143.888 94.8759 142.981 95.2424 142.192 94.9043H142.194Z" fill="#1A4DC2"/>
<path d="M110.711 47.612C109.909 47.3159 109.499 46.4275 109.796 45.6268C110.092 44.826 110.985 44.4201 111.783 44.7125C128.561 50.9062 148.92 50.2696 164.736 43.1974C165.511 42.8495 166.429 43.1974 166.778 43.9772C167.128 44.757 166.778 45.67 165.998 46.0191C149.421 53.4318 128.22 54.0759 110.711 47.612Z" fill="#1A4DC2"/>
<path d="M114.537 83.74C114.245 82.9381 114.657 82.0509 115.46 81.7585C131.057 76.0682 147.856 75.8239 164.046 81.0528C164.859 81.3156 165.304 82.1867 165.042 82.9985C164.778 83.8091 163.914 84.2582 163.093 83.993C147.568 78.9775 131.463 79.2083 116.521 84.6604C115.724 84.9504 114.833 84.5469 114.537 83.7388V83.74Z" fill="#1A4DC2"/>
<path d="M166.579 66.7422L107.223 66.7323C106.369 66.7323 105.677 66.0401 105.677 65.1863C105.677 64.3325 106.37 63.6416 107.223 63.6416C118.23 63.6441 155.565 63.6502 166.579 63.6515C167.434 63.6515 168.125 64.3436 168.125 65.1974C168.125 66.0512 167.433 66.7422 166.579 66.7422Z" fill="#1A4DC2"/>
<path d="M242.281 123.448C241.767 123.448 241.265 123.191 240.971 122.725L214.291 80.3289L170.023 76.3388C169.172 76.2623 168.545 75.5109 168.622 74.6608C168.698 73.8095 169.463 73.1926 170.301 73.2605L215.332 77.3197C215.813 77.3629 216.246 77.6281 216.502 78.0365L243.588 121.08C244.043 121.802 243.825 122.757 243.102 123.211C242.847 123.372 242.561 123.448 242.28 123.448H242.281Z" fill="#1A4DC2"/>
<path d="M478.428 215.802L453.323 174.692L424.364 174.623C423.51 174.621 422.819 173.928 422.821 173.075C422.824 172.222 423.515 171.533 424.367 171.533H424.371L454.196 171.604C454.733 171.606 455.232 171.886 455.512 172.345L481.068 214.192C481.513 214.92 481.283 215.871 480.553 216.315C479.826 216.758 478.873 216.531 478.428 215.8V215.802Z" fill="#1A4DC2"/>
<path d="M405.919 327.979C407.041 332.626 411.939 335.379 416.628 336.329C421.641 337.344 427.041 336.896 431.56 334.501C436.078 332.106 439.588 327.643 440.271 322.578C440.952 317.513 438.51 312.019 434.006 309.596C436.488 312.578 436.876 316.949 435.583 320.606C434.29 324.263 431.518 327.251 428.336 329.472C424.094 332.432 418.712 334.199 413.692 332.947C408.672 331.696 404.434 326.8 405.095 321.672C405.454 326.014 407.134 330.237 409.857 333.641L405.92 327.981L405.919 327.979Z" fill="white"/>
<path d="M420.271 297.212C409.473 297.212 400.688 305.989 400.688 316.778C400.688 327.566 409.472 336.342 420.271 336.342C431.07 336.342 439.852 327.566 439.852 316.778C439.852 305.989 431.069 297.212 420.271 297.212ZM430.276 312.095L418.612 323.75C418.31 324.052 417.915 324.203 417.518 324.203C417.122 324.203 416.727 324.052 416.424 323.75L410.983 318.314C410.379 317.71 410.379 316.732 410.983 316.129C411.587 315.525 412.566 315.525 413.17 316.129L417.518 320.472L428.089 309.91C428.693 309.307 429.672 309.307 430.276 309.91C430.88 310.514 430.88 311.492 430.276 312.095Z" fill="#1A4DC2"/>
<path d="M326.717 338.245C325.864 338.245 325.171 337.553 325.171 336.7V303.122C325.171 302.269 325.864 301.578 326.717 301.578C327.57 301.578 328.263 302.27 328.263 303.122V336.7C328.263 337.554 327.57 338.245 326.717 338.245Z" fill="#1A4DC2"/>
<path d="M359.335 350.709C358.482 350.709 357.789 350.017 357.789 349.165V341.561C357.789 339.733 356.301 338.247 354.473 338.247H303.39C302.537 338.247 301.844 337.555 301.844 336.702C301.844 335.849 302.537 335.157 303.39 335.157H354.473C358.007 335.157 360.883 338.031 360.883 341.562V349.166C360.883 350.02 360.19 350.711 359.337 350.711L359.335 350.709Z" fill="#1A4DC2"/>
<path d="M354.473 374.461H298.962C295.428 374.461 292.552 371.588 292.552 368.056V341.559C292.552 338.243 295.145 335.439 298.455 335.179C299.297 335.116 300.051 335.747 300.118 336.599C300.186 337.449 299.549 338.193 298.698 338.261C296.957 338.398 295.645 339.817 295.645 341.56V368.058C295.645 369.885 297.133 371.372 298.962 371.372H354.473C356.301 371.372 357.789 369.885 357.789 368.058V357.786C357.789 356.932 358.482 356.241 359.335 356.241C360.189 356.241 360.882 356.934 360.882 357.786V368.058C360.882 371.589 358.006 374.462 354.471 374.462L354.473 374.461Z" fill="#1A4DC2"/>
<path d="M347.475 346.823H318.81V351.267H347.475V346.823Z" fill="#1A4DC2"/>
<path d="M347.475 357.933H318.81V362.377H347.475V357.933Z" fill="#1A4DC2"/>
<path d="M307.196 360.157C309.652 360.157 311.644 358.277 311.644 355.959C311.644 353.641 309.652 351.762 307.196 351.762C304.739 351.762 302.748 353.641 302.748 355.959C302.748 358.277 304.739 360.157 307.196 360.157Z" fill="#1A4DC2"/>
<path d="M110.912 326.769C120.629 327.538 130.48 328.334 139.663 331.606C148.844 334.876 157.436 340.974 161.568 349.796C162.635 341.402 163.701 333.008 164.768 324.615C124.719 321.709 84.5646 320.247 44.4111 320.232C66.0105 324.902 88.8855 325.027 110.912 326.769Z" fill="white"/>
<path d="M143.495 441.713C145.416 441.507 147.605 441.033 148.518 439.332C149.359 437.767 148.694 435.737 147.437 434.482C146.179 433.226 144.462 432.567 142.798 431.943C141.319 431.387 133.673 435.813 131.862 436.429C127.864 437.791 123.716 438.647 119.706 439.832C125.614 444.857 136.421 442.471 143.494 441.713H143.495Z" fill="white"/>
<path d="M58.5752 437.498C63.3752 447.28 75.724 450.716 84.8955 444.803C77.9678 442 71.0389 439.197 64.1112 436.395L58.5752 437.499V437.498Z" fill="white"/>
<path d="M123.254 395.761C98.3697 395.652 86.2271 394.491 80.5306 394.392C72.305 394.25 72.7373 393.46 66.2862 390.338C64.0252 389.259 56.4306 385.749 48.8682 382.113C48.3952 381.886 48.0705 381.434 48.0038 380.914C45.802 363.512 44.9771 349.151 44.0213 332.521C43.7681 328.114 43.5051 323.532 43.2038 318.668C43.1457 317.743 43.9138 316.98 44.8153 317.029C174.3 322.688 166.244 321.95 166.964 322.81C167.243 323.143 167.369 323.578 167.31 324.008C165.292 338.985 160.884 369.085 160.687 371.726C160.555 373.468 160.405 375.442 159.419 376.99C158.02 379.191 155.235 380.746 153.465 382.097C145.702 387.997 139.875 391.01 136.729 392.841C134.79 393.971 132.591 395.252 130.335 395.754C127.951 396.278 125.354 395.771 123.253 395.761H123.254ZM75.0033 390.921C75.6676 390.925 75.5417 391.215 80.5837 391.302C81.5938 391.32 82.5929 391.337 83.5536 391.396C109.802 392.973 120.537 392.42 125.563 392.787C130.389 393.135 130.331 392.956 138.727 388.166C146.462 383.716 150.747 380.196 153.089 378.566C157.175 375.721 157.319 375.252 157.605 371.492C157.834 368.44 161.527 343.631 164.02 325.273C124.411 323.543 85.8727 321.917 46.3984 320.193C46.6565 324.429 46.8874 328.457 47.1109 332.346C48.047 348.651 48.8583 362.769 50.97 379.694C60.4267 384.228 67.0148 387.237 67.636 387.558C70.3008 388.85 72.7644 390.487 75.0761 390.917C75.107 390.924 75.0564 390.921 75.0033 390.92V390.921Z" fill="#1A4DC2"/>
<path d="M34.9838 375.985C32.4127 374.481 23.366 372.407 24.0538 366.439C27.2188 339.705 25.5764 315.457 34.3169 288.935C34.5837 288.125 35.458 287.682 36.2693 287.95C37.0806 288.217 37.5214 289.09 37.2547 289.901C28.6871 315.9 30.2665 340.271 27.125 366.797C26.757 369.996 34.0292 371.849 36.5434 373.316C37.2806 373.747 37.5289 374.693 37.0979 375.431C36.6706 376.164 35.7247 376.418 34.9825 375.986L34.9838 375.985Z" fill="#1A4DC2"/>
<path d="M38.9438 284.371C38.351 283.757 38.3683 282.778 38.9821 282.186C41.4988 279.758 44.7835 277.02 46.1543 276.208C76.1113 259.129 71.0433 261.834 78.728 258.63C82.608 257.009 83.8775 257.82 86.0052 258.552C88.0526 259.348 89.7741 260.476 91.677 261.04C95.8485 262.28 100.547 262.475 105.263 261.605C107.67 261.161 110.256 260.227 112.948 258.829C117.108 256.668 119.601 252.961 124.776 254.329C126.449 254.771 150.219 265.97 150.334 266.024C151.107 266.387 151.438 267.309 151.075 268.081C150.711 268.854 149.788 269.184 149.016 268.82C148.911 268.771 125.242 257.649 123.984 257.316C122.917 257.032 121.911 257.06 121.156 257.388C118.999 258.329 116.771 260.327 114.374 261.57C111.409 263.109 108.534 264.143 105.825 264.643C100.632 265.601 95.4335 265.379 90.7953 264.001C89.4567 263.602 88.2873 263.027 87.1561 262.47C82.1696 260.012 82.2376 260.586 78.2847 262.134C73.1711 264.143 73.2019 264.575 69.217 266.645C66.7423 267.931 68.9329 266.776 47.7102 278.876C46.705 279.472 43.5993 282.024 41.1295 284.406C40.5158 284.998 39.5353 284.982 38.9425 284.367L38.9438 284.371Z" fill="#1A4DC2"/>
<path d="M170.639 310.304C169.783 301.601 170.68 295.417 169.81 284.991C169.551 281.883 168.595 278.492 160.199 274.221C158.472 273.354 156.695 272.472 154.867 271.591C154.098 271.219 153.775 270.297 154.147 269.528C154.518 268.759 155.442 268.437 156.212 268.809C164.366 272.744 172.176 276.156 172.894 284.735C173.769 295.227 172.886 301.54 173.719 310.003C173.803 310.852 173.18 311.608 172.331 311.692C171.477 311.776 170.723 311.153 170.64 310.305L170.639 310.304Z" fill="#1A4DC2"/>
<path d="M158.449 324.058C156.943 324.058 156.327 322.114 157.558 321.248C169.098 313.137 179.144 302.923 189.173 289.101C189.751 288.307 190.956 288.218 191.62 289.027C196.896 295.433 196.223 296.2 207.304 305.407L208.053 306.031C208.71 306.577 208.798 307.551 208.252 308.207C207.705 308.862 206.731 308.952 206.074 308.406L205.327 307.785C195.961 300.002 195.325 298.76 190.477 292.554C180.635 305.836 170.702 315.79 159.336 323.779C159.066 323.969 158.756 324.06 158.447 324.06L158.449 324.058Z" fill="#1A4DC2"/>
<path d="M159.591 367.119C159.295 366.319 159.704 365.43 160.505 365.134C165.873 363.15 181.54 353.28 185.205 349.181C189.973 343.892 194.399 338.026 198.362 331.74C201.103 327.388 203.769 322.949 206.286 318.549C206.711 317.808 207.658 317.552 208.396 317.974C209.138 318.398 209.397 319.341 208.972 320.083C206.433 324.522 203.744 328.998 200.978 333.388C196.92 339.824 192.387 345.832 187.506 351.246C183.45 355.783 167.481 365.851 161.577 368.034C160.774 368.33 159.886 367.92 159.589 367.121L159.591 367.119Z" fill="#1A4DC2"/>
<path d="M145.357 454.535C135.361 454.535 127.445 448.292 119.83 441.981C119.173 441.436 119.081 440.462 119.627 439.806C120.173 439.149 121.146 439.058 121.805 439.604C126.603 443.579 131.565 447.691 137.402 449.914C149.042 454.346 157.76 448.116 157.06 444.257C156.835 443.027 155.687 441.929 154.591 441.019C150.455 437.578 145.766 434.969 140.658 433.267C139.848 432.996 139.41 432.122 139.68 431.312C139.951 430.503 140.827 430.065 141.636 430.335C147.111 432.16 152.135 434.955 156.571 438.644C158.092 439.911 159.703 441.502 160.103 443.705C160.587 446.369 159.138 449.199 156.226 451.277C153.199 453.437 149.417 454.535 145.358 454.535H145.357Z" fill="#1A4DC2"/>
<path d="M44.141 461.197C38.2938 459.16 32.2367 451.208 42.5319 443.108C47.6987 439.052 53.8089 436.007 60.2006 434.3C61.028 434.079 61.8727 434.569 62.0949 435.394C62.316 436.218 61.8245 437.066 61.0008 437.285C53.0852 439.399 46.0032 443.789 42.6183 447.124C36.8057 452.821 41.1723 462.037 57.1109 457.658C66.8505 455.177 75.9948 450.633 83.9166 444.305C84.5846 443.771 85.5565 443.881 86.09 444.546C86.6222 445.213 86.5148 446.186 85.8467 446.718C83.6609 448.465 81.3715 450.092 79.0425 451.556C71.7381 456.147 63.8583 459.326 56.1341 461.084C52.1331 461.997 48.0074 462.534 44.1385 461.198L44.141 461.197Z" fill="#1A4DC2"/>
<path d="M67.1535 318.916C67.0473 316.783 68.6391 312.184 68.5638 310.632C68.5218 309.779 69.18 309.054 70.0333 309.013C70.8977 308.97 71.6127 309.629 71.6534 310.481C71.7572 312.61 70.1679 317.216 70.2432 318.765C70.2852 319.618 69.6282 320.343 68.7749 320.384C67.9451 320.432 67.1967 319.786 67.1535 318.917V318.916Z" fill="#1A4DC2"/>
<path d="M114.774 358.392C114.801 354.062 110.103 350.522 104.281 350.485C98.459 350.449 93.7172 353.93 93.6899 358.26C93.6627 362.59 98.3604 366.13 104.183 366.167C110.005 366.203 114.747 362.723 114.774 358.392Z" fill="#1A4DC2"/>
<path d="M104.271 366.679C104.24 366.679 104.208 366.679 104.178 366.679C98.0814 366.641 93.1443 362.862 93.174 358.254C93.2061 353.177 98.7149 349.988 104.283 349.968C110.381 350.007 115.318 353.786 115.288 358.393C115.259 362.976 110.325 366.68 104.271 366.68V366.679ZM104.188 350.996C99.4385 350.996 94.2323 353.741 94.2038 358.259C94.1792 362.299 98.6556 365.614 104.183 365.649C104.213 365.649 104.241 365.649 104.269 365.649C109.76 365.649 114.231 362.404 114.256 358.385C114.281 354.346 109.804 351.032 104.276 350.996C104.246 350.996 104.216 350.996 104.187 350.996H104.188Z" fill="#1A4DC2"/>
<path d="M144.762 315.379L144.526 308.064C144.499 307.211 145.168 306.497 146.022 306.47C146.823 306.45 147.589 307.11 147.618 307.964L147.854 315.279C147.881 316.132 147.212 316.846 146.357 316.873C145.57 316.922 144.791 316.273 144.762 315.379Z" fill="#1A4DC2"/>
<path d="M151.115 281.238C148.478 279.094 145.881 277.168 143.089 277.168C142.888 277.148 142.678 277.178 142.471 277.186C140.292 277.284 139.414 277.002 137.59 275.408C135.422 273.511 133.691 273.54 130.86 272.429C128.261 271.407 125.505 269.186 125.561 266.012C125.576 265.168 126.267 264.494 127.107 264.494H127.136C127.989 264.509 128.671 265.213 128.655 266.066C128.626 267.66 130.435 268.941 131.993 269.553C134.672 270.605 136.877 270.68 139.629 273.083C140.138 273.527 140.576 273.912 141.01 274.041C141.58 274.212 142.628 274.041 143.092 274.077C146.899 274.077 149.984 276.33 153.071 278.842C153.734 279.381 153.833 280.355 153.293 281.016C152.751 281.68 151.778 281.776 151.117 281.238H151.115Z" fill="#1A4DC2"/>
<path d="M55.5211 295.912C54.0861 295.527 52.9772 294.579 52.4746 293.311C52.161 292.516 52.5512 291.619 53.3452 291.306C54.138 290.994 55.0382 291.383 55.3519 292.176C55.547 292.671 56.0953 292.866 56.3213 292.926C56.8881 293.078 57.5055 292.982 57.8871 292.678C58.7429 292.001 58.9059 290.451 58.2292 289.427C57.4401 288.231 58.57 286.699 59.9383 287.089C63.8985 288.199 64.327 287.363 65.4384 285.512C66.0102 284.6 66.7511 283.596 67.9181 283.058C69.5518 282.305 71.5005 282.878 72.2612 284.333C72.6563 285.09 72.3624 286.023 71.6042 286.418C70.8732 286.798 69.9754 286.537 69.5592 285.835C69.4851 285.814 69.3308 285.811 69.2122 285.865C67.5945 286.61 67.3562 291.226 61.7437 290.629C61.8202 292.339 61.146 294.041 59.8086 295.1C58.6095 296.051 56.9906 296.306 55.5186 295.912H55.5211Z" fill="#1A4DC2"/>
<path d="M173.166 336.883C172.661 336.194 172.809 335.228 173.497 334.722C181.33 328.98 187.959 321.456 192.665 312.964C193.08 312.217 194.021 311.948 194.768 312.361C195.515 312.774 195.785 313.714 195.372 314.461C190.449 323.342 183.518 331.21 175.328 337.213C174.642 337.717 173.672 337.571 173.166 336.882V336.883Z" fill="#1A4DC2"/>
<path d="M32.7665 359.842C31.2044 359.036 31.1105 356.973 32.1034 355.542C32.359 355.177 32.9801 354.46 33.0085 354.303C33.0061 353.942 31.9194 352.808 31.8107 351.396C31.7082 350.063 32.4417 349.061 32.6023 348.408C32.8455 347.427 31.9527 346.171 29.951 344.675C29.2668 344.163 29.1273 343.195 29.6385 342.512C30.151 341.828 31.1192 341.689 31.8033 342.201C32.9554 343.062 36.4613 345.684 35.6043 349.151C35.4944 349.597 35.324 349.987 35.1733 350.333C34.7905 351.212 34.793 351.146 35.2881 351.97C36.4354 353.892 36.4218 355.097 34.9609 356.899C34.8275 357.063 34.6472 357.277 34.5917 357.404C35.0362 357.868 35.1609 358.58 34.8498 359.183C34.4558 359.944 33.521 360.238 32.7653 359.847L32.7665 359.842Z" fill="#1A4DC2"/>
<path d="M222.403 301.855C222.329 301.005 222.957 300.254 223.808 300.18C227.593 299.846 232.962 298.769 235.896 297.333C236.016 297.272 236.372 297.095 236.231 296.556C236.141 296.213 235.778 295.641 234.995 295.678C234.169 295.715 226.668 296.928 226.566 296.945C225.643 297.09 224.768 296.356 224.768 295.419C224.768 294.625 225.364 293.969 226.135 293.883C233.701 292.665 234.007 292.627 234.857 292.59C239.322 292.41 241.074 298.195 237.271 300.101C233.894 301.755 228.249 302.895 224.08 303.259C223.234 303.334 222.479 302.709 222.404 301.855H222.403Z" fill="#1A4DC2"/>
<path d="M236.691 295.471C234.987 295.471 234.548 293.109 236.122 292.487C236.953 292.159 238.38 290.56 238.017 290.02C236.961 288.492 233.151 288.939 231.345 289.377C230.756 289.523 230.152 289.663 229.305 289.861C228.472 290.056 227.642 289.54 227.447 288.71C227.251 287.878 227.766 287.048 228.599 286.851C230.966 286.299 233.064 285.687 235.671 285.908C237.143 286.02 239.268 286.39 240.567 288.273C241.177 289.167 241.324 290.263 240.986 291.366C240.433 293.165 238.657 294.809 237.259 295.362C237.071 295.436 236.88 295.471 236.69 295.471H236.691Z" fill="#1A4DC2"/>
<path d="M235.843 287.841C235.672 287.004 236.213 286.187 237.05 286.017C237.16 285.995 237.494 285.926 237.582 285.268C237.67 284.597 237.377 284.017 237.225 283.942C235.685 283.516 233.007 284.075 231.269 284.319C230.432 284.436 229.642 283.849 229.522 283.004C229.403 282.159 229.992 281.378 230.838 281.258C233.217 280.923 235.854 280.355 238.056 280.965C241.518 281.911 241.752 288.213 237.669 289.046C237.565 289.067 236.015 288.673 235.845 287.842L235.843 287.841Z" fill="#1A4DC2"/>
<path d="M235.146 283.03C234.516 282.455 234.472 281.476 235.047 280.847C235.368 280.495 235.359 280.241 235.3 280.019C235.11 279.291 234.155 278.436 233.172 278.112C233.214 278.126 233.148 278.108 233.097 278.098C232.26 277.933 231.714 277.12 231.878 276.283C232.044 275.445 232.862 274.901 233.695 275.065C235.459 275.416 237.743 277.137 238.292 279.237C238.639 280.561 238.297 281.872 237.329 282.931C236.754 283.561 235.776 283.606 235.145 283.031L235.146 283.03Z" fill="#1A4DC2"/>
<path d="M202.257 298.318C201.677 297.691 201.716 296.713 202.343 296.134C204.369 294.266 205.206 291.345 206.293 288.571C209.798 279.575 214.626 280.493 217.913 279.728C218.927 279.492 220.086 278.953 220.3 278.147C220.468 277.527 220.065 276.657 219.343 276.072C216.855 274.046 209.465 273.808 203.272 279.729C199.586 283.258 196.982 288.162 194.15 293.084C193.718 293.822 192.771 294.067 192.035 293.638C191.297 293.207 191.049 292.261 191.48 291.524C194.454 286.358 197.147 281.315 201.133 277.496C208.467 270.486 217.582 270.65 221.295 273.674C222.973 275.035 223.775 277.155 223.287 278.949C222.802 280.774 221.098 282.157 218.616 282.737C215.029 283.571 211.993 282.457 209.174 289.692C207.968 292.793 207.02 296.024 204.442 298.404C203.812 298.985 202.832 298.942 202.257 298.316V298.318Z" fill="#1A4DC2"/>
<path d="M93.1625 258.043C92.3104 257.983 91.6695 257.244 91.73 256.393C92.4092 246.834 94.7271 238.286 98.2564 227.797C96.6449 226.759 95.1346 225.492 94.2912 223.492C93.549 221.73 93.7589 219.1 94.7827 217.375C95.4964 216.169 96.5683 215.435 97.802 215.308C99.4135 215.143 100.774 215.794 102.154 216.433C114.135 221.926 126.785 212.439 131.669 208.106C132.473 207.392 133.741 207.699 134.132 208.691C135.463 212.038 137.981 214.94 138.122 219.051C138.465 229.081 133.751 242.479 124.391 246.228C119.563 248.163 112.802 247.075 110.429 242.374C110.045 241.612 110.351 240.682 111.114 240.299C111.873 239.915 112.806 240.22 113.191 240.982C114.729 244.031 119.766 244.75 123.239 243.36C131.244 240.153 135.329 227.895 135.03 219.157C134.94 216.544 133.468 214.414 132.142 211.772C121.329 220.712 110.016 223.439 100.863 219.243C100.015 218.849 98.9492 218.295 98.1206 218.384C97.1623 218.483 96.6263 221.067 97.1438 222.294C97.7439 223.72 98.9776 224.658 100.904 225.797C101.534 226.169 101.817 226.932 101.581 227.624C97.9081 238.418 95.4964 247.033 94.8148 256.612C94.753 257.482 93.9862 258.111 93.1625 258.045V258.043Z" fill="#1A4DC2"/>
<path d="M114.584 258.622C114.192 254.558 113.926 246.888 113.894 245.645C113.871 244.793 114.546 244.082 115.399 244.06C116.207 244.013 116.963 244.711 116.985 245.564C117.017 246.789 117.279 254.349 117.664 258.325C117.746 259.174 117.123 259.93 116.274 260.012C115.399 260.091 114.666 259.454 114.586 258.622H114.584Z" fill="#1A4DC2"/>
<path d="M107.128 239.861C106.821 239.861 106.511 239.77 106.241 239.581C103.652 237.764 103.467 237.524 102.277 234.464C101.968 233.669 102.362 232.774 103.158 232.464C103.954 232.155 104.851 232.55 105.16 233.345C105.765 234.904 106.718 236.14 108.019 237.052C109.256 237.92 108.63 239.861 107.128 239.861Z" fill="#1A4DC2"/>
<path d="M125.916 232.132C126.333 231.385 127.279 231.121 128.019 231.535C128.131 231.528 128.503 231.254 128.548 231.058C128.864 229.654 126.158 227.177 127.415 224.279C127.755 223.496 128.665 223.137 129.449 223.475C130.232 223.815 130.593 224.725 130.253 225.507C129.715 226.75 132.191 228.978 131.564 231.741C131.317 232.829 130.481 233.808 129.381 234.299C127.153 235.294 125.005 233.762 125.915 232.132H125.916Z" fill="#1A4DC2"/>
<path d="M122.472 238.23C121.784 237.724 121.637 236.757 122.143 236.07C122.65 235.382 123.617 235.236 124.306 235.741C124.696 236.03 125.311 236.136 125.83 236.007C126.661 235.803 127.497 236.306 127.703 237.134C127.908 237.962 127.403 238.801 126.574 239.006C125.158 239.356 123.591 239.053 122.469 238.23H122.472Z" fill="#1A4DC2"/>
<path d="M107.399 405.266C106.053 406.114 105.032 406.77 100.336 409.707L104.976 407.544C105.367 407.729 105.77 407.914 106.14 408.1C106.913 408.461 107.831 408.131 108.203 407.359C108.53 406.659 108.332 405.734 107.399 405.268V405.266ZM45.1841 377.43C38.1934 374.113 30.2741 370.363 21.7991 370.157C13.9218 369.961 4.02296 373.783 0.929575 382.591C-0.668365 387.124 -0.19417 392.388 2.25954 397.406C4.96147 403.017 9.89112 407.326 14.8183 410.87C15.2876 411.14 31.9042 423.887 55.4423 429.538C55.4324 429.116 55.6695 428.723 56.0708 428.548C59.7718 426.962 63.0924 425.529 66.082 424.231C66.1956 424.179 66.2981 424.129 66.4019 424.087C89.8943 413.879 94.4313 411.171 105.181 404.225C88.468 396.426 62.3626 385.524 45.1829 377.43H45.1841ZM16.1174 380.531C12.498 380.995 9.48732 384.467 9.54906 388.113C9.55894 388.69 9.10203 389.163 8.51793 389.163C7.93384 389.163 7.49669 388.71 7.48681 388.153C7.40407 383.507 11.2396 379.078 15.8593 378.48C16.4372 378.408 16.9312 378.81 17.0139 379.376C17.0868 379.933 16.6842 380.447 16.1174 380.53V380.531ZM45.3175 384.889C45.8744 384.765 46.4202 385.126 46.5338 385.682L47.6884 391.317C47.8021 391.873 47.4415 392.419 46.8845 392.532C46.435 392.66 45.7855 392.352 45.6682 391.729L44.5136 386.104C44.3999 385.538 44.7605 385.002 45.3175 384.889ZM40.0593 383.24C40.1112 382.674 40.6163 382.251 41.1831 382.314C41.7499 382.375 42.1623 382.88 42.1105 383.446C41.9351 385.168 42.2957 386.959 43.1206 388.494C43.4935 389.182 42.9774 390.008 42.213 390.008C41.8425 390.008 41.4918 389.812 41.2955 389.461C40.2853 387.576 39.842 385.371 40.0581 383.239L40.0593 383.24ZM60.8671 418.905C60.7128 418.905 60.5473 418.874 60.3929 418.791C48.0194 412.435 35.8434 405.358 24.1812 397.766C23.707 397.456 23.5724 396.818 23.8824 396.345C24.1923 395.861 24.8307 395.726 25.3049 396.036C36.9042 403.597 49.0295 410.633 61.3413 416.959C62.2848 417.44 61.96 418.906 60.8671 418.906V418.905ZM88.5829 410.962C88.2013 410.962 87.8407 410.755 87.6555 410.395C86.5206 408.139 83.7063 406.862 81.2625 407.459C80.8401 407.562 80.4067 407.397 80.1597 407.037C79.1385 405.527 76.6032 405.372 74.8497 404.997C72.086 404.462 69.2507 402.617 69.5607 399.815C69.6224 399.249 70.1386 398.847 70.6956 398.908C71.2624 398.97 71.6649 399.475 71.6032 400.041C71.4377 401.628 73.7482 402.689 75.2424 402.978C77.4751 403.391 79.8893 403.661 81.4292 405.327C84.646 404.842 88.0284 406.542 89.5028 409.469C89.8535 410.155 89.3361 410.963 88.5853 410.963L88.5829 410.962ZM57.754 430.072C57.8577 430.099 58.9308 430.361 59.2284 430.361C60.1324 430.361 60.8251 429.557 60.7547 428.774C59.7854 429.196 58.7851 429.629 57.754 430.072Z" fill="#1A4DC2"/>
<path d="M209.146 366.727C200.866 357.208 185.648 357.559 174.894 362.812C164.162 368.071 154.464 378.964 144.478 384.858C132.708 391.811 122.123 397.451 110.452 403.349C93.7734 413.827 93.3746 414.731 60.7539 428.774C60.586 428.847 56.8912 430.464 56.7121 430.495C55.907 433.408 57.3641 436.133 59.8574 437.16C59.8981 437.181 59.9401 437.191 59.9809 437.212C59.9907 437.212 60.0019 437.222 60.0117 437.222C84.5921 447.166 56.2392 435.533 89.3044 449.017C90.5393 449.532 91.2543 449.934 92.604 449.934C93.4252 449.934 91.705 450.684 118.196 441.569C137.655 434.937 157.593 427.809 176.524 420.244C188.463 415.459 202.025 409.482 209.189 398.373C209.199 398.352 209.21 398.342 209.22 398.321C209.22 398.311 209.23 398.3 209.241 398.29C214.84 389.555 217.211 375.946 209.149 366.726L209.146 366.727ZM71.9506 428.075L71.0849 432.298C70.9923 432.784 70.5379 433.197 69.8686 433.101C69.3116 432.988 68.9511 432.442 69.0647 431.886L69.9303 427.662C70.0439 427.106 70.5897 426.746 71.1467 426.859C71.7036 426.973 72.0642 427.518 71.9506 428.075ZM77.0951 427.034C77.0951 427.601 76.6308 428.065 76.064 428.065C75.4972 428.065 75.0329 427.601 75.0329 427.034V425.902C75.0329 425.336 75.4972 424.872 76.064 424.872C76.6308 424.872 77.0951 425.336 77.0951 425.902V427.034ZM142.012 425.067C139.993 427.818 135.601 426.212 134.125 427.899C133.959 428.084 133.805 428.342 133.65 428.62C132.67 430.262 131.972 430.633 130.237 430.557C129.359 430.497 129.388 430.441 129.144 431.535C129.092 431.793 129.04 432.04 128.969 432.267C128.179 434.921 124.629 436.102 122.401 434.492C121.936 434.152 121.834 433.513 122.173 433.049C122.503 432.585 123.153 432.493 123.617 432.822C124.671 433.596 126.598 432.991 126.999 431.679C127.203 430.988 127.223 429.581 128.371 428.856C129.423 428.171 130.621 428.657 131.135 428.464C131.588 428.302 131.912 427.3 132.578 426.538C134.794 423.998 139.034 425.629 140.353 423.85C140.683 423.386 141.333 423.294 141.797 423.623C142.25 423.964 142.354 424.612 142.013 425.065L142.012 425.067ZM191.245 380.161C156.429 401.331 137.582 413.75 100.232 428.548C100.099 428.589 99.9738 428.62 99.8503 428.62C98.7266 428.62 98.4092 427.047 99.4687 426.632C136.907 411.799 154.647 400.001 190.172 378.399C190.656 378.1 191.296 378.255 191.585 378.74C191.884 379.234 191.729 379.862 191.244 380.161H191.245ZM66.4022 424.088C76.9296 419.514 83.4362 416.537 88.3844 414.055C80.8887 417.558 73.5473 420.885 66.4022 424.088Z" fill="#1A4DC2"/>
<path d="M145.327 366.279C144.474 366.251 143.805 365.535 143.834 364.683L144.811 335.936C144.841 335.084 145.573 334.425 146.409 334.445C147.262 334.473 147.932 335.189 147.902 336.041L146.925 364.788C146.897 365.621 146.208 366.304 145.327 366.279Z" fill="#1A4DC2"/>
<path d="M133.134 197.896C128.107 193.64 120.39 192.145 113.65 193.852C114.598 190.014 113.393 185.561 109.975 183.199C105.346 179.998 99.803 179.4 95.1475 181.598C85.103 186.341 83.1123 201.238 91.0465 204.02C92.9877 204.703 94.682 204.3 96.1972 203.791C90.9094 209.755 86.2428 216.919 87.1059 224.879C87.6975 230.357 91.1119 235.046 96.0156 237.115C96.7948 237.444 97.7099 237.085 98.0445 236.287C99.2016 233.513 100.624 229.502 101.742 226.824C102.055 226.073 101.733 225.207 101.005 224.846C99.7104 224.203 98.373 223.537 97.5605 222.552C97.0011 221.873 96.6726 220.786 97.1628 220.105C97.5679 219.542 98.5459 219.212 99.6277 219.257C100.49 219.295 101.375 219.521 102.311 219.761C113.161 222.532 122.272 217.553 131.465 211.656C132.974 213.038 135.131 215.513 135.147 218.392C135.155 220.009 137.347 220.525 138.076 219.075C141.49 212.274 139.365 203.168 133.134 197.894V197.896ZM105.29 189.028C104.845 189.387 104.197 189.322 103.839 188.881C102.848 187.67 101.042 187.121 99.5474 187.576C98.0495 188.03 96.8541 189.489 96.7047 191.046C96.6541 191.579 96.2058 191.977 95.6797 191.977C95.6476 191.977 95.6143 191.976 95.581 191.972C95.0141 191.918 94.598 191.414 94.6523 190.848C94.8795 188.458 96.6467 186.3 98.9472 185.603C101.243 184.904 103.915 185.718 105.435 187.579C105.796 188.019 105.73 188.668 105.29 189.028ZM129.052 203.398C128.809 203.398 128.565 203.313 128.368 203.138C127.211 202.11 125.552 201.661 124.031 201.966C123.472 202.077 122.931 201.717 122.818 201.159C122.705 200.6 123.067 200.059 123.626 199.946C125.766 199.517 128.108 200.151 129.738 201.598C130.443 202.225 129.997 203.398 129.054 203.398H129.052Z" fill="#1A4DC2"/>
<path d="M72.527 228.183C69.2138 230.33 65.708 232.232 62.7615 234.859C58.3159 238.823 54.4458 247.663 57.3219 253.504C58.6963 256.298 61.6489 258.246 64.7596 258.415C65.866 258.475 67.0206 258.333 68.0456 258.754C70.3598 259.704 71.1205 263.117 73.5742 263.609C76.5527 264.206 79.1003 259.889 81.9541 260.928C83.2754 261.409 83.9447 262.863 85.0462 263.736C86.4071 264.816 88.4879 264.871 89.9055 263.867C91.3232 262.863 91.9579 260.882 91.3898 259.243C93.094 260.406 95.5502 258.848 96.1491 256.874C96.748 254.9 96.1466 252.794 95.7601 250.768C95.2661 248.178 98.6374 226.031 99.7907 225.935C93.6349 226.453 91.3874 221.623 94.3116 216.512C95.6428 214.185 97.6198 212.251 98.7584 209.824C99.5006 208.241 100.449 203.481 97.7112 203.132C95.6366 202.866 93.7485 207.478 92.7309 208.896C87.2493 216.534 80.3574 223.112 72.527 228.185V228.183Z" fill="#1A4DC2"/>
<path d="M84.0831 264.944C83.541 264.514 83.1088 264.006 82.7272 263.558C81.4467 262.054 81.1713 261.779 78.5076 263.49C77.0147 264.449 75.3192 265.533 73.2693 265.122C70.0759 264.482 69.225 260.907 67.4579 260.182C66.775 259.902 65.7365 260.015 64.6732 259.957C60.9908 259.758 57.5603 257.493 55.9327 254.186C52.559 247.335 57.2195 237.727 61.7293 233.706C64.7967 230.971 68.4137 229.006 71.6837 226.886C79.3412 221.926 86.1071 215.47 91.4739 207.992C91.6678 207.722 91.9518 207.215 92.2544 206.677C93.5374 204.392 95.312 201.257 97.9064 201.595C99.0277 201.738 99.9428 202.361 100.486 203.348C101.705 205.563 100.77 209.171 100.158 210.476C98.9252 213.099 96.9235 215.052 95.6515 217.275C94.6068 219.101 94.0993 221.602 95.3156 223.074C96.1294 224.059 97.7558 224.549 99.6587 224.391C100.524 224.312 101.259 224.951 101.331 225.801C101.372 226.288 101.181 226.742 100.85 227.055C99.7402 229.627 96.8778 248.235 97.2766 250.475C97.7027 252.708 98.3386 254.972 97.6274 257.317C97.0198 259.317 95.1242 260.962 93.1052 261.164C92.5705 265.738 87.3642 267.543 84.0819 264.942L84.0831 264.944ZM82.4827 259.474C84.2721 260.126 85.076 261.784 86.0059 262.523C86.8295 263.177 88.1509 263.213 89.0079 262.604C89.8673 261.996 90.2699 260.74 89.9266 259.747C89.4401 258.345 91.0294 257.127 92.2593 257.965C92.9965 258.465 94.3574 257.446 94.6673 256.423C95.1428 254.854 94.6007 252.947 94.2388 251.055C93.798 248.741 95.9035 233.494 97.5483 227.42C91.5604 226.599 90.0143 220.904 92.9669 215.743C94.3142 213.389 96.332 211.351 97.3569 209.166C97.8669 208.081 98.2559 205.712 97.7755 204.839C97.7064 204.712 97.6595 204.681 97.515 204.661C96.6271 204.86 94.7167 208.777 93.9881 209.794C82.0221 226.471 69.6091 230.823 63.7903 236.012C59.4966 239.839 56.3427 248.017 58.7088 252.823C59.8337 255.106 62.2973 256.734 64.8424 256.871C65.1116 256.886 65.3808 256.887 65.6525 256.888C68.6113 256.908 69.7424 257.449 71.8356 260.214C73.594 262.539 74.0114 262.701 76.8356 260.889C78.0273 260.126 80.4081 258.719 82.484 259.474H82.4827Z" fill="#1A4DC2"/>
<path d="M5.27645 276C5.17643 276 5.07764 275.99 4.97638 275.97C4.13913 275.806 3.59207 274.994 3.75755 274.156C10.5729 239.48 27.6427 206.177 51.8205 180.385C52.4033 179.76 53.3851 179.731 54.0062 180.313C54.6298 180.897 54.6619 181.874 54.0778 182.497C30.2915 207.873 13.4983 240.636 6.79166 274.752C6.64717 275.489 6.0001 276 5.27645 276Z" fill="#1A4DC2"/>
<path d="M391.486 127.458C391.725 140.309 392.117 144.721 390.712 149.013C388.111 156.971 379.738 163.367 375.915 170.817C376.819 166.426 375.725 160.127 375.547 155.166C375.351 149.692 376.109 145.356 379.332 140.996C381.902 137.52 385.365 133.59 388.379 130.51C388.818 130.06 391.495 128.011 391.486 127.458Z" fill="#1A4DC2"/>
<path d="M375.401 172.273C374.673 172.016 374.244 171.261 374.4 170.505C376.182 161.845 370.396 150.478 378.088 140.078C380.704 136.541 384.199 132.57 387.273 129.429C387.675 129.017 389.513 127.572 390.022 126.956C390.227 126.359 390.789 125.924 391.458 125.913C391.467 125.913 391.477 125.913 391.488 125.913C392.329 125.913 393.018 126.585 393.034 127.429V127.434C393.286 141.033 393.647 145.019 392.184 149.493C389.458 157.829 381.024 164.253 377.293 171.521C376.941 172.209 376.132 172.529 375.404 172.274L375.401 172.273ZM390.007 131.134C388.705 132.225 383.771 137.591 380.574 141.913C375.259 149.103 377.457 156.261 377.783 165.054C381.904 159.563 387.335 154.357 389.242 148.531C390.525 144.605 390.177 140.27 390.007 131.133V131.134Z" fill="#1A4DC2"/>
<path d="M199.612 434.006H145.503C144.649 434.006 143.957 433.314 143.957 432.462C143.957 431.609 144.649 430.917 145.503 430.917H199.612C200.465 430.917 201.158 431.609 201.158 432.462C201.158 433.314 200.465 434.006 199.612 434.006Z" fill="#1A4DC2"/>
<path d="M476.117 271.984C475.275 271.984 474.586 271.308 474.571 270.464L473.964 233.133C473.957 232.723 474.114 232.327 474.398 232.032C474.685 231.737 475.075 231.57 475.485 231.562L487.576 231.366C488.444 231.338 489.133 232.032 489.148 232.886L489.759 270.406C489.773 271.259 489.091 271.962 488.238 271.977H488.212C487.369 271.977 486.68 271.301 486.666 270.457L486.079 234.481L477.082 234.628L477.663 270.414C477.677 271.266 476.995 271.969 476.142 271.984H476.116H476.117Z" fill="#1A4DC2"/>
<path d="M481.71 286.854C481.606 286.829 480.982 286.881 480.496 286.267L468.729 271.398C468.361 270.934 468.291 270.3 468.549 269.767C468.809 269.234 469.348 268.895 469.942 268.895C470.049 268.895 476.224 268.893 476.118 268.893C476.971 268.893 477.664 269.586 477.664 270.438C477.664 271.291 476.973 271.984 476.118 271.984H473.137L481.744 282.859L490.847 271.977H488.213C487.359 271.975 486.666 271.283 486.666 270.429C486.666 269.576 487.359 268.885 488.213 268.885C488.362 268.885 494.262 268.887 494.155 268.887C495.464 268.887 496.181 270.418 495.342 271.424L482.898 286.299C482.604 286.65 482.169 286.853 481.711 286.853L481.71 286.854Z" fill="#1A4DC2"/>
<path d="M529.151 239.388C526.561 235.158 521.716 230.622 515.949 230.672C514.29 217.725 500.479 213.301 490.166 220.265C480.208 205.027 456.533 209.706 454.657 231.902C452.778 230.84 450.437 230.448 448.15 230.924C440.96 232.425 435.989 237.876 435.099 244.971C434.295 251.38 439.277 256.939 444.373 258.916C446.641 259.796 449.34 259.813 451.721 259.827C459.059 259.873 461.711 260.833 520.431 260.244C522.846 260.219 524.591 260.044 526.75 257.919C531.241 253.502 532.387 244.67 529.15 239.388H529.151ZM475.743 221.626C471.786 221.345 467.68 223.409 465.538 226.75C465.233 227.227 464.595 227.369 464.113 227.061C463.633 226.754 463.494 226.117 463.801 225.638C466.379 221.621 471.107 219.237 475.886 219.57C476.454 219.61 476.882 220.102 476.843 220.67C476.803 221.237 476.3 221.655 475.743 221.626Z" fill="#1A4DC2"/>
<path d="M218.683 274.569C217.884 274.269 217.479 273.379 217.779 272.579L221.334 263.123C221.635 262.324 222.527 261.922 223.326 262.22C224.125 262.52 224.53 263.411 224.23 264.21L220.674 273.666C220.378 274.453 219.496 274.873 218.683 274.569Z" fill="#1A4DC2"/>
<path d="M205.089 308.205L214.314 281.468C214.592 280.661 215.474 280.229 216.28 280.511C217.088 280.788 217.516 281.668 217.237 282.475L207.993 309.265C206.903 312.091 206.961 316.345 208.757 318.257C209.77 319.334 211.246 319.5 213.268 318.761C215.39 317.99 216.59 316.707 217.552 314.187C221.631 303.688 228.041 286.222 234.243 270.01C234.549 269.213 235.442 268.815 236.241 269.119C237.039 269.424 237.438 270.317 237.133 271.114C232.575 283.008 224.069 305.96 220.439 315.297C219.586 317.532 218.118 320.286 214.328 321.664C205.817 324.769 202.21 315.653 205.089 308.203V308.205Z" fill="#1A4DC2"/>
<path d="M259.438 248.23C258.792 247.672 258.719 246.698 259.277 246.05C264.081 240.481 264.495 231.431 260.216 225.448C259.719 224.753 259.88 223.788 260.575 223.292C261.272 222.798 262.236 222.957 262.733 223.651C267.887 230.861 267.409 241.358 261.619 248.068C261.064 248.711 260.087 248.789 259.438 248.23Z" fill="#1A4DC2"/>
<path d="M256.838 220.822C256.235 220.822 255.66 220.466 255.412 219.875L255.258 219.505C254.933 218.715 255.31 217.812 256.099 217.487C256.892 217.163 257.793 217.541 258.118 218.328L258.263 218.677C258.594 219.464 258.224 220.37 257.437 220.7C257.242 220.782 257.038 220.821 256.84 220.821L256.838 220.822Z" fill="#1A4DC2"/>
<path d="M259.984 69.8249C277.169 73.2166 294.751 74.5886 312.254 73.9026C317.215 73.7077 322.646 73.1413 326.125 69.604C331.284 64.3591 329.508 55.7225 327.38 48.6836C328.158 52.0593 328.94 55.5016 328.645 58.9526C328.35 62.4035 326.794 65.9285 323.841 67.741C321.274 69.3178 318.091 69.3918 315.078 69.4202C294.658 69.6139 280.948 69.5201 260.528 69.7126L259.985 69.8249H259.984Z" fill="white"/>
<path d="M383.866 65.5547C383.378 65.5547 382.898 65.324 382.598 64.8946L375.262 54.3974L333.758 54.1371C332.905 54.1321 332.217 53.435 332.222 52.5825C332.227 51.7324 332.918 51.0464 333.768 51.0464H333.778L376.081 51.3117C376.582 51.3141 377.052 51.5609 377.338 51.9717L385.132 63.1241C385.621 63.8237 385.45 64.7873 384.749 65.2759C384.479 65.4634 384.171 65.5535 383.865 65.5535L383.866 65.5547Z" fill="#1A4DC2"/>
<path d="M252.918 69.8459C249.948 68.3802 248.038 65.2895 248.053 61.9706L248.142 43.5054C248.167 38.6911 252.095 34.7886 256.909 34.7886C257.012 34.7886 320.11 35.0724 320.414 35.1254C321.256 35.2722 321.818 36.0742 321.671 36.9144C321.528 37.7263 320.779 38.2827 319.967 38.1815L256.937 37.878H256.909C253.793 37.878 251.252 40.4024 251.236 43.519L251.147 61.9841C251.137 64.1297 252.369 66.1273 254.287 67.0736C255.054 67.4511 255.368 68.379 254.988 69.1439C254.614 69.9027 253.693 70.226 252.918 69.8459ZM319.883 38.1704C319.883 38.1704 319.883 38.1704 319.885 38.1704C319.885 38.1704 319.884 38.1704 319.883 38.1704ZM319.879 38.1704C319.879 38.1704 319.882 38.1704 319.883 38.1704C319.88 38.1704 319.88 38.1704 319.879 38.1704Z" fill="#1A4DC2"/>
<path d="M319.86 71.0752H319.817L260.349 70.7889C259.494 70.7852 258.805 70.0894 258.809 69.2356C258.813 68.3855 259.504 67.6982 260.355 67.6982H260.363L319.831 67.9845H319.859C322.975 67.9845 325.516 65.4601 325.531 62.3435L325.621 43.8784C325.627 42.5422 325.166 41.2516 324.321 40.2436C323.773 39.5897 323.858 38.615 324.512 38.0672C325.169 37.5169 326.141 37.6057 326.692 38.2584C328.007 39.8253 328.724 41.8253 328.716 43.892L328.626 62.3571C328.615 64.6952 327.692 66.8901 326.027 68.5372C324.374 70.1733 322.185 71.0739 319.862 71.0739L319.86 71.0752Z" fill="#1A4DC2"/>
<path d="M295.685 47.2555H295.677L262.683 47.0975C261.829 47.0938 261.14 46.398 261.144 45.5442C261.147 44.6941 261.839 44.0068 262.69 44.0068H262.697L295.691 44.1648C296.545 44.1685 297.234 44.8643 297.231 45.7181C297.227 46.5682 296.535 47.2555 295.685 47.2555Z" fill="#1A4DC2"/>
<path d="M256.267 47.4027C255.664 46.7969 255.669 45.8185 256.276 45.2176L256.473 45.0214C257.081 44.4206 258.059 44.4243 258.66 45.0301C259.263 45.6359 259.258 46.6143 258.651 47.2151L258.454 47.4113C257.844 48.0146 256.866 48.006 256.267 47.4027Z" fill="#1A4DC2"/>
<path d="M313.991 53.677L260.681 53.4204L260.659 57.9682L313.888 58.2236L313.991 53.677Z" fill="#1A4DC2"/>
<path d="M313.888 59.7691H313.88L260.652 59.5125C260.241 59.5101 259.848 59.346 259.56 59.0548C259.271 58.7636 259.111 58.37 259.112 57.9592L259.134 53.4113C259.138 52.5613 259.829 51.874 260.68 51.874H260.688L313.997 52.1307C314.414 52.1331 314.81 52.3009 315.099 52.5983C315.388 52.8956 315.546 53.2966 315.537 53.7112L315.434 58.2577C315.415 59.098 314.727 59.7679 313.888 59.7679V59.7691ZM262.213 56.4305L312.376 56.6723L312.409 55.2152L262.221 54.9733L262.213 56.4305Z" fill="#1A4DC2"/>
<path d="M259.984 69.8249C277.169 73.2166 294.751 74.5886 312.254 73.9026C317.215 73.7077 322.646 73.1413 326.125 69.604C331.284 64.3591 329.508 55.7225 327.38 48.6836C328.158 52.0593 328.94 55.5016 328.645 58.9526C328.35 62.4035 326.794 65.9285 323.841 67.741C321.274 69.3178 318.091 69.3918 315.078 69.4202C294.658 69.6139 280.948 69.5201 260.528 69.7126L259.985 69.8249H259.984Z" fill="white"/>
<path d="M383.866 65.5547C383.378 65.5547 382.898 65.324 382.598 64.8946L375.262 54.3974L333.758 54.1371C332.905 54.1321 332.217 53.435 332.222 52.5825C332.227 51.7324 332.918 51.0464 333.768 51.0464H333.778L376.081 51.3117C376.582 51.3141 377.052 51.5609 377.338 51.9717L385.132 63.1241C385.621 63.8237 385.45 64.7873 384.749 65.2759C384.479 65.4634 384.171 65.5535 383.865 65.5535L383.866 65.5547Z" fill="#1A4DC2"/>
<path d="M252.918 69.8459C249.948 68.3802 248.038 65.2895 248.053 61.9706L248.142 43.5054C248.167 38.6911 252.095 34.7886 256.909 34.7886C257.012 34.7886 320.11 35.0724 320.414 35.1254C321.256 35.2722 321.818 36.0742 321.671 36.9144C321.528 37.7263 320.779 38.2827 319.967 38.1815L256.937 37.878H256.909C253.793 37.878 251.252 40.4024 251.236 43.519L251.147 61.9841C251.137 64.1297 252.369 66.1273 254.287 67.0736C255.054 67.4511 255.368 68.379 254.988 69.1439C254.614 69.9027 253.693 70.226 252.918 69.8459ZM319.883 38.1704C319.883 38.1704 319.883 38.1704 319.885 38.1704C319.885 38.1704 319.884 38.1704 319.883 38.1704ZM319.879 38.1704C319.879 38.1704 319.882 38.1704 319.883 38.1704C319.88 38.1704 319.88 38.1704 319.879 38.1704Z" fill="#1A4DC2"/>
<path d="M319.86 71.0752H319.817L260.349 70.7889C259.494 70.7852 258.805 70.0894 258.809 69.2356C258.813 68.3855 259.504 67.6982 260.355 67.6982H260.363L319.831 67.9845H319.859C322.975 67.9845 325.516 65.4601 325.531 62.3435L325.621 43.8784C325.627 42.5422 325.166 41.2516 324.321 40.2436C323.773 39.5897 323.858 38.615 324.512 38.0672C325.169 37.5169 326.141 37.6057 326.692 38.2584C328.007 39.8253 328.724 41.8253 328.716 43.892L328.626 62.3571C328.615 64.6952 327.692 66.8901 326.027 68.5372C324.374 70.1733 322.185 71.0739 319.862 71.0739L319.86 71.0752Z" fill="#1A4DC2"/>
<path d="M295.685 47.2555H295.677L262.683 47.0975C261.829 47.0938 261.14 46.398 261.144 45.5442C261.147 44.6941 261.839 44.0068 262.69 44.0068H262.697L295.691 44.1648C296.545 44.1685 297.234 44.8643 297.231 45.7181C297.227 46.5682 296.535 47.2555 295.685 47.2555Z" fill="#1A4DC2"/>
<path d="M256.267 47.4027C255.664 46.7969 255.669 45.8185 256.276 45.2176L256.473 45.0214C257.081 44.4206 258.059 44.4243 258.66 45.0301C259.263 45.6359 259.258 46.6143 258.651 47.2151L258.454 47.4113C257.844 48.0146 256.866 48.006 256.267 47.4027Z" fill="#1A4DC2"/>
<path d="M313.991 53.677L260.681 53.4204L260.659 57.9682L313.888 58.2236L313.991 53.677Z" fill="#1A4DC2"/>
<path d="M313.888 59.7691H313.88L260.652 59.5125C260.241 59.5101 259.848 59.346 259.56 59.0548C259.271 58.7636 259.111 58.37 259.112 57.9592L259.134 53.4113C259.138 52.5613 259.829 51.874 260.68 51.874H260.688L313.997 52.1307C314.414 52.1331 314.81 52.3009 315.099 52.5983C315.388 52.8956 315.546 53.2966 315.537 53.7112L315.434 58.2577C315.415 59.098 314.727 59.7679 313.888 59.7679V59.7691ZM262.213 56.4305L312.376 56.6723L312.409 55.2152L262.221 54.9733L262.213 56.4305Z" fill="#1A4DC2"/>
<path d="M248.516 159.759H240.134C239.849 159.759 239.619 159.989 239.619 160.273V168.648C239.619 168.933 239.849 169.163 240.134 169.163H248.516C248.8 169.163 249.031 168.933 249.031 168.648V160.273C249.031 159.989 248.8 159.759 248.516 159.759Z" fill="#1A4DC2"/>
<path d="M248.778 176.563H240.395C240.111 176.563 239.88 176.794 239.88 177.078V185.453C239.88 185.737 240.111 185.968 240.395 185.968H248.778C249.062 185.968 249.293 185.737 249.293 185.453V177.078C249.293 176.794 249.062 176.563 248.778 176.563Z" fill="#1A4DC2"/>
<path d="M317.176 165.658H260.709C259.855 165.658 259.163 164.966 259.163 164.113C259.163 163.261 259.855 162.568 260.709 162.568H317.176C318.03 162.568 318.722 163.261 318.722 164.113C318.722 164.966 318.03 165.658 317.176 165.658Z" fill="#1A4DC2"/>
<path d="M343.87 183.42H262.8C261.947 183.42 261.254 182.727 261.254 181.875C261.254 181.022 261.947 180.33 262.8 180.33H343.87C344.723 180.33 345.416 181.022 345.416 181.875C345.416 182.727 344.723 183.42 343.87 183.42Z" fill="#1A4DC2"/>
<path d="M340.996 199.441H287.549C286.695 199.441 286.002 198.748 286.002 197.896C286.002 197.043 286.695 196.351 287.549 196.351H340.996C341.849 196.351 342.542 197.043 342.542 197.896C342.542 198.748 341.849 199.441 340.996 199.441Z" fill="#1A4DC2"/>
<path d="M327.995 218.248H302.19C301.336 218.248 300.644 217.555 300.644 216.703C300.644 215.85 301.336 215.158 302.19 215.158H327.995C328.848 215.158 329.541 215.85 329.541 216.703C329.541 217.555 328.848 218.248 327.995 218.248Z" fill="#1A4DC2"/>
<path d="M330.772 272.061H270.12V283.588H330.772V272.061Z" fill="#1A4DC2"/>
<path d="M330.197 238.447H296.959C296.106 238.447 295.413 237.755 295.413 236.903C295.413 236.05 296.106 235.358 296.959 235.358H330.197C331.051 235.358 331.743 236.05 331.743 236.903C331.743 237.755 331.051 238.447 330.197 238.447Z" fill="#1A4DC2"/>
<path d="M300.795 275.365C299.942 275.365 299.249 274.672 299.249 273.82V256.392C299.249 255.539 299.942 254.848 300.795 254.848C301.648 254.848 302.341 255.54 302.341 256.392V273.82C302.341 274.674 301.648 275.365 300.795 275.365Z" fill="#1A4DC2"/>
<path d="M310.555 257.102L301.304 247.19L291.732 256.753L310.555 257.102Z" fill="#1A4DC2"/>
<path d="M310.555 258.647C310.546 258.647 310.536 258.647 310.526 258.647L291.703 258.299C291.083 258.288 290.529 257.907 290.298 257.332C290.065 256.757 290.199 256.1 290.638 255.662L300.21 246.098C300.508 245.801 300.935 245.642 301.331 245.646C301.75 245.653 302.149 245.831 302.435 246.137L311.687 256.048C312.111 256.502 312.222 257.164 311.969 257.731C311.72 258.288 311.166 258.646 310.556 258.646L310.555 258.647ZM295.398 255.277L306.935 255.49L301.265 249.416L295.399 255.277H295.398Z" fill="#1A4DC2"/>
<path d="M451.29 74.5512C450.439 74.4722 449.815 73.7184 449.895 72.8683C451.243 58.4513 446.72 43.7825 437.484 32.6228C436.941 31.9652 437.032 30.9904 437.69 30.4463C438.35 29.9035 439.323 29.9948 439.869 30.6524C449.622 42.4389 454.398 57.9306 452.973 73.1558C452.894 74.0034 452.144 74.6289 451.29 74.5512Z" fill="#1A4DC2"/>
<path d="M459.725 54.6512C458.885 54.6512 458.195 53.9788 458.178 53.1361C458.082 48.096 456.522 42.9893 453.785 38.7549C453.32 38.038 453.527 37.0818 454.245 36.6179C454.96 36.1565 455.919 36.3601 456.383 37.0781C459.473 41.8567 461.163 47.389 461.272 53.0769C461.288 53.9307 460.609 54.6352 459.754 54.6512C459.744 54.6512 459.734 54.6512 459.725 54.6512Z" fill="#1A4DC2"/>
<path d="M87.7039 77.4326C85.4873 65.4758 89.0759 52.3543 97.0718 43.1858C97.6337 42.543 98.6092 42.4752 99.2538 43.0353C99.8984 43.5955 99.9651 44.5726 99.4045 45.2155C92.0149 53.6892 88.6968 65.8176 90.7455 76.8688C90.9011 77.7077 90.3466 78.5147 89.5069 78.6701C88.6536 78.8268 87.8583 78.2605 87.7039 77.4326Z" fill="#1A4DC2"/>
<path d="M78.9629 61.5181C78.8517 61.5181 78.7393 61.5058 78.6257 61.4811C77.7922 61.296 77.2661 60.4694 77.4526 59.6366L78.8283 53.4564C79.0135 52.6236 79.8347 52.0968 80.6732 52.2831C81.5067 52.4681 82.0328 53.2936 81.8475 54.1264L80.4719 60.309C80.3113 61.0283 79.6729 61.5193 78.9641 61.5193L78.9629 61.5181Z" fill="#1A4DC2"/>
<path d="M427.479 353.435C426.864 353.435 426.282 353.064 426.041 352.459C425.728 351.665 426.115 350.767 426.909 350.452C441.091 344.836 452.126 331.539 455.023 316.576C455.185 315.737 455.993 315.189 456.836 315.352C457.674 315.514 458.222 316.324 458.061 317.162C454.969 333.135 443.189 347.33 428.051 353.325C427.863 353.399 427.671 353.433 427.48 353.433L427.479 353.435Z" fill="#1A4DC2"/>
<path d="M449.455 354.075C448.931 354.075 448.42 353.808 448.13 353.327C447.689 352.597 447.923 351.647 448.656 351.206C453.343 348.382 457.031 344.024 459.04 338.935C459.354 338.14 460.249 337.752 461.047 338.064C461.841 338.377 462.231 339.274 461.917 340.069C459.661 345.785 455.518 350.681 450.252 353.853C450.003 354.003 449.728 354.075 449.455 354.075Z" fill="#1A4DC2"/>
<path d="M120.59 41.327C121.338 42.4412 122.976 42.4412 123.731 41.327C125.259 39.0679 127.692 35.369 130.022 31.3665C133.312 25.6959 136.39 19.4196 136.39 15.7589C136.39 7.90815 130.022 1.54541 122.164 1.54541C114.307 1.54541 107.922 7.90815 107.922 15.7589C107.922 20.9223 114.072 31.3196 118.282 37.8465C119.162 39.2024 119.958 40.3856 120.589 41.3283L120.59 41.327ZM115.64 15.5565C115.64 11.8415 118.65 8.82734 122.368 8.82734C126.086 8.82734 129.096 11.8415 129.096 15.5565C129.096 19.2715 126.086 22.2697 122.368 22.2697C118.65 22.2697 115.64 19.2629 115.64 15.5565Z" fill="#1A4DC2"/>
<path d="M122.159 43.7078C122.159 43.7078 122.152 43.7078 122.15 43.7078C121.008 43.7053 119.943 43.1378 119.307 42.189C119.307 42.189 119.307 42.189 119.307 42.1878L119.171 41.9867C118.56 41.0736 117.81 39.957 116.987 38.6887C109.947 27.7732 106.378 20.0607 106.378 15.7596C106.378 7.06994 113.46 0.00146484 122.166 0.00146484C130.872 0.00146484 137.938 7.07117 137.938 15.7596C137.938 19.1551 135.787 24.5135 131.361 32.1421C129.059 36.0952 126.64 39.7905 125.015 42.1927C124.369 43.1427 123.303 43.7078 122.16 43.7078H122.159ZM121.876 40.4666C121.96 40.5912 122.075 40.6171 122.157 40.6171C122.242 40.6171 122.362 40.59 122.451 40.4592C124.048 38.0977 126.427 34.4666 128.684 30.59C133.775 21.8164 134.843 17.6819 134.843 15.7596C134.843 8.77383 129.155 3.09215 122.165 3.09215C115.174 3.09215 109.47 8.77506 109.47 15.7596C109.47 19.3007 113.156 27.0453 119.584 37.0095C120.395 38.2581 121.136 39.3636 121.741 40.2655L121.876 40.4666ZM122.368 23.8152C117.806 23.8152 114.095 20.11 114.095 15.5561C114.095 11.0021 117.807 7.28092 122.368 7.28092C126.93 7.28092 130.642 10.9922 130.642 15.5561C130.642 20.1199 126.93 23.8152 122.368 23.8152ZM122.368 10.3728C119.512 10.3728 117.188 12.6986 117.188 15.5573C117.188 18.416 119.512 20.7257 122.368 20.7257C125.225 20.7257 127.549 18.4074 127.549 15.5573C127.549 12.7072 125.225 10.3728 122.368 10.3728Z" fill="#1A4DC2"/>
<path d="M251.397 271.859C272.458 269.581 287.727 250.847 285.468 230.034C283.209 209.211 264.292 194.176 243.23 196.454C222.169 198.731 206.901 217.465 209.16 238.288C211.418 259.101 230.335 274.137 251.397 271.859ZM244.171 205.188C260.359 203.443 274.884 214.988 276.62 230.984C278.356 246.992 266.643 261.368 250.455 263.124C234.267 264.868 219.741 253.333 218.006 237.327C216.27 221.331 227.983 206.944 244.171 205.188Z" fill="#1A4DC2"/>
<path d="M207.622 238.455C205.268 216.755 221.146 197.288 243.063 194.917C264.955 192.554 284.658 208.23 287.005 229.867C289.354 251.517 273.518 271.02 251.563 273.395C229.741 275.759 209.976 260.141 207.622 238.455ZM243.395 197.99C223.111 200.183 208.536 218.192 210.697 238.122C212.859 258.06 231.049 272.497 251.231 270.323C271.506 268.129 286.093 250.128 283.93 230.201C281.769 210.28 263.612 195.806 243.396 197.99H243.395ZM216.469 237.494C214.645 220.677 226.996 205.496 244.004 203.652C261.024 201.813 276.332 214.006 278.157 230.818C279.98 247.634 267.627 262.815 250.622 264.658C233.595 266.496 218.289 254.289 216.467 237.492L216.469 237.494ZM244.337 206.725C229.025 208.384 217.902 222.039 219.543 237.161C221.182 252.281 234.962 263.241 250.29 261.587C265.6 259.928 276.722 246.275 275.082 231.152C273.44 216.032 259.636 205.077 244.336 206.725H244.337Z" fill="#1A4DC2"/>
</g>
<defs>
<clipPath id="clip0_4128_1554">
<rect width="531" height="462" fill="white"/>
</clipPath>
</defs>
</svg>
