<svg width="89" height="88" viewBox="0 0 89 88" fill="none" xmlns="http://www.w3.org/2000/svg">
<path d="M0.5 20C0.5 8.95431 9.45431 0 20.5 0H68.5C79.5457 0 88.5 8.95431 88.5 20V68C88.5 79.0457 79.5457 88 68.5 88H20.5C9.45431 88 0.5 79.0457 0.5 68V20Z" fill="white"/>
<path d="M64.6845 24.7482C65.01 24.7482 65.2704 25.0086 65.2704 25.3232V46.9997H23.7292V25.3232C23.7292 25.0086 23.9896 24.7482 24.3042 24.7482H64.6845ZM64.6845 22.9473H24.3042C22.9914 22.9473 21.9282 24.0105 21.9282 25.3232V48.8007H67.0605V25.3232C67.0605 24.0105 65.9864 22.9473 64.6737 22.9473H64.6845Z" fill="#0047FF"/>
<path d="M45.1348 52.8256C45.1348 53.1837 44.8419 53.4766 44.4947 53.4766C44.1475 53.4766 43.8438 53.1837 43.8438 52.8256C43.8438 52.4676 44.1367 52.1855 44.4947 52.1855C44.8527 52.1855 45.1348 52.4785 45.1348 52.8256Z" fill="#0047FF"/>
<path d="M21.9282 50.1465V52.989C21.9282 54.3017 22.9914 55.3649 24.3042 55.3649H64.6845C65.9973 55.3649 67.0713 54.3017 67.0713 52.989V50.1465H21.9282ZM44.4944 54.1498C43.7675 54.1498 43.1708 53.5531 43.1708 52.8262C43.1708 52.0993 43.7675 51.5135 44.4944 51.5135C45.2212 51.5135 45.8071 52.0993 45.8071 52.8262C45.8071 53.5531 45.2212 54.1498 44.4944 54.1498Z" fill="#0047FF"/>
<path opacity="0.53" d="M39.7432 41.0869V41.2171C38.7559 41.6077 37.6818 41.9657 36.521 42.2695V42.2478C36.9224 42.0959 37.9205 41.6945 39.1682 41.0869H39.7432Z" fill="#0047FF"/>
<path d="M36.5312 42.9633C37.6813 42.6595 38.7553 42.3123 39.7534 41.9326V44.7859H36.5312V42.9741V42.9633Z" fill="#194DC2"/>
<path opacity="0.53" d="M43.5617 39.3291C42.6829 39.8607 41.7065 40.3706 40.6216 40.8371V40.3164C41.1532 40.0234 41.7065 39.6871 42.2598 39.3291H43.5617Z" fill="#194DC2"/>
<path d="M43.8545 39.959V44.776H40.6323V41.5755C41.8257 41.0764 42.8998 40.5231 43.8545 39.959Z" fill="#194DC2"/>
<path opacity="0.53" d="M47.5216 36.3135C46.7622 37.0621 45.8292 37.8324 44.7334 38.5918V37.4743C45.1565 37.1163 45.5471 36.7149 45.916 36.3135H47.5108H47.5216Z" fill="#194DC2"/>
<path d="M47.9556 36.8447V44.7754H44.7334V39.4051C46.0244 38.5697 47.0877 37.691 47.9556 36.8447Z" fill="#194DC2"/>
<path opacity="0.53" d="M50.6246 32.2666C50.3642 32.7765 49.8109 33.7421 48.8345 34.8921V32.2666H50.6246Z" fill="#194DC2"/>
<path d="M52.0567 32.712V44.7871H48.8345V35.9559C50.1472 34.513 50.885 33.2545 51.2213 32.6035L52.0567 32.7229V32.712Z" fill="#194DC2"/>
<path d="M52.1541 32.0281L50.8197 31.8437C50.8197 31.8437 50.7546 31.9847 50.6244 32.2559C50.364 32.7658 49.8107 33.7314 48.8343 34.8814C48.4546 35.3262 48.0206 35.8036 47.5107 36.3026C46.7512 37.0512 45.8182 37.8215 44.7225 38.581C44.3536 38.8305 43.963 39.08 43.5508 39.3295C42.672 39.8611 41.6956 40.3711 40.6107 40.8376C40.3177 40.9678 40.0248 41.0871 39.7319 41.2064C38.7446 41.597 37.6705 41.955 36.5097 42.2588C36.4663 42.2805 36.4229 42.2805 36.3687 42.2913C36.4012 42.2696 36.4446 42.2588 36.5097 42.2371C36.9111 42.0852 37.9092 41.6838 39.1569 41.0762C39.6125 40.8484 40.1116 40.588 40.6107 40.3168C41.1423 40.0239 41.6956 39.6876 42.2489 39.3295C43.0951 38.7762 43.9413 38.1578 44.7225 37.4743C45.1456 37.1163 45.5361 36.7149 45.905 36.3135C47.3045 34.7729 48.2918 32.9503 48.2701 30.8889L47.2612 30.1729L51.373 26.7988L52.1432 32.0281H52.1541Z" fill="#194DC2"/>
<path d="M40.8061 56.2539H47.7495L48.5524 61.9388C48.5741 62.069 48.6609 62.1775 48.7802 62.2101L53.9444 63.9351C54.5628 64.1412 54.4109 65.0525 53.76 65.0525H34.4051C33.7217 65.0525 33.5806 64.087 34.2316 63.8917L39.6344 62.286C39.7646 62.2426 39.8622 62.1341 39.8839 62.0039L40.7953 56.2648L40.8061 56.2539Z" fill="#194DC2"/>
</svg>
