<svg width="89" height="88" viewBox="0 0 89 88" fill="none" xmlns="http://www.w3.org/2000/svg">
<path d="M0.5 20C0.5 8.95431 9.45431 0 20.5 0H68.5C79.5457 0 88.5 8.95431 88.5 20V68C88.5 79.0457 79.5457 88 68.5 88H20.5C9.45431 88 0.5 79.0457 0.5 68V20Z" fill="white"/>
<path d="M35.0354 64.2379C34.2279 64.7204 33.1792 64.4687 32.6863 63.6612L29.7394 58.8371L28.9214 57.4947L31.8368 55.7119L32.6548 57.0543L35.6017 61.8783C36.0946 62.6858 35.8429 63.745 35.0354 64.2379Z" fill="#0047FF"/>
<path d="M58.9354 55.5651C56.9009 56.8026 52.3075 53.1111 47.84 46.9762C49.0565 46.0953 49.843 44.669 49.843 43.054C49.843 40.3798 47.6722 38.2194 44.998 38.2194C44.2114 38.2194 43.4669 38.4082 42.8166 38.7333C39.3769 31.9481 38.1813 26.1592 40.2263 24.9218C42.6698 23.4221 48.8363 29.0747 54.0064 37.5378C59.1766 46.0009 61.3789 54.0655 58.9354 55.5651Z" fill="#194DC2"/>
<path d="M52.79 54.8103C49.7172 52.2515 46.4452 48.0776 43.813 43.7569C41.2227 39.5096 39.0204 34.7799 38.129 30.9102H38.1185C38.1185 30.9102 35.2974 41.6909 27.6313 47.0813L23.038 49.8919C21.3181 50.9406 20.3638 52.7758 20.3638 54.6425C20.3638 55.6283 20.6364 56.6351 21.1818 57.537C22.2305 59.2569 24.0657 60.2007 25.9534 60.2007C26.9392 60.2007 27.9355 59.9385 28.8374 59.3932L29.7393 58.8374L32.6547 57.0546L33.242 56.698C33.242 56.698 33.3468 56.6351 33.5461 56.5197C34.6367 55.922 38.6533 54.0238 45.2078 54.0238C47.452 54.0238 49.9794 54.244 52.8004 54.8208H52.79V54.8103ZM45.2078 52.4507C38.2758 52.4507 33.9551 54.5062 32.7596 55.1564C32.5498 55.2822 32.4345 55.3452 32.424 55.3556L31.8367 55.7122L28.9213 57.495L28.0194 58.0508C27.3901 58.4284 26.677 58.6276 25.9534 58.6276C24.5376 58.6276 23.2582 57.9145 22.5241 56.719C22.1361 56.0793 21.9368 55.3661 21.9368 54.6425C21.9368 53.2582 22.6709 51.9578 23.856 51.2342L28.4493 48.4237L28.4913 48.3922L28.5332 48.3712C33.3993 44.9419 36.3986 39.583 38.0346 35.7867C39.1357 38.5658 40.6564 41.5965 42.4706 44.5749C44.2954 47.5637 46.3089 50.3218 48.312 52.587C47.2632 52.5031 46.225 52.4507 45.2078 52.4507Z" fill="#194DC2"/>
<path d="M65.6572 32.282C66.3594 31.8765 66.6 30.9786 66.1945 30.2764C65.7891 29.5742 64.8912 29.3335 64.189 29.739L59.3028 32.56C58.6005 32.9655 58.3599 33.8634 58.7654 34.5656C59.1708 35.2678 60.0687 35.5084 60.771 35.103L65.6572 32.282Z" fill="#194DC2"/>
<path d="M59.8865 25.851C60.292 25.1488 60.0514 24.2509 59.3491 23.8454C58.6469 23.44 57.749 23.6806 57.3435 24.3828L54.5225 29.269C54.1171 29.9712 54.3577 30.8692 55.0599 31.2746C55.7621 31.68 56.6601 31.4394 57.0655 30.7372L59.8865 25.851Z" fill="#194DC2"/>
<path d="M67.168 40.7577C67.9789 40.7577 68.6362 40.1003 68.6362 39.2895C68.6362 38.4786 67.9789 37.8213 67.168 37.8213H61.526C60.7151 37.8213 60.0578 38.4786 60.0578 39.2895C60.0578 40.1003 60.7151 40.7577 61.526 40.7577H67.168Z" fill="#194DC2"/>
</svg>
