<svg width="89" height="88" viewBox="0 0 89 88" fill="none" xmlns="http://www.w3.org/2000/svg">
<path d="M0.5 20C0.5 8.95431 9.45431 0 20.5 0H68.5C79.5457 0 88.5 8.95431 88.5 20V68C88.5 79.0457 79.5457 88 68.5 88H20.5C9.45431 88 0.5 79.0457 0.5 68V20Z" fill="white"/>
<path d="M36.9974 43.5968L32.1007 39.4762C31.9523 39.3507 31.861 39.168 31.861 38.9626C31.861 38.7571 31.9523 38.5745 32.1007 38.4489L36.9859 34.3969C37.0773 34.3284 37.1229 34.2257 37.1343 34.1115C37.1343 33.9974 37.1115 33.8833 37.043 33.8034C36.9631 33.7006 36.8376 33.6436 36.712 33.6436C36.6207 33.6436 36.518 33.6778 36.4381 33.7463L31.1076 38.1636C30.8679 38.3576 30.731 38.6544 30.731 38.9626C30.731 39.2708 30.8679 39.5561 31.0962 39.7616L36.4381 44.2474C36.6207 44.3957 36.8946 44.3729 37.043 44.1903C37.1914 44.0077 37.1686 43.7337 36.9859 43.5853L36.9974 43.5968Z" fill="#194DC2"/>
<path d="M32.8311 38.9742L37.5338 35.0706C37.7963 34.8537 37.9561 34.5455 37.9903 34.2031C38.0246 33.8607 37.9218 33.5297 37.705 33.2671C37.2484 32.7192 36.438 32.6508 35.9015 33.0959L30.5711 37.5132C30.1373 37.8671 29.8862 38.4035 29.8862 38.9628C29.8862 39.5221 30.1259 40.0586 30.5597 40.4238L35.9015 44.9096C36.1412 45.1151 36.438 45.2064 36.7233 45.2064C37.0886 45.2064 37.4539 45.0466 37.705 44.7498C37.9218 44.4873 38.036 44.1563 38.0017 43.8139C37.9675 43.4714 37.8077 43.1632 37.5452 42.9464L32.8311 38.9742ZM36.4494 44.2476L31.1076 39.7618C30.8679 39.5678 30.7423 39.271 30.7423 38.9628C30.7423 38.6546 30.8793 38.3693 31.119 38.1638L36.4494 33.7465C36.5293 33.678 36.6206 33.6438 36.7233 33.6438C36.8489 33.6438 36.963 33.7009 37.0544 33.8036C37.1228 33.8949 37.1571 33.9976 37.1457 34.1118C37.1457 34.2259 37.0772 34.3286 36.9973 34.3971L32.112 38.4492C31.9636 38.5747 31.8723 38.7574 31.8723 38.9628C31.8723 39.1683 31.9636 39.3509 32.112 39.4765L37.0087 43.597C37.1913 43.7454 37.2142 44.0193 37.0658 44.2019C36.9174 44.3846 36.6434 44.4074 36.4608 44.259L36.4494 44.2476Z" fill="#194DC2"/>
<path d="M58.262 38.974C58.262 38.6658 58.125 38.3805 57.8853 38.175L52.5549 33.7463C52.475 33.6778 52.3836 33.6436 52.2809 33.6436C52.1554 33.6436 52.0412 33.7006 51.9499 33.8034C51.8814 33.8947 51.8472 33.9974 51.8586 34.1115C51.8586 34.2257 51.9271 34.3284 52.007 34.3969L56.8923 38.4489C57.0406 38.5745 57.1319 38.7571 57.1319 38.9512C57.1319 39.1452 57.0521 39.3278 56.8923 39.4648L51.9956 43.5853C51.9042 43.6538 51.8586 43.7565 51.8472 43.8707C51.8472 43.9848 51.87 44.099 51.9499 44.1789C52.0983 44.3615 52.3722 44.3843 52.5549 44.2359L57.8967 39.7502C58.1364 39.5561 58.262 39.2593 58.262 38.9512V38.974Z" fill="#194DC2"/>
<path d="M53.1031 33.0948C52.5552 32.6382 51.7448 32.7181 51.2997 33.266C51.0828 33.5285 50.9801 33.8595 51.0143 34.202C51.0486 34.5444 51.2084 34.8526 51.4709 35.0694L56.1735 38.9731L51.4595 42.9452C50.9116 43.4018 50.8431 44.2122 51.2997 44.7601C51.5508 45.0569 51.916 45.2167 52.2813 45.2167C52.5781 45.2167 52.8634 45.114 53.1031 44.9199L58.445 40.4341C58.8787 40.0689 59.1184 39.5438 59.1184 38.9731C59.1184 38.4024 58.8673 37.8773 58.4336 37.5235L53.1031 33.0948ZM51.9503 44.2008C51.8818 44.1095 51.8361 44.0068 51.8476 43.8926C51.8476 43.7785 51.916 43.6758 51.9959 43.6073L56.8926 39.4867C57.041 39.3612 57.1323 39.1786 57.1323 38.9731C57.1323 38.7791 57.041 38.5964 56.8926 38.4709L52.0074 34.4188C51.916 34.3503 51.8704 34.2476 51.859 34.1335C51.859 34.0193 51.8818 33.9052 51.9503 33.8253C52.0302 33.7226 52.1557 33.6655 52.2813 33.6655C52.3726 33.6655 52.4753 33.6997 52.5552 33.7682L57.8857 38.1969C58.1254 38.391 58.2623 38.6877 58.2623 38.9959C58.2623 39.3041 58.1254 39.5895 57.8971 39.7949L52.5552 44.2807C52.3726 44.4291 52.0987 44.4063 51.9503 44.2236V44.2008Z" fill="#194DC2"/>
<path d="M48.4457 31.2805C48.4114 31.1777 48.3315 31.0864 48.2288 31.0408C48.1717 31.0179 48.1032 30.9951 48.0462 30.9951C48.0005 30.9951 47.9548 30.9951 47.8978 31.0179C47.795 31.0522 47.7037 31.1321 47.6581 31.2348L40.353 46.6554C40.3073 46.7581 40.2959 46.8723 40.3416 46.9864C40.3872 47.1006 40.4557 47.1805 40.5584 47.2261C40.6612 47.2718 40.7753 47.2832 40.8894 47.2375C40.9922 47.2033 41.0835 47.1234 41.1291 47.0207L48.4342 31.6001C48.4799 31.4973 48.4913 31.3832 48.4457 31.2691V31.2805Z" fill="#194DC2"/>
<path d="M48.5938 30.2649C48.2856 30.1165 47.9317 30.0936 47.6122 30.2192C47.2926 30.3333 47.03 30.573 46.8816 30.8812L39.5765 46.3018C39.4282 46.61 39.4167 46.9639 39.5309 47.2834C39.645 47.603 39.8847 47.8656 40.1929 48.014C40.3641 48.0939 40.5582 48.1395 40.7408 48.1395C40.8892 48.1395 41.0261 48.1167 41.1745 48.0596C41.4941 47.9455 41.7567 47.7058 41.905 47.3976L49.2101 31.977C49.3585 31.6688 49.3699 31.315 49.2558 30.9954C49.1417 30.6758 48.902 30.4132 48.5938 30.2649ZM40.8778 47.2492C40.775 47.2834 40.6495 47.2834 40.5467 47.2378C40.444 47.1921 40.3641 47.1008 40.3299 46.9981C40.2956 46.8954 40.2956 46.7698 40.3413 46.6671L47.6464 31.2465C47.692 31.1437 47.7834 31.0638 47.8861 31.0296C47.9318 31.0182 47.9774 31.0068 48.0345 31.0068C48.0915 31.0068 48.16 31.0182 48.2171 31.0524C48.3198 31.0981 48.3997 31.1894 48.434 31.2921C48.4682 31.3949 48.4682 31.5204 48.4226 31.6231L41.1175 47.0437C41.0718 47.1465 40.9805 47.2264 40.8778 47.2606V47.2492Z" fill="#194DC2"/>
<path d="M21.2571 52.1803H67.7358C68.0097 52.1803 68.238 52.4086 68.238 52.6825V27.9821C68.238 26.601 67.108 25.4824 65.7269 25.4824H23.2546C21.8735 25.4824 20.7549 26.601 20.7549 27.9821V52.6825C20.7549 52.4086 20.9832 52.1803 21.2571 52.1803ZM22.6496 27.9821C22.6496 27.6511 22.9236 27.3772 23.2546 27.3772H65.7383C66.0807 27.3772 66.3547 27.6511 66.3547 27.9821V50.7877H22.6496V27.9821Z" fill="#194DC2"/>
<path d="M68.238 52.6819C68.238 52.408 68.0097 52.1797 67.7358 52.1797H21.2571C20.9832 52.1797 20.7549 52.408 20.7549 52.6819C20.7549 52.9559 20.9832 53.1841 21.2571 53.1841H67.7358C68.0097 53.1841 68.238 52.9559 68.238 52.6819Z" fill="#194DC2"/>
<path d="M68.2037 53.5156C68.1352 53.3215 67.9526 53.1846 67.7357 53.1846H21.257C21.0402 53.1846 20.8575 53.3215 20.7891 53.5156H68.2037Z" fill="#194DC2"/>
<path d="M71.3537 59.782L68.2034 53.5156H20.7887L17.6384 59.7934C17.0106 61.0376 17.9123 62.51 19.3049 62.51H69.6644C71.0683 62.51 71.9815 61.0376 71.3537 59.782ZM52.3718 58.0128V59.5994H36.6202V58.0128H22.0899L23.0601 55.6044H65.8977L66.9021 58.0128H52.3718Z" fill="#194DC2"/>
</svg>
