<svg width="89" height="88" viewBox="0 0 89 88" fill="none" xmlns="http://www.w3.org/2000/svg">
<path d="M0.5 20C0.5 8.95431 9.45431 0 20.5 0H68.5C79.5457 0 88.5 8.95431 88.5 20V68C88.5 79.0457 79.5457 88 68.5 88H20.5C9.45431 88 0.5 79.0457 0.5 68V20Z" fill="white"/>
<path d="M58.1509 38.8148C58.1509 37.2919 56.9195 36.0498 55.3858 36.0498C53.8521 36.0498 52.6208 37.2919 52.6208 38.8148C52.6208 40.0569 53.4525 41.0938 54.5758 41.4503V47.65C54.5758 47.7904 54.4029 47.866 54.3057 47.7688L50.0718 43.74C50.0178 43.686 49.9854 43.6104 49.9854 43.5348V37.5511C49.9854 37.1083 49.6181 36.7411 49.1753 36.7411C48.7325 36.7411 48.3652 37.1083 48.3652 37.5511V44.0857C48.3652 44.2477 48.43 44.4097 48.5597 44.5285L54.4677 50.1558C54.6622 50.3394 54.9106 50.4366 55.1698 50.4366C55.3102 50.4366 55.4398 50.4042 55.5802 50.3502C55.9583 50.1882 56.1959 49.821 56.1959 49.4105V41.4395C57.33 41.0938 58.1509 40.0461 58.1509 38.8148ZM54.2409 38.8148C54.2409 38.1884 54.7594 37.6699 55.3858 37.6699C56.0123 37.6699 56.5307 38.1884 56.5307 38.8148C56.5307 39.4413 56.0231 39.9597 55.3858 39.9597C54.7486 39.9597 54.2409 39.4521 54.2409 38.8148Z" fill="#0047FF"/>
<path d="M65.7329 34.267C65.7329 32.7441 64.4908 31.502 62.9679 31.502C61.4449 31.502 60.2028 32.7441 60.2028 34.267C60.2028 35.5091 61.0345 36.546 62.1578 36.9024V45.0463L60.1164 51.8941C60.0408 51.8941 59.9652 51.8724 59.8788 51.8724C58.3559 51.8724 57.1138 53.1146 57.1138 54.6375C57.1138 56.1604 58.3559 57.4025 59.8788 57.4025C61.4017 57.4025 62.6438 56.1604 62.6438 54.6375C62.6438 53.7734 62.2442 53.0173 61.6177 52.5097L63.7347 45.3919L63.7671 36.8916C64.8904 36.546 65.7221 35.4983 65.7221 34.267H65.7329ZM59.8896 55.7824C59.2631 55.7824 58.7447 55.2639 58.7447 54.6375C58.7447 54.011 59.2631 53.4926 59.8896 53.4926C60.5161 53.4926 61.0345 54.0002 61.0345 54.6375C61.0345 55.2747 60.5269 55.7824 59.8896 55.7824Z" fill="#0047FF"/>
<path d="M52.0594 55.9229V52.0238L45.1144 45.176H42.0794V43.4262L45.6761 41.6981C46.0541 41.5145 46.2917 41.1257 46.2917 40.7044V35.1096C46.2917 34.4831 45.7841 33.9647 45.1468 33.9647H41.6149C41.3989 33.9647 41.1937 34.0187 41.0101 34.1267L40.2864 34.5479C39.822 34.1915 39.2387 33.9647 38.6015 33.9647C37.0786 33.9647 35.8365 35.196 35.8365 36.7297C35.8365 38.2634 37.0786 39.4947 38.6015 39.4947C40.1244 39.4947 41.3665 38.2526 41.3665 36.7297C41.3665 36.4273 41.3017 36.1464 41.2153 35.8764L41.7229 35.574H44.6608V40.3588L41.1073 42.0653C40.7077 42.2597 40.4484 42.6702 40.4484 43.113V45.1544H39.4115V43.1454C39.4115 42.681 39.1631 42.2598 38.7527 42.0329L33.7735 39.3003V35.4336C34.9076 35.088 35.7284 34.0403 35.7284 32.7982C35.7284 31.2752 34.4971 30.0331 32.9634 30.0331C31.4297 30.0331 30.1984 31.2752 30.1984 32.7982C30.1984 34.0511 31.0301 35.088 32.1533 35.4444V39.5487C32.1533 39.9916 32.391 40.402 32.7798 40.618L37.7806 43.3614V45.1652H32.8446L31.0949 41.6657V37.9934H26.8393C27.1093 35.7468 27.779 33.0034 29.3991 30.584C29.5503 30.314 33.2658 23.9414 43.3107 23.9414H44.7796C45.2656 23.9414 45.6545 24.3303 45.6545 24.8163V27.8513L43.2243 30.26H39.93L39.8544 30.1843C40.092 29.7739 40.2432 29.2987 40.2432 28.791C40.2432 27.2681 39.0011 26.026 37.4782 26.026C35.9553 26.026 34.7132 27.2681 34.7132 28.791C34.7132 30.314 35.9553 31.5561 37.4782 31.5561C37.8994 31.5561 38.2991 31.448 38.6555 31.2752L38.9255 31.5561C39.1307 31.7613 39.4115 31.8801 39.7032 31.8801H43.4079C43.7103 31.8801 44.0019 31.7613 44.2179 31.5453L46.9182 28.8666C47.1342 28.6506 47.2638 28.3482 47.2638 28.0458V24.8163C47.2638 23.4446 46.1405 22.3213 44.7688 22.3213H43.2999C32.2722 22.3213 28.1462 29.4931 28.0058 29.7415C24.8303 34.4831 24.9923 40.4128 25.122 42.1193C25.1436 42.465 25.23 42.8106 25.3704 43.1346L25.8456 44.1931C25.9644 44.4631 25.9752 44.7656 25.8672 45.0464L23.3722 51.7321C23.1454 52.337 23.221 53.0282 23.599 53.5683C23.9771 54.1083 24.5819 54.4216 25.2408 54.4216H26.2345L25.77 55.9013C25.5864 56.4521 25.878 57.057 26.4181 57.273L27.3253 57.6294L26.7961 58.4827C26.5261 58.9147 26.5909 59.498 26.9689 59.8544L27.8438 60.6861L27.8762 61.8094C27.887 63.1271 28.2866 64.1316 29.0751 64.812C29.9176 65.5465 30.976 65.6545 31.5485 65.6545C31.7861 65.6545 31.9481 65.6329 31.9589 65.6329C37.7698 64.9632 41.5285 62.371 43.4727 60.5889C47.631 56.7654 49.6616 53.9787 50.4069 52.8446V55.9121C49.2836 56.2577 48.4519 57.3054 48.4519 58.5367C48.4519 60.0596 49.694 61.3017 51.2169 61.3017C52.7399 61.3017 53.982 60.0596 53.982 58.5367C53.982 57.2946 53.1503 56.2577 52.027 55.9121L52.0594 55.9229ZM38.6123 37.8854C37.9858 37.8854 37.4674 37.3669 37.4674 36.7405C37.4674 36.114 37.9858 35.5956 38.6123 35.5956C39.2387 35.5956 39.7572 36.1032 39.7572 36.7405C39.7572 37.3777 39.2495 37.8854 38.6123 37.8854ZM51.2493 59.6924C50.6229 59.6924 50.1044 59.174 50.1044 58.5475C50.1044 57.9211 50.6229 57.4026 51.2493 57.4026C51.8758 57.4026 52.3942 57.9103 52.3942 58.5475C52.3942 59.1848 51.8866 59.6924 51.2493 59.6924Z" fill="#194DC2"/>
<path d="M55.9478 31.5021H51.8003C51.4547 30.3788 50.407 29.5472 49.1757 29.5472C47.6527 29.5472 46.4106 30.7893 46.4106 32.3122C46.4106 33.8351 47.6527 35.0772 49.1757 35.0772C50.4178 35.0772 51.4547 34.2455 51.8003 33.1223H57.0711C57.4816 33.1223 57.8164 32.7874 57.8164 32.377V27.0305C57.8164 26.5553 57.5356 26.1341 57.1035 25.9397L50.353 22.9802C49.9425 22.7966 49.4673 22.9802 49.2837 23.4014C49.1001 23.8119 49.2837 24.2871 49.7049 24.4707L55.9694 27.2142C56.1099 27.2682 56.1963 27.4086 56.1963 27.5598V31.2429C56.1963 31.3833 56.0882 31.4913 55.9478 31.4913V31.5021Z" fill="#194DC2"/>
</svg>
