<svg width="36" height="36" viewBox="0 0 36 36" fill="none" xmlns="http://www.w3.org/2000/svg">
<g clip-path="url(#clip0_4012_370)">
<path d="M14.5258 35.7925C11.377 35.1414 8.43879 33.6891 6.13216 31.6436C0.210475 26.3922 -1.61965 18.1427 1.50865 10.8025C2.27688 8.99988 3.52581 7.17053 5.07327 5.58125L6.43754 4.18011L6.53376 12.3809C6.62586 20.2306 6.64662 20.626 7.0185 21.6152C7.76247 23.5941 8.56005 24.8541 9.9331 26.2194C13.4799 29.7463 18.6824 30.6265 23.1049 28.4479C27.2618 26.4002 29.8825 21.9478 29.5779 17.4503C29.3734 14.4294 28.3559 12.2141 26.1591 10.007C24.498 8.33801 22.5437 7.24785 20.416 6.80334C18.2512 6.35108 18.355 6.28499 18.355 8.11457V9.69409L19.5418 9.91243C24.138 10.758 27.1778 15.2645 26.2198 19.8125C25.9138 21.265 25.2313 22.5477 24.1357 23.7292C22.4708 25.5249 20.1284 26.3831 18.0831 26.3792C14.7011 26.3727 11.8771 24.4538 10.5083 21.6161C10.5083 21.6161 10.1498 20.805 10.0346 20.3038C9.35694 17.3562 9.79006 11.1513 9.79006 11.1513L9.73759 2.07868L10.274 1.80171C10.569 1.64938 10.852 1.52475 10.9028 1.52475C10.9536 1.52475 11.0181 5.69179 11.0461 10.7848C11.0461 10.7848 10.3947 17.4612 11.1996 20.0196C11.3158 20.3888 11.5363 21.0201 11.5363 21.0201C12.2419 22.4555 13.3729 23.7182 14.8423 24.4132C15.9578 24.9408 16.5194 25.1795 18.1697 25.1795C19.2479 25.1795 20.2031 24.8397 21.3022 24.335C22.5978 23.74 24.0841 22.1625 24.6333 20.7222C26.1465 16.7539 24.0395 12.4845 19.9802 11.294C18.3212 10.8074 18.355 10.7807 18.355 12.5819V14.1552L19.1514 14.3679C22.0219 15.1344 22.8977 18.9761 20.6443 20.95C19.8482 21.6474 19.1308 21.9557 17.8758 21.9557C16.5349 21.9557 15.2477 21.1453 14.586 19.9023C14.1885 19.1556 14.1549 18.4474 14.1549 18.123C14.1549 15.1267 14.0899 9.73799 14.0899 9.73799L14.0362 0.494363L14.4483 0.392162C14.675 0.33595 15.5911 0.19686 16.4841 0.0830728C19.5127 -0.302829 23.9934 0.686816 27.0036 2.4065C31.1075 4.75104 34.2128 8.7786 35.5057 13.4338C35.9504 15.0351 36 15.5007 36 18.0766C36 20.641 35.9493 21.122 35.514 22.6883C33.7555 29.0153 29.2823 33.5383 22.8862 35.4565C21.5401 35.8602 20.9095 35.9372 18.5342 35.9878C16.6174 36.0286 15.3751 35.9681 14.5258 35.7925Z" fill="#C60C30"/>
</g>
<defs>
<clipPath id="clip0_4012_370">
<rect width="36" height="36" fill="white"/>
</clipPath>
</defs>
</svg>
