<svg width="36" height="36" viewBox="0 0 36 36" fill="none" xmlns="http://www.w3.org/2000/svg">
<g clip-path="url(#clip0_4012_390)">
<path d="M33.4194 14.7343C34.2361 12.2829 33.9549 9.59754 32.6488 7.36779C30.6845 3.94779 26.7358 2.18829 22.8793 3.01629C21.1636 1.08354 18.6988 -0.015583 16.1146 0.000166976C12.1726 -0.00883302 8.67502 2.52917 7.46227 6.27992C4.92989 6.79854 2.74402 8.38367 1.46489 10.6303C-0.513981 14.0413 -0.0628563 18.341 2.58089 21.266C1.76414 23.7174 2.04539 26.4028 3.35152 28.6325C5.31577 32.0525 9.26452 33.812 13.121 32.984C14.8355 34.9168 17.3015 36.0159 19.8856 35.999C23.8299 36.0092 27.3286 33.4689 28.5414 29.7148C31.0738 29.1962 33.2596 27.611 34.5388 25.3644C36.5154 21.9534 36.0631 17.657 33.4205 14.732L33.4194 14.7343ZM19.8879 33.6467C18.3095 33.6489 16.7806 33.0965 15.569 32.0852C15.6241 32.0559 15.7198 32.003 15.7816 31.9648L22.9501 27.8248C23.3169 27.6167 23.5419 27.2263 23.5396 26.8044V16.6985L26.5693 18.4479C26.6019 18.4637 26.6233 18.4952 26.6278 18.5312V26.9C26.6233 30.6215 23.6094 33.6388 19.8879 33.6467ZM5.39339 27.4558C4.60252 26.09 4.31789 24.4892 4.58902 22.9355C4.64189 22.967 4.73527 23.0244 4.80164 23.0627L11.9701 27.2027C12.3335 27.4153 12.7835 27.4153 13.148 27.2027L21.8994 22.1492V25.6479C21.9016 25.6839 21.8848 25.7188 21.8566 25.7413L14.6105 29.9252C11.3829 31.7837 7.26089 30.6789 5.39452 27.4558H5.39339ZM3.50677 11.8082C4.29427 10.4402 5.53739 9.39392 7.01789 8.85054C7.01789 8.91242 7.01452 9.02154 7.01452 9.09804V17.3792C7.01227 17.7999 7.23727 18.1903 7.60289 18.3984L16.3543 23.4508L13.3246 25.2002C13.2943 25.2204 13.256 25.2238 13.2223 25.2092L5.97502 21.0219C2.75414 19.1567 1.64939 15.0358 3.50564 11.8093L3.50677 11.8082ZM28.3985 17.6008L19.6471 12.5473L22.6768 10.799C22.7071 10.7788 22.7454 10.7754 22.7791 10.79L30.0264 14.9739C33.2529 16.838 34.3588 20.9657 32.4946 24.1922C31.706 25.5579 30.464 26.6042 28.9846 27.1487V18.62C28.988 18.1993 28.7641 17.81 28.3996 17.6008H28.3985ZM31.4135 13.0625C31.3606 13.0299 31.2673 12.9737 31.2009 12.9354L24.0324 8.79542C23.669 8.58279 23.219 8.58279 22.8545 8.79542L14.1031 13.8489V10.3502C14.1009 10.3142 14.1178 10.2793 14.1459 10.2568L21.392 6.07629C24.6196 4.21442 28.7461 5.32254 30.6069 8.55129C31.3933 9.91479 31.6779 11.5112 31.4113 13.0625H31.4135ZM12.4561 19.2984L9.4254 17.549C9.39277 17.5333 9.3714 17.5018 9.36689 17.4658V9.09692C9.36915 5.37092 12.392 2.35142 16.118 2.35367C17.6941 2.35367 19.2196 2.90717 20.4313 3.91517C20.3761 3.94442 20.2816 3.99729 20.2186 4.03554L13.0501 8.17554C12.6834 8.38367 12.4584 8.77292 12.4606 9.19479L12.4561 19.2962V19.2984ZM14.102 15.7502L18.0001 13.499L21.8983 15.749V20.2502L18.0001 22.5002L14.102 20.2502V15.7502Z" fill="black"/>
</g>
<defs>
<clipPath id="clip0_4012_390">
<rect width="36" height="36" fill="white"/>
</clipPath>
</defs>
</svg>
