<svg width="36" height="36" viewBox="0 0 36 36" fill="none" xmlns="http://www.w3.org/2000/svg">
<g clip-path="url(#clip0_4058_262)">
<path d="M2.55859 17.9996C2.55859 24.1117 6.1107 29.3937 11.2615 31.8968L3.89552 11.7153C3.03871 13.6358 2.55859 15.761 2.55859 17.9996Z" fill="black"/>
<path d="M28.4252 17.2203C28.4252 15.312 27.7397 13.9903 27.1517 12.9617C26.369 11.6897 25.6353 10.6126 25.6353 9.3406C25.6353 7.92115 26.7119 6.59983 28.2283 6.59983C28.2968 6.59983 28.3617 6.60835 28.4284 6.61217C25.6811 4.09528 22.0209 2.55859 18.0007 2.55859C12.606 2.55859 7.85975 5.3264 5.09863 9.51866C5.46092 9.52953 5.80235 9.53717 6.09236 9.53717C7.70755 9.53717 10.2077 9.34119 10.2077 9.34119C11.0402 9.29212 11.1383 10.5147 10.3068 10.6131C10.3068 10.6131 9.47023 10.7116 8.53938 10.7604L14.1627 27.4862L17.542 17.3514L15.1361 10.7598C14.3046 10.711 13.5169 10.6126 13.5169 10.6126C12.6847 10.5638 12.7823 9.29153 13.6144 9.3406C13.6144 9.3406 16.1645 9.53658 17.6819 9.53658C19.2968 9.53658 21.7973 9.3406 21.7973 9.3406C22.6303 9.29153 22.7281 10.5141 21.8963 10.6126C21.8963 10.6126 21.058 10.711 20.1289 10.7598L25.7093 27.359L27.2496 22.2121C27.9171 20.0763 28.4252 18.5422 28.4252 17.2203Z" fill="black"/>
<path d="M18.2713 19.3501L13.6382 32.8127C15.0215 33.2194 16.4845 33.4418 18.0004 33.4418C19.7986 33.4418 21.5231 33.131 23.1283 32.5665C23.0869 32.5004 23.0492 32.4302 23.0184 32.3538L18.2713 19.3501Z" fill="black"/>
<path d="M31.5502 10.5913C31.6166 11.0832 31.6542 11.6112 31.6542 12.1791C31.6542 13.7461 31.3615 15.5075 30.48 17.71L25.7632 31.3472C30.354 28.6702 33.4418 23.6967 33.4418 18C33.4421 15.3154 32.7563 12.7909 31.5502 10.5913Z" fill="black"/>
<path d="M18.0006 0C8.07532 0 0 8.07453 0 17.9996C0 27.9258 8.07532 36 18.0006 36C27.9256 36 36.0021 27.9258 36.0021 17.9996C36.0018 8.07453 27.9256 0 18.0006 0ZM18.0006 35.1749C8.53046 35.1749 0.825367 27.47 0.825367 17.9996C0.825367 8.52966 8.53017 0.825347 18.0006 0.825347C27.4704 0.825347 35.1749 8.52966 35.1749 17.9996C35.1749 27.47 27.4704 35.1749 18.0006 35.1749Z" fill="black"/>
</g>
<defs>
<clipPath id="clip0_4058_262">
<rect width="36" height="36" fill="white"/>
</clipPath>
</defs>
</svg>
