<svg width="36" height="36" viewBox="0 0 36 36" fill="none" xmlns="http://www.w3.org/2000/svg">
<path d="M34.4999 18.3677C34.4999 17.0102 34.3874 16.0202 34.1459 14.9927H18.3359V21.1172H27.6149C27.4289 22.6382 26.4194 24.9302 24.1739 26.4707L24.1424 26.6747L29.1404 30.4697L29.4854 30.5027C32.6684 27.6257 34.4999 23.3897 34.4999 18.3677Z" fill="#4285F4"/>
<path d="M18.3374 34.5002C22.8824 34.5002 26.6984 33.0332 29.4869 30.5027L24.1739 26.4707C22.7519 27.4427 20.8439 28.1207 18.3374 28.1207C16.2246 28.1209 14.1647 27.4596 12.4468 26.2297C10.7289 24.9998 9.43909 23.2629 8.75841 21.2627L8.56041 21.2792L3.36291 25.2212L3.29541 25.4072C6.06441 30.7967 11.7524 34.5002 18.3374 34.5002Z" fill="#34A853"/>
<path d="M8.76 21.2627C8.39106 20.2143 8.19993 19.1116 8.1945 18.0002C8.1945 16.8632 8.4015 15.7637 8.736 14.7377L8.727 14.5172L3.465 10.5122L3.2925 10.5932C2.11619 12.8852 1.50179 15.424 1.5 18.0002C1.5 20.6582 2.154 23.1707 3.2955 25.4072L8.76 21.2627Z" fill="#FBBC05"/>
<path d="M18.3374 7.8795C21.4994 7.8795 23.6309 9.2175 24.8474 10.3365L29.5979 5.79C26.6804 3.132 22.8824 1.5 18.3374 1.5C11.7509 1.5 6.06441 5.2035 3.29541 10.593L8.74041 14.7375C9.42694 12.7375 10.7207 11.0017 12.4411 9.77225C14.1615 8.54284 16.2229 7.88114 18.3374 7.8795Z" fill="#EB4335"/>
</svg>
