<svg width="103" height="100" viewBox="0 0 103 100" fill="none" xmlns="http://www.w3.org/2000/svg">
<path d="M78.4109 22.6187H24.5456C22.7944 22.6187 21.3906 23.9874 21.3906 25.6947V56.2295H58.8445L57.8894 55.0442C57.5999 54.7056 57.4118 54.3105 57.3105 53.8872H23.7785V25.6947C23.7785 25.2855 24.1259 24.9469 24.5456 24.9469H78.4109C78.845 24.9469 79.1924 25.2855 79.1924 25.6947V53.8872H68.4396L70.3354 56.2295H81.5948V25.6947C81.5948 23.9874 80.162 22.6187 78.4109 22.6187Z" fill="#1A4DC2"/>
<path d="M51.4923 60.6465C51.0148 60.6465 50.624 61.0275 50.624 61.479C50.624 61.9305 51.0148 62.3256 51.4923 62.3256C51.9699 62.3256 52.3462 61.9446 52.3462 61.479C52.3462 61.0134 51.9555 60.6465 51.4923 60.6465Z" fill="#1A4DC2"/>
<path d="M76.7753 64.188C76.92 64.3715 77.0358 64.5549 77.1371 64.7666H78.4106C80.1617 64.7666 81.5945 63.3838 81.5945 61.6764V57.9795H71.7534L76.7753 64.188Z" fill="#1A4DC2"/>
<path d="M21.3906 57.9795V61.6764C21.3906 63.3838 22.7944 64.7666 24.5456 64.7666H65.7477L60.2628 57.9795H21.3906ZM51.4927 63.2003C50.5231 63.2003 49.7271 62.4242 49.7271 61.4789C49.7271 60.5335 50.5231 59.7715 51.4927 59.7715C52.4623 59.7715 53.2438 60.5335 53.2438 61.4789C53.2438 62.4242 52.4623 63.2003 51.4927 63.2003Z" fill="#1A4DC2"/>
<path d="M64.0977 75.9276L57.209 73.6841C57.0498 73.6276 56.934 73.4865 56.9051 73.3313L55.8341 65.9375H46.5719L45.3563 73.4019C45.3273 73.5712 45.1971 73.7123 45.0234 73.7687L37.8163 75.8571C36.9335 76.1111 37.1216 77.3669 38.0479 77.3669H63.8662C64.7345 77.3669 64.9226 76.1816 64.1122 75.9135L64.0977 75.9276Z" fill="#1A4DC2"/>
<path d="M74.4742 64.7664L68.9893 57.9793L67.571 56.2296L65.6751 53.8873L63.2728 50.91C63.0846 50.6984 62.8241 50.5855 62.5636 50.5855C62.39 50.5855 62.2163 50.6419 62.0571 50.7407L59.8718 48.0456C62.0426 45.9432 63.3885 43.0224 63.3885 39.8052C63.3885 33.3991 58.0483 28.1924 51.478 28.1924C44.9076 28.1924 39.5674 33.3991 39.5674 39.8052C39.5674 46.2113 44.9076 51.418 51.478 51.418C53.6633 51.418 55.7183 50.8254 57.4839 49.8235L59.6981 52.5609C59.3508 52.8714 59.3074 53.3793 59.5968 53.7462L59.7271 53.9014L61.6229 56.2437L63.0267 57.9934L68.5117 64.7805L71.3916 68.3363C71.5653 68.548 71.8403 68.6608 72.1008 68.6608C72.2889 68.6608 72.4915 68.6044 72.6507 68.4774L74.9228 66.7418C75.2991 66.4455 75.3715 65.8952 75.0676 65.5142L74.4742 64.7805V64.7664ZM41.7382 39.8052C41.7382 34.5703 46.1088 30.3089 51.478 30.3089C56.8471 30.3089 61.2177 34.5703 61.2177 39.8052C61.2177 45.0401 56.8471 49.3015 51.478 49.3015C46.1088 49.3015 41.7382 45.0401 41.7382 39.8052Z" fill="#1A4DC2"/>
<path d="M58.4102 34.627H44.7485V36.2779H58.4102V34.627Z" fill="#1A4DC2"/>
<path d="M58.4102 37.4346H44.7485V39.0855H58.4102V37.4346Z" fill="#1A4DC2"/>
<path d="M58.4102 40.2427H44.7485V41.8936H58.4102V40.2427Z" fill="#1A4DC2"/>
<path d="M58.4102 43.0508H44.7485V44.7017H58.4102V43.0508Z" fill="#194DC2"/>
</svg>
