<svg width="104" height="100" viewBox="0 0 104 100" fill="none" xmlns="http://www.w3.org/2000/svg">
<path d="M45.6103 22.8306C45.6103 22.8306 38.8663 23.9453 39.6622 31.5508H39.6478C40.1543 34.7538 42.7159 36.0096 44.1052 36.4471C44.5972 36.6164 44.9156 37.1102 44.8288 37.6182C44.713 38.2814 44.0473 38.6765 43.3961 38.4648C41.1095 37.717 38.0124 35.7133 37.477 31.6636C36.0587 31.8894 34.2352 32.4679 32.8459 33.9213C32.8459 33.9213 28.5911 37.9992 31.3552 43.1777C31.3552 43.1777 26.8255 44.3488 26.3334 49.4568C26.3334 49.4568 25.6966 54.4236 29.7054 57.161C29.7054 57.161 27.6793 59.5034 28.2003 62.7346C28.2003 62.7346 29.2423 67.4334 33.83 69.183C33.83 67.1088 34.322 61.9868 39.3439 59.2494C39.9083 58.9389 40.6319 59.1647 40.8779 59.7432C41.095 60.2512 40.9069 60.8297 40.4293 61.0837C35.3206 63.8352 35.9718 69.5781 36.0153 69.8321H36.0008C36.2034 70.6787 37.694 76.1112 42.0357 77.0566C42.0357 77.0566 55.5961 79.5683 55.5961 67.6027V30.1538C55.5961 30.1538 55.0317 21.5889 45.5958 22.8306H45.6103ZM40.1398 43.6292C40.1398 43.8409 40.0675 44.0384 39.9517 44.1936C39.7925 44.3912 39.5609 44.5464 39.286 44.6028C38.244 44.8145 36.6231 45.4918 36.4784 47.6366C36.4494 47.8059 36.1745 49.8519 37.7809 51.658C37.8532 51.7427 37.9111 51.8273 37.9401 51.9261C38.0703 52.2506 38.0124 52.6457 37.7519 52.9279L37.6651 53.0408H37.6506C37.2454 53.4923 36.5218 53.4923 36.1166 53.0408C33.8589 50.4727 34.2931 47.5378 34.322 47.3967C34.5391 44.2077 36.9704 42.8955 38.8952 42.5145C39.5175 42.3875 40.1109 42.8249 40.1398 43.4458V43.6292Z" fill="#1A4DC2"/>
<path d="M62.2532 28.3052C60.2126 28.3052 58.5483 29.9279 58.5483 31.9174C58.5483 33.5542 59.6482 34.937 61.1678 35.3745C61.5007 35.4873 61.8769 35.5438 62.2532 35.5438C62.6295 35.5438 63.0058 35.4873 63.3386 35.3745C64.8582 34.937 65.9581 33.5542 65.9581 31.9174C65.9581 29.9279 64.2938 28.3052 62.2532 28.3052ZM63.3386 32.9898C63.0636 33.2579 62.6729 33.4272 62.2532 33.4272C61.8335 33.4272 61.4572 33.2579 61.1678 32.9898C60.8928 32.7076 60.7192 32.3407 60.7192 31.9174C60.7192 31.099 61.4138 30.4217 62.2532 30.4217C63.0926 30.4217 63.7873 31.099 63.7873 31.9174C63.7873 32.3407 63.6136 32.7076 63.3386 32.9898Z" fill="#1A4DC2"/>
<path d="M70.0393 33.8931C67.9988 33.8931 66.3345 35.5158 66.3345 37.5053C66.3345 38.747 66.9712 39.8335 67.9409 40.4826C68.5198 40.8918 69.2289 41.1176 69.9959 41.1317H70.0393C72.0799 41.1317 73.7442 39.509 73.7442 37.5053C73.7442 35.5016 72.0799 33.8931 70.0393 33.8931ZM71.5155 37.9145C71.4866 38.0133 71.4576 38.0979 71.4142 38.1826C71.3997 38.1967 71.3853 38.2249 71.3708 38.2391C71.3274 38.3378 71.255 38.4225 71.1826 38.493C71.1103 38.5918 71.0234 38.6624 70.9221 38.7329C70.8643 38.7611 70.8064 38.8035 70.7485 38.8317C70.7051 38.8599 70.6616 38.8881 70.6038 38.9022C70.4301 38.9728 70.242 39.0151 70.0393 39.0151C69.4605 39.0151 68.9395 38.6906 68.679 38.2108C68.679 38.1967 68.6645 38.1685 68.65 38.1544C68.6211 38.0838 68.5921 38.0133 68.5777 37.9286C68.5198 37.7875 68.5053 37.6464 68.5053 37.5053C68.5053 36.6869 69.2 36.0096 70.0393 36.0096C70.8787 36.0096 71.5734 36.6869 71.5734 37.5053C71.5734 37.6464 71.5589 37.7875 71.5155 37.9145Z" fill="#1A4DC2"/>
<path d="M71.5735 37.5196C71.5735 38.3521 70.8933 39.0294 70.0394 39.0294C69.1856 39.0294 68.5054 38.3521 68.5054 37.5196C68.5054 36.6871 69.2 36.0239 70.0394 36.0239C70.8788 36.0239 71.5735 36.7012 71.5735 37.5196Z" fill="#194DC2"/>
<path d="M74.0047 46.5078C72.3404 46.5078 70.9221 47.5802 70.4735 49.0618C70.3577 49.4004 70.2998 49.7532 70.2998 50.1201C70.2998 50.4869 70.3577 50.8538 70.4735 51.1783C70.9221 52.674 72.3404 53.7464 74.0047 53.7464C76.0452 53.7464 77.7095 52.1237 77.7095 50.1201C77.7095 48.1164 76.0452 46.5078 74.0047 46.5078ZM74.0047 51.6299C73.1653 51.6299 72.4706 50.9526 72.4706 50.1201C72.4706 49.2876 73.1653 48.6244 74.0047 48.6244C74.8441 48.6244 75.5387 49.3017 75.5387 50.1201C75.5387 50.9385 74.8585 51.6299 74.0047 51.6299Z" fill="#194DC2"/>
<path d="M71.009 49.0615H55.3936V51.1781H71.009V49.0615Z" fill="#194DC2"/>
<path d="M67.2173 47.566H55.3936V45.4494H65.7267C66.074 45.4494 66.3779 45.2378 66.4792 44.9132L68.9974 37.209L71.0669 37.8581L68.1001 46.9592C67.9843 47.3261 67.6225 47.5801 67.2173 47.5801V47.566Z" fill="#194DC2"/>
<path d="M63.3389 32.9897V42.8952C63.3389 43.3608 62.9482 43.7418 62.4706 43.7418H55.4082V41.6253H60.5748C60.9076 41.6253 61.1681 41.3713 61.1681 41.0609V32.9897C61.4576 33.2578 61.8338 33.4272 62.2535 33.4272C62.6732 33.4272 63.064 33.2578 63.3389 32.9897Z" fill="#194DC2"/>
<path d="M63.3386 64.8651C63.0058 64.7522 62.6295 64.6958 62.2532 64.6958C61.8769 64.6958 61.5007 64.7522 61.1678 64.8651C59.6482 65.3025 58.5483 66.6854 58.5483 68.3222C58.5483 70.3117 60.2126 71.9344 62.2532 71.9344C64.2938 71.9344 65.9581 70.3117 65.9581 68.3222C65.9581 66.6854 64.8582 65.3025 63.3386 64.8651ZM62.2532 69.8179C61.4138 69.8179 60.7192 69.1406 60.7192 68.3222C60.7192 67.8988 60.8928 67.532 61.1678 67.2498C61.4572 66.9817 61.8335 66.8124 62.2532 66.8124C62.6729 66.8124 63.0636 66.9817 63.3386 67.2498C63.6136 67.532 63.7873 67.8988 63.7873 68.3222C63.7873 69.1406 63.1071 69.8179 62.2532 69.8179Z" fill="#194DC2"/>
<path d="M63.7873 68.3365C63.7873 67.504 63.1071 66.8267 62.2533 66.8267C61.3994 66.8267 60.7192 67.504 60.7192 68.3365C60.7192 69.169 61.4139 69.8322 62.2533 69.8322C63.0927 69.8322 63.7873 69.1549 63.7873 68.3365Z" fill="#194DC2"/>
<path d="M70.0393 59.1084H69.9959C69.2289 59.1225 68.5198 59.3483 67.9409 59.7575C66.9712 60.4065 66.3345 61.493 66.3345 62.7348C66.3345 64.7243 67.9988 66.347 70.0393 66.347C72.0799 66.347 73.7442 64.7243 73.7442 62.7348C73.7442 60.7452 72.0799 59.1084 70.0393 59.1084ZM70.0393 64.2305C69.2 64.2305 68.5053 63.5532 68.5053 62.7348C68.5053 62.5937 68.5198 62.4526 68.5777 62.3114C68.5921 62.2268 68.6211 62.1562 68.65 62.0857C68.65 62.0716 68.679 62.0434 68.679 62.0292C68.7513 61.9164 68.8237 61.8035 68.925 61.7047C68.9539 61.6624 68.9829 61.6342 69.0263 61.6059C69.0987 61.5495 69.171 61.493 69.2434 61.4507C69.4749 61.3096 69.7499 61.225 70.0393 61.225C70.242 61.225 70.4301 61.2673 70.6038 61.3378C70.6616 61.3378 70.7051 61.3802 70.7485 61.4084C70.8064 61.4366 70.8643 61.4789 70.9221 61.5072C70.98 61.5354 71.0379 61.5777 71.0813 61.6342C71.1248 61.6624 71.1537 61.7047 71.1826 61.7329C71.2405 61.8035 71.2984 61.874 71.3418 61.9446C71.3997 62.0292 71.4431 62.1139 71.4721 62.1986C71.5444 62.3679 71.5734 62.5513 71.5734 62.7348C71.5734 63.5532 70.8932 64.2305 70.0393 64.2305Z" fill="#194DC2"/>
<path d="M70.7487 61.4082C70.7487 61.4082 70.6618 61.3517 70.604 61.3376C70.4303 61.2671 70.2422 61.2247 70.0395 61.2247C69.7501 61.2247 69.4751 61.3094 69.2436 61.4505C69.1712 61.4928 69.0988 61.5493 69.0265 61.6057C68.9831 61.6339 68.9541 61.6622 68.9252 61.7045C68.8239 61.8033 68.7515 61.9162 68.6792 62.029L67.9411 59.7573L66.4794 55.3125C66.3781 55.0021 66.0886 54.8045 65.7558 54.8045H55.4082V52.688H67.0872C67.5648 52.688 67.999 52.9843 68.1437 53.4358L69.9961 59.1082L70.7487 61.4082Z" fill="#194DC2"/>
<path d="M63.3389 68.3225H61.1681V59.2637C61.1681 58.9109 60.8642 58.6146 60.5024 58.6146H55.4082V56.498H62.4995C62.9627 56.498 63.3389 56.8649 63.3389 57.3164V68.3225Z" fill="#194DC2"/>
</svg>
