<svg width="104" height="100" viewBox="0 0 104 100" fill="none" xmlns="http://www.w3.org/2000/svg">
<path d="M56.8986 46.7194L56.8842 46.7053L56.421 46.2538V74.6156C56.421 74.926 56.175 75.1659 55.8566 75.1659H31.1237C30.8053 75.1659 30.5448 74.926 30.5448 74.6156V37.9569C30.5448 37.6465 30.8053 37.4066 31.1237 37.4066H47.622L45.5235 35.29H31.1237C29.6042 35.29 28.374 36.4894 28.374 37.9569V74.6156C28.374 76.0972 29.6042 77.2824 31.1237 77.2824H55.8566C57.3762 77.2824 58.5919 76.0972 58.5919 74.6156V48.4409L56.8986 46.7194Z" fill="#1A4DC2"/>
<path d="M58.5918 48.4409H48.2587C46.7391 48.4409 45.5234 47.2415 45.5234 45.774V35.29L47.6219 37.4066L47.6943 37.4771L50.4584 40.2569L52.6293 42.444L56.1315 45.9575L56.421 46.2538L56.8841 46.7053C56.8841 46.7053 56.8841 46.7194 56.8985 46.7194L58.5918 48.4409Z" fill="#1A4DC2"/>
<path d="M51.8915 51.7002H35.0893C34.4899 51.7002 34.0039 52.174 34.0039 52.7585C34.0039 53.3429 34.4899 53.8167 35.0893 53.8167H51.8915C52.4909 53.8167 52.9769 53.3429 52.9769 52.7585C52.9769 52.174 52.4909 51.7002 51.8915 51.7002Z" fill="#1A4DC2"/>
<path d="M51.8915 57.2173H35.0893C34.4899 57.2173 34.0039 57.6911 34.0039 58.2756C34.0039 58.86 34.4899 59.3338 35.0893 59.3338H51.8915C52.4909 59.3338 52.9769 58.86 52.9769 58.2756C52.9769 57.6911 52.4909 57.2173 51.8915 57.2173Z" fill="#1A4DC2"/>
<path d="M51.8915 62.7207H35.0893C34.4899 62.7207 34.0039 63.1945 34.0039 63.779C34.0039 64.3634 34.4899 64.8372 35.0893 64.8372H51.8915C52.4909 64.8372 52.9769 64.3634 52.9769 63.779C52.9769 63.1945 52.4909 62.7207 51.8915 62.7207Z" fill="#194DC2"/>
<path d="M51.8915 68.2378H35.0893C34.4899 68.2378 34.0039 68.7116 34.0039 69.2961C34.0039 69.8805 34.4899 70.3543 35.0893 70.3543H51.8915C52.4909 70.3543 52.9769 69.8805 52.9769 69.2961C52.9769 68.7116 52.4909 68.2378 51.8915 68.2378Z" fill="#194DC2"/>
<path d="M78.5055 35.8686V62.0433C78.5055 62.3537 78.2595 62.5936 77.9411 62.5936H56.421V64.7102H77.9411C79.4607 64.7102 80.6763 63.5249 80.6763 62.0433V35.8686H78.5055ZM53.2082 22.7178C51.6886 22.7178 50.4585 23.9172 50.4585 25.3846V48.4409H52.6293V25.3846C52.6293 25.0742 52.8898 24.8343 53.2082 24.8343H67.608V22.7178H53.2082Z" fill="#194DC2"/>
<path d="M56.8844 46.7054C56.6963 46.6771 56.5371 46.5784 56.4213 46.4655C56.2766 46.3244 56.1753 46.1551 56.1318 45.9575L56.4213 46.2538L56.8844 46.7054Z" fill="#194DC2"/>
<path d="M58.5917 50.1479V52.2645H57.1734C56.8695 52.2645 56.609 52.1516 56.4209 51.9682V50.4443C56.609 50.2608 56.8695 50.1479 57.1734 50.1479H58.5917Z" fill="#194DC2"/>
<path d="M70.3433 35.8683C68.8237 35.8683 67.6081 34.6689 67.6081 33.2014V24.834H53.2083C52.8899 24.834 52.6294 25.0739 52.6294 25.3843V42.4437L56.1317 45.9572C56.1027 45.8725 56.0882 45.7878 56.0882 45.7032C56.0882 45.1105 56.5658 44.6449 57.1736 44.6449H73.9613C74.5692 44.6449 75.0468 45.1105 75.0468 45.7032C75.0468 46.2958 74.5692 46.7615 73.9613 46.7615H57.1736C57.0723 46.7615 56.9855 46.7615 56.8987 46.7191L58.5919 48.4406V50.1479H73.9613C74.5692 50.1479 75.0468 50.6277 75.0468 51.2062C75.0468 51.7847 74.5692 52.2645 73.9613 52.2645H58.5919V55.6651H73.9613C74.5692 55.6651 75.0468 56.1307 75.0468 56.7234C75.0468 57.316 74.5692 57.7816 73.9613 57.7816H58.5919V62.5933H77.9412C78.2596 62.5933 78.5056 62.3534 78.5056 62.043V35.8683H70.3433ZM73.9613 41.2443H57.1736C56.5658 41.2443 56.0882 40.7787 56.0882 40.186C56.0882 39.5934 56.5658 39.1278 57.1736 39.1278H73.9613C74.5692 39.1278 75.0468 39.6075 75.0468 40.186C75.0468 40.7646 74.5692 41.2443 73.9613 41.2443Z" fill="#194DC2"/>
<path d="M58.5917 55.6655V57.7821H57.1734C56.8695 57.7821 56.609 57.6692 56.4209 57.4858V55.9618C56.609 55.7784 56.8695 55.6655 57.1734 55.6655H58.5917Z" fill="#194DC2"/>
<path d="M67.6079 22.7178L80.6763 35.8686H78.5054L67.6079 24.8343" fill="#194DC2"/>
</svg>
