<svg width="229" height="92" viewBox="0 0 229 92" fill="none" xmlns="http://www.w3.org/2000/svg">
<path fill-rule="evenodd" clip-rule="evenodd" d="M63.3132 27.7441L44.569 64.3872H26.9628L34.8073 49.2007H34.4553C27.9837 57.6017 18.3279 63.1322 4.56982 64.3872V49.411C4.56982 49.411 13.3712 48.8911 18.5453 43.4513H4.56982V27.7444H20.2767V40.6631L20.6292 40.6617L27.0477 27.7444H38.9264V40.5812L39.2788 40.5806L45.938 27.7441H63.3132Z" fill="#6C7A89"/>
<path d="M165.527 60.3426H170.586V31.3067H165.527V60.3426Z" fill="#6C7A89"/>
<path fill-rule="evenodd" clip-rule="evenodd" d="M137.64 60.0461C138.739 60.5032 139.857 60.7318 140.994 60.7318C142.871 60.7318 144.551 60.2748 146.034 59.3605C147.516 58.4465 148.665 57.1866 149.48 55.5806C150.296 53.9624 150.703 52.1278 150.703 50.0772C150.703 48.0266 150.283 46.1922 149.443 44.574C148.603 42.9557 147.436 41.7019 145.941 40.8125C144.446 39.9107 142.748 39.466 140.845 39.4783C139.635 39.4783 138.474 39.713 137.362 40.1825C136.25 40.6519 135.324 41.3189 134.582 42.1837C134.525 42.2495 134.47 42.316 134.416 42.3831V31.3253H129.339V60.3428H134.379L134.368 57.632C134.499 57.7918 134.638 57.9479 134.786 58.1006C135.589 58.9283 136.54 59.5767 137.64 60.0461ZM142.828 55.3583C142 55.8648 141.055 56.118 139.993 56.118C138.943 56.118 137.979 55.8585 137.102 55.3398C136.225 54.8084 135.527 54.0859 135.009 53.1717C134.502 52.2577 134.249 51.2198 134.249 50.0587C134.237 48.8975 134.484 47.8599 134.99 46.9458C135.509 46.0193 136.207 45.3028 137.084 44.7963C137.961 44.2775 138.931 44.0243 139.993 44.0366C141.055 44.0243 142 44.2713 142.828 44.7778C143.668 45.2719 144.31 45.9822 144.755 46.9087C145.212 47.8228 145.441 48.8729 145.441 50.0587C145.441 51.2447 145.212 52.2947 144.755 53.2088C144.31 54.123 143.668 54.8394 142.828 55.3583Z" fill="#6C7A89"/>
<path d="M70.6415 33.067H76.4228L81.5943 51.9537L87.0959 33.067H91.9136L97.8801 51.5746L102.846 33.067H108.145L100.326 60.3427H95.3416L89.2743 42.2622L83.7049 60.3427H78.6649L70.6415 33.067Z" fill="#6C7A89"/>
<path fill-rule="evenodd" clip-rule="evenodd" d="M116.683 60.8243C114.67 60.8367 112.854 60.3919 111.236 59.4903C109.63 58.5761 108.364 57.3098 107.437 55.6916C106.523 54.0734 106.066 52.2266 106.066 50.1512C106.066 48.1377 106.535 46.3157 107.474 44.6851C108.413 43.0545 109.685 41.7821 111.291 40.868C112.897 39.9538 114.688 39.4968 116.665 39.4968C118.888 39.4968 120.834 39.9909 122.502 40.9791C124.182 41.9674 125.435 43.3695 126.263 45.1854C127.103 46.9889 127.406 49.058 127.171 51.3928H111.299C111.344 52.3229 111.576 53.1692 111.995 53.9314C112.465 54.7713 113.12 55.426 113.959 55.8954C114.8 56.3649 115.738 56.5996 116.776 56.5996C117.567 56.5872 118.302 56.4514 118.981 56.192C119.661 55.9203 120.235 55.5559 120.704 55.0986C121.186 54.6416 121.526 54.1229 121.724 53.5423H127.023C126.702 54.9629 126.059 56.2291 125.096 57.3408C124.132 58.4403 122.922 59.2988 121.464 59.9164C120.006 60.534 118.413 60.8367 116.683 60.8243ZM112.014 46.2972C111.718 46.8134 111.513 47.3692 111.399 47.9648H121.92C121.843 47.2124 121.611 46.5268 121.223 45.908C120.778 45.1792 120.173 44.6171 119.407 44.2218C118.641 43.8142 117.777 43.6104 116.813 43.6104C115.788 43.6104 114.855 43.8451 114.015 44.3145C113.175 44.7839 112.508 45.4448 112.014 46.2972Z" fill="#6C7A89"/>
<path d="M154.428 39.923C154.428 38.2677 154.805 36.7977 155.558 35.513C156.312 34.2159 157.368 33.2091 158.727 32.4926C160.098 31.7638 161.698 31.387 163.526 31.3623V35.865C162.674 35.8774 161.945 36.0565 161.34 36.4024C160.747 36.7359 160.29 37.2239 159.968 37.8662C159.673 38.4576 159.513 39.1432 159.49 39.923H163.415V44.2033H159.487V60.3427H154.428V44.2033H151.167V39.923H154.428Z" fill="#6C7A89"/>
<path fill-rule="evenodd" clip-rule="evenodd" d="M183.445 60.7872C181.382 60.7872 179.535 60.3363 177.904 59.4346C176.286 58.5204 175.014 57.2605 174.087 55.6545C173.173 54.0363 172.716 52.2019 172.716 50.1511C172.716 48.0883 173.173 46.2477 174.087 44.6294C175.014 42.9988 176.286 41.7326 177.904 40.8308C179.535 39.929 181.382 39.4781 183.445 39.4781C185.52 39.4781 187.373 39.929 189.004 40.8308C190.647 41.7326 191.925 42.9926 192.839 44.6109C193.753 46.2291 194.217 48.0759 194.229 50.1511C194.217 52.2019 193.753 54.0363 192.839 55.6545C191.937 57.2605 190.665 58.5204 189.022 59.4346C187.379 60.3363 185.52 60.7872 183.445 60.7872ZM183.445 56.1364C184.532 56.1364 185.495 55.8892 186.335 55.3951C187.175 54.8887 187.824 54.1845 188.281 53.2827C188.738 52.3686 188.966 51.3247 188.966 50.1511C188.966 48.9653 188.738 47.9153 188.281 47.0012C187.824 46.0871 187.175 45.3829 186.335 44.8888C185.495 44.3823 184.532 44.1291 183.445 44.1291C182.37 44.1291 181.413 44.3823 180.573 44.8888C179.745 45.3829 179.103 46.0871 178.646 47.0012C178.189 47.9153 177.966 48.9653 177.978 50.1511C177.978 51.3247 178.207 52.3686 178.664 53.2827C179.134 54.1845 179.776 54.8887 180.591 55.3951C181.419 55.8892 182.37 56.1364 183.445 56.1364Z" fill="#6C7A89"/>
<path d="M199.695 39.923H194.062L200.159 60.3427H205.087L209.097 47.3006L213.425 60.3427H218.28L224.396 39.923H219.3L215.831 52.633L211.998 39.923H207.07L203.256 52.9129L199.695 39.923Z" fill="#6C7A89"/>
</svg>
