<svg width="111" height="20" viewBox="0 0 111 20" fill="none" xmlns="http://www.w3.org/2000/svg">
<path fill-rule="evenodd" clip-rule="evenodd" d="M10.7108 15.7912L17.0211 19.53L15.3517 12.4787L20.9217 7.73669L13.5791 7.11772L10.7108 0.469727L7.84264 7.11772L0.5 7.73669L6.07003 12.4787L4.40054 19.53L10.7108 15.7912Z" fill="#FF9800"/>
<path fill-rule="evenodd" clip-rule="evenodd" d="M33.1327 15.7912L39.443 19.53L37.7735 12.4787L43.3436 7.73669L36.001 7.11772L33.1327 0.469727L30.2645 7.11772L22.9219 7.73669L28.4919 12.4787L26.8224 19.53L33.1327 15.7912Z" fill="#FF9800"/>
<path fill-rule="evenodd" clip-rule="evenodd" d="M55.5541 15.7912L61.8644 19.53L60.1949 12.4787L65.7649 7.73669L58.4224 7.11772L55.5541 0.469727L52.6859 7.11772L45.3433 7.73669L50.9133 12.4787L49.2438 19.53L55.5541 15.7912Z" fill="#FF9800"/>
<path fill-rule="evenodd" clip-rule="evenodd" d="M77.976 15.7912L84.2863 19.53L82.6168 12.4787L88.1868 7.73669L80.8442 7.11772L77.976 0.469727L75.1078 7.11772L67.7651 7.73669L73.3352 12.4787L71.6657 19.53L77.976 15.7912Z" fill="#FF9800"/>
<path d="M102.641 7.3877L102.802 7.76172L103.208 7.7959L108.922 8.27734L104.597 11.96L104.28 12.2305L104.376 12.6357L105.676 18.127L100.744 15.2051L100.397 15L100.051 15.2051L95.1182 18.127L96.4189 12.6357L96.5146 12.2305L96.1982 11.96L91.8721 8.27734L97.5859 7.7959L97.9922 7.76172L98.1543 7.3877L100.397 2.1875L102.641 7.3877Z" fill="#FF9800" stroke="#FF9800" stroke-width="1.36145"/>
</svg>
