<svg width="115" height="75" viewBox="0 0 115 75" fill="none" xmlns="http://www.w3.org/2000/svg">
<path d="M2.89813 23.0264C4.00222 22.6955 5.22684 22.9386 6.08573 23.6936C6.50687 24.0637 6.83657 24.5256 7.02913 25.1347C7.31174 26.0314 7.25632 26.9309 6.80887 27.6832C6.457 28.2748 5.88209 27.5589 5.38892 27.5427C5.14095 27.5346 4.77107 27.486 4.947 27.039C5.06476 26.7392 5.16311 26.4393 5.14511 26.1003C5.10632 25.3386 4.64639 24.8092 3.90664 24.7389C3.26662 24.6782 2.52825 25.1563 2.35924 25.7411C2.17638 26.3758 2.55041 27.1416 3.23199 27.3793C4.2114 27.721 5.20606 28.0249 6.20487 28.3112C12.0218 29.9751 17.9038 31.3905 23.8579 32.5088C24.4093 32.6128 24.6281 32.7289 24.5021 33.3394C24.2583 34.5198 24.3026 34.509 23.1279 34.2875C18.3194 33.3826 13.5498 32.2914 8.83281 31.0097C6.81302 30.4613 4.79047 29.9198 2.80531 29.2485C1.62641 28.8501 0.76336 28.1964 0.455821 26.9687C0.444738 26.9242 0.0319155 23.8867 2.89813 23.0264Z" fill="#0B2545"/>
<path d="M113.688 28.3118C113.021 28.9384 112.199 29.2045 111.363 29.4611C104.71 31.5045 97.9451 33.1158 91.1016 34.4272C90.7373 34.4974 90.542 34.4839 90.4783 34.0585C90.2192 32.3324 89.9449 32.7187 91.5588 32.4054C97.8412 31.1831 104.054 29.6988 110.173 27.8431C110.603 27.7121 111.036 27.5892 111.459 27.4379C112.305 27.1368 112.703 26.4426 112.465 25.7133C112.242 25.0339 111.478 24.6044 110.773 24.7611C109.983 24.9367 109.533 25.6836 109.711 26.5371C109.738 26.6722 109.795 26.8018 109.842 26.9328C109.873 27.0206 109.96 27.1327 109.931 27.1894C109.616 27.8026 108.903 27.5865 108.419 27.8593C108.056 28.0633 108.033 27.7337 107.961 27.5433C107.454 26.1927 107.634 24.9691 108.422 24.0534C109.147 23.2106 110.274 22.823 111.399 22.9041C115.454 23.1971 114.537 28.1348 113.688 28.3118Z" fill="#0B2545"/>
<path d="M57.0493 44.7739C53.3284 44.8725 49.2403 44.7199 45.1606 44.4552C41.423 44.2134 37.6868 43.9122 33.9742 43.399C31.8616 43.1073 29.7503 42.8088 27.635 42.5441C27.0781 42.4739 26.8675 42.328 26.9977 41.723C27.2318 40.6357 27.1931 40.5979 28.3082 40.764C31.6635 41.2638 35.0256 41.704 38.4044 42.0322C41.5255 42.3348 44.6508 42.5482 47.783 42.7197C52.2714 42.9668 56.7626 43.0249 61.2537 42.9331C65.8377 42.8399 70.4148 42.5981 74.9822 42.1619C79.0716 41.7716 83.1458 41.2894 87.2007 40.6398C87.5331 40.5871 87.6343 40.6682 87.716 40.995C88.0679 42.4104 88.0886 42.4307 86.6548 42.6359C83.5351 43.0843 80.4085 43.4855 77.2707 43.8042C70.6697 44.4768 64.0562 44.8441 57.0493 44.7739Z" fill="#0B2545"/>
<path d="M55.3914 42.3761C50.9016 42.3072 46.4215 42.0965 41.9442 41.74C38.3271 41.4523 34.7295 41.012 31.1304 40.5785C30.0028 40.4434 28.8862 40.226 27.7614 40.0626C27.4026 40.0099 27.2945 39.8857 27.3624 39.5115C27.5993 38.1866 27.584 38.1731 28.9527 38.3757C33.7875 39.0902 38.6402 39.6682 43.5165 40.0234C50.5401 40.5353 57.5733 40.6069 64.6121 40.3786C68.8414 40.2409 73.0569 39.9127 77.2627 39.4764C80.3049 39.1604 83.3415 38.7876 86.3559 38.2636C86.8976 38.1691 87.3686 38.1326 87.3381 38.8862C87.3326 39.0213 87.3631 39.1685 87.4171 39.2941C87.6706 39.8843 87.3644 40.0612 86.8228 40.1328C84.7324 40.4097 82.6488 40.7446 80.5529 40.981C77.4179 41.3335 74.2788 41.6455 71.13 41.8724C65.8893 42.2478 60.6459 42.4315 55.3914 42.3761Z" fill="#0B2545"/>
<path d="M56.9278 39.8993C52.9118 39.9965 48.4483 39.7561 43.9917 39.4522C40.1627 39.1916 36.3393 38.8107 32.5394 38.2516C31.1347 38.0449 29.7272 37.8451 28.3183 37.6681C27.8487 37.6101 27.6603 37.5047 27.803 36.9739C28.1452 35.699 28.1077 35.7206 29.4681 35.934C32.6308 36.431 35.8087 36.8146 38.9949 37.1441C43.9128 37.6533 48.8459 37.9085 53.7859 38.0449C57.7327 38.1543 61.6794 38.0706 65.6234 37.8896C68.7085 37.7478 71.7908 37.5614 74.8634 37.2522C78.6412 36.8726 82.4148 36.4432 86.1551 35.7949C86.7189 35.6977 86.8686 35.88 86.9434 36.3432C87.1442 37.5817 87.1539 37.5979 85.7617 37.787C83.1074 38.1476 80.4532 38.5001 77.7906 38.8013C72.2895 39.4252 66.7677 39.7278 61.2361 39.8912C59.9547 39.9317 58.6691 39.8993 56.9278 39.8993Z" fill="#0B2545"/>
<path d="M56.8766 37.4925C53.3469 37.46 49.3322 37.3763 45.3273 37.0994C40.4524 36.7631 35.5955 36.2486 30.7566 35.5773C30.0542 35.4801 29.3574 35.3369 28.6551 35.2356C28.2893 35.183 28.13 35.0722 28.1979 34.6562C28.4195 33.2895 28.3974 33.3124 29.7993 33.5191C33.6727 34.0904 37.5557 34.5739 41.4595 34.921C48.2863 35.5274 55.1256 35.7327 61.9732 35.5719C65.7011 35.4841 69.4262 35.2816 73.143 34.9439C77.4014 34.5576 81.6405 34.0566 85.8588 33.3786C86.2439 33.3165 86.4184 33.4407 86.5057 33.7986C86.8243 35.1019 86.8313 35.1033 85.4473 35.3329C82.1725 35.8758 78.8754 36.2432 75.5714 36.5795C69.5176 37.1967 63.4472 37.4587 56.8766 37.4925Z" fill="#0B2545"/>
<path d="M56.9448 47.2748C54.4872 47.3626 51.5393 47.2397 48.5969 47.0992C42.2161 46.794 35.8547 46.2511 29.5322 45.3286C29.1595 45.2746 28.7813 45.2179 28.7038 44.8113C28.6165 44.3508 28.7883 43.8984 28.9434 43.4675C28.9919 43.3352 29.1997 43.4095 29.3382 43.4297C33.6618 44.0537 38.002 44.5304 42.3588 44.86C45.7473 45.1166 49.1413 45.2854 52.5408 45.3664C57.7732 45.492 63.0013 45.4286 68.2253 45.1382C73.9661 44.8195 79.6847 44.2603 85.3727 43.4311C85.7842 43.3716 85.9629 43.4203 86.0543 43.8484C86.3161 45.0801 86.2635 45.2071 84.9946 45.3813C81.3498 45.8837 77.6926 46.2767 74.0243 46.582C68.5038 47.0385 62.9764 47.3018 56.9448 47.2748Z" fill="#0B2545"/>
<path d="M58.7984 49.7469C52.5451 49.7726 46.3029 49.5106 40.0704 49.0325C39.4082 48.9811 38.7474 48.9082 38.0866 48.8312C37.3745 48.7488 37.3995 48.2505 37.4632 47.7413C37.5228 47.2605 37.5851 46.9134 38.3055 46.9823C44.9799 47.6225 51.671 47.9034 58.3787 47.8764C63.4919 47.8561 68.594 47.6198 73.6919 47.2538C74.663 47.1835 75.6383 47.1268 76.5969 46.9715C77.2272 46.8702 77.3408 47.1781 77.3782 47.6333C77.4198 48.1316 77.5763 48.711 76.8006 48.8204C76.1439 48.9123 75.4817 48.9784 74.8196 49.0311C69.4861 49.4538 64.1457 49.6753 58.7984 49.7469Z" fill="#0B2545"/>
<path d="M62.309 52.1045C58.5312 52.3489 54.5858 52.1531 50.6405 52.1058C49.5239 52.0923 48.4073 52.0221 47.2908 51.9789C46.9431 51.9654 46.5801 51.9154 46.4873 51.5386C46.3779 51.0902 46.4014 50.6175 46.5676 50.1799C46.6355 50.0016 46.8613 50.0827 47.0206 50.0908C53.7477 50.4365 60.4748 50.3947 67.2033 50.1462C67.2268 50.1448 67.2504 50.1462 67.2739 50.1435C68.2894 50.0719 68.6204 50.4365 68.4071 51.4265C68.3018 51.9168 67.8904 51.9829 67.4665 51.9856C65.8041 51.9938 64.1445 52.1923 62.309 52.1045Z" fill="#0B2545"/>
<path d="M23.5004 36.8468C21.9931 36.5537 20.4818 36.2782 18.9787 35.9635C14.3462 34.9938 9.75806 33.8566 5.21562 32.5425C4.22789 32.2575 3.93143 31.277 4.62686 30.5477C4.77093 30.3964 4.92609 30.4694 5.0854 30.518C10.0213 31.9901 15.0222 33.2164 20.0717 34.2577C21.2077 34.4914 22.345 34.7196 23.4879 34.9114C24.0448 35.0046 24.29 35.2112 24.0808 35.7785C23.9935 36.0162 23.9534 36.2728 23.9229 36.5253C23.8924 36.79 23.7705 36.8954 23.5004 36.8468Z" fill="#0B2545"/>
<path d="M91.2923 36.8489C91.0873 36.9043 90.9349 36.8044 90.892 36.5491C90.8255 36.1628 90.7479 35.7766 90.7022 35.3876C90.6454 34.9041 91.0942 34.9824 91.3408 34.9298C92.7524 34.6272 94.1738 34.3733 95.5882 34.0816C100.315 33.1065 104.988 31.9193 109.616 30.5715C110.081 30.4364 110.221 30.5188 110.36 30.9375C110.768 32.1651 110.742 32.2273 109.433 32.5987C104.087 34.1154 98.6913 35.4295 93.2304 36.487C92.6028 36.6099 91.9739 36.722 91.2923 36.8489Z" fill="#0B2545"/>
<path d="M23.5684 42.1811C23.9909 39.7122 24.3996 37.3258 24.8096 34.9407C24.9385 34.1911 25.077 33.4429 25.1961 32.6919C25.2446 32.384 25.3471 32.2584 25.7059 32.3395C26.2587 32.4637 26.8253 32.5488 27.3905 32.6001C27.8753 32.6447 27.946 32.8527 27.8684 33.2835C27.3572 36.1427 26.8793 39.0072 26.3723 41.8664C26.1783 42.9604 26.1534 42.959 24.9897 42.8037C24.6614 42.7605 24.3373 42.6943 24.0089 42.6484C23.6723 42.6011 23.4631 42.4742 23.5684 42.1811Z" fill="#0B2545"/>
<path d="M91.2635 42.1854C91.3424 42.4475 91.2081 42.5704 90.9587 42.619C90.8894 42.6325 90.8202 42.6568 90.7495 42.6635C90.0693 42.7243 89.2672 43.1903 88.7602 42.8607C88.2449 42.5258 88.4208 41.6263 88.2989 40.9807C87.8154 38.4173 87.4165 35.8391 86.969 33.2689C86.8942 32.8435 86.9662 32.6166 87.4594 32.6058C87.742 32.6004 88.0232 32.5329 88.3045 32.4843C89.5734 32.2641 89.5776 32.2614 89.784 33.4486C90.2688 36.2213 90.7509 38.9954 91.2302 41.7681C91.2552 41.9032 91.2524 42.0436 91.2635 42.1854Z" fill="#0B2545"/>
<path d="M23.7254 37.8523C23.7143 37.9266 23.7115 37.9496 23.7088 37.9725C23.5467 39.3326 23.5467 39.3366 22.1184 39.0814C18.9946 38.5222 15.8956 37.8469 12.8077 37.1217C12.4586 37.0393 12.1248 36.934 12.1012 36.5531C12.0708 36.0669 12.2121 35.5901 12.5016 35.1917C12.5584 35.1134 12.8632 35.1687 13.0405 35.2133C16.4137 36.0696 19.8257 36.757 23.2502 37.3877C23.5786 37.4499 23.8044 37.5215 23.7254 37.8523Z" fill="#0B2545"/>
<path d="M102.764 36.4041C102.762 36.9065 102.412 37.0349 101.987 37.1334C99.4529 37.7182 96.9164 38.2936 94.3605 38.7825C93.5265 38.9419 92.6926 39.1053 91.8614 39.2836C91.5455 39.3511 91.4014 39.2863 91.3142 38.9567C90.9346 37.5359 90.9235 37.5413 92.4086 37.2469C95.4022 36.6553 98.3959 36.0638 101.359 35.3331C102.387 35.0806 102.747 35.3682 102.764 36.4041Z" fill="#0B2545"/>
<path d="M57.4133 35.0575C57.3177 35.0575 57.2235 35.0575 57.1279 35.0575C55.7814 35.0588 55.7994 35.0588 55.8257 33.746C55.834 33.3328 55.9241 33.1734 56.3812 33.1977C57.0905 33.2369 57.8053 33.2153 58.5174 33.1977C58.8817 33.1883 59.0022 33.3166 59.0175 33.6812C59.0743 35.0588 59.0881 35.0588 57.4133 35.0575Z" fill="#0B2545"/>
<path d="M57.4566 52.8151C57.5273 52.8151 57.5979 52.8124 57.67 52.8151C59.2354 52.8692 58.9805 52.4897 59.0068 54.1873C59.0123 54.5547 58.8793 54.6668 58.515 54.6573C57.7822 54.6371 57.0493 54.6371 56.3165 54.6614C55.9411 54.6735 55.84 54.5371 55.8233 54.1833C55.7651 52.8097 55.7513 52.8111 57.4566 52.8151Z" fill="#0B2545"/>
<path d="M20.8753 39.4746C21.5915 39.6164 22.2828 39.7623 22.9796 39.8865C23.2539 39.9352 23.3314 40.081 23.294 40.3214C23.2386 40.6847 23.1777 41.048 23.1223 41.4113C23.0779 41.7098 22.9075 41.7719 22.6208 41.7125C22.0431 41.5937 21.4585 41.5113 20.8822 41.3938C20.3558 41.2857 20.069 40.9927 20.2976 40.4511C20.4417 40.1067 20.2034 39.5178 20.8753 39.4746Z" fill="#0B2545"/>
<path d="M94.6346 40.7185C94.6263 41.0589 94.4767 41.2912 94.1137 41.3587C93.7411 41.4276 93.3684 41.5032 92.9958 41.5667C91.8376 41.7639 91.8709 41.7544 91.6021 40.6618C91.4608 40.0865 91.6451 39.8596 92.2061 39.7975C92.558 39.7583 92.9043 39.6732 93.2548 39.6124C94.3215 39.4301 94.6041 39.6583 94.6346 40.7185Z" fill="#0B2545"/>
<path d="M35.374 3.01992L66.272 30.2394L70.367 25.2801L37.8565 0.479492L35.374 3.01992Z" fill="#0B2545"/>
<path d="M60.563 16.4492L67.4508 8.52539L75.9497 15.3607L69.3736 22.7402L60.563 16.4492Z" fill="#0B2545"/>
<path d="M55.5788 22.7402L48.8379 30.4817L57.2135 36.7727L63.8519 30.24L55.5788 22.7402Z" fill="#0B2545"/>
<path d="M38.5382 28.1228L14.575 16.6456L12.1092 17.7801L12.3613 15.3612L11.1782 13.5163H13.4584L14.9006 12.3359L15.5517 14.7413L38.5382 28.1228Z" fill="#FFB000"/>
<path d="M40.2655 26.5352L27.2367 15.6928C26.3861 15.2255 25.4829 15.2728 24.5381 15.6928C25.0036 14.6339 25.0174 13.6629 24.5381 12.7891C25.3817 13.3279 26.2877 13.4819 27.3295 12.7891C26.8142 13.6048 27.1771 14.3773 28.0388 15.1256L40.2655 26.5352Z" fill="#FFB000"/>
<path d="M44.8957 23.9041L36.7335 14.681C36.1738 14.2529 35.5158 14.1881 34.7871 14.3893C35.2429 13.6762 35.3634 12.9779 35.1168 12.2959C35.664 12.7754 36.2999 12.9847 37.1297 12.5971C36.6656 13.1292 36.8388 13.7262 37.3763 14.3582L44.8957 23.9041Z" fill="#FFB000"/>
<path d="M34.9402 29.3325L19.7794 26.183C19.0202 25.8535 18.2999 26.0344 17.6003 26.4882C17.9258 25.8305 17.6294 25.1404 16.855 24.4246C17.7042 24.5231 18.304 24.2409 18.6988 23.6426C18.7473 24.3759 19.4566 24.7595 20.3612 25.0377L34.9402 29.3325Z" fill="#FFB000"/>
<path d="M82.5923 28.1228L106.557 16.6456L109.023 17.7801L108.771 15.3612L109.954 13.5163H107.673L106.231 12.3359L105.58 14.7413L82.5923 28.1228Z" fill="#FFB000"/>
<path d="M80.8667 26.5352L93.8956 15.6928C94.7461 15.2255 95.6494 15.2728 96.5941 15.6928C96.1287 14.6339 96.1148 13.6629 96.5941 12.7891C95.7505 13.3279 94.8445 13.4819 93.8027 12.7891C94.3181 13.6048 93.9551 14.3773 93.0935 15.1256L80.8667 26.5352Z" fill="#FFB000"/>
<path d="M76.2368 23.9041L84.3991 14.681C84.9587 14.2529 85.6168 14.1881 86.3454 14.3893C85.8897 13.6762 85.7692 12.9779 86.0157 12.2959C85.4685 12.7754 84.8327 12.9847 84.0029 12.5971C84.467 13.1292 84.2938 13.7262 83.7563 14.3582L76.2368 23.9041Z" fill="#FFB000"/>
<path d="M86.1914 29.3319L101.352 26.1811C102.111 25.8515 102.832 26.0325 103.531 26.4863C103.206 25.8286 103.502 25.1384 104.277 24.4226C103.427 24.5212 102.828 24.2389 102.433 23.6406C102.384 24.374 101.675 24.7575 100.77 25.0358L86.1914 29.3319Z" fill="#FFB000"/>
<path d="M7.29802 66.0019C8.40766 66.6056 8.95624 67.4861 8.94516 68.6422C8.94516 69.3634 8.72766 69.9915 8.29268 70.5263C7.85769 71.0611 7.30772 71.4541 6.64554 71.7026C5.98197 71.9511 5.2533 72.0767 4.45952 72.0767C3.65465 72.0767 2.92043 71.9336 2.25687 71.6473C1.5933 71.3609 1.05857 70.9234 0.649906 70.3359C0.242624 69.747 0.0375977 69.0609 0.0375977 68.2762H3.16979C3.16979 68.6476 3.29447 68.9421 3.54521 69.1595C3.79456 69.377 4.09379 69.485 4.44289 69.485C4.81277 69.485 5.12308 69.381 5.37244 69.1744C5.62179 68.9677 5.74786 68.7003 5.74786 68.3708C5.74786 68.0534 5.62595 67.7954 5.38075 67.5996C5.13555 67.4038 4.80169 67.3052 4.37778 67.3052H3.44824V64.8566H4.34592C4.72688 64.8566 5.02888 64.7634 5.25191 64.5784C5.47495 64.3933 5.58577 64.157 5.58577 63.8707C5.58577 63.5519 5.47633 63.3007 5.26023 63.1157C5.04273 62.9307 4.77121 62.8375 4.44428 62.8375C4.11734 62.8375 3.83751 62.9388 3.60478 63.14C3.37066 63.3412 3.24875 63.6073 3.23767 63.9355H0.187212C0.187212 63.1832 0.396394 62.5309 0.814758 61.9799C1.23312 61.4288 1.76647 61.0237 2.41341 60.763C3.06035 60.5037 3.76409 60.374 4.52601 60.374C5.25468 60.374 5.92656 60.4929 6.54025 60.7319C7.15395 60.971 7.66236 61.3464 8.06548 61.861C8.46722 62.3756 8.66948 62.9766 8.66948 63.6654C8.6681 64.6499 8.21233 65.4292 7.29802 66.0019Z" fill="#0B2545"/>
<path d="M17.5423 63.1869H19.7934V71.7738H17.4605L17.2001 71.1701C16.4382 71.7739 15.5529 72.0764 14.5417 72.0764C13.6495 72.0764 12.853 71.8805 12.152 71.4875C11.451 71.0945 10.9011 70.5489 10.5049 69.8493C10.1073 69.1497 9.90918 68.3596 9.90918 67.4804C9.90918 66.1555 10.3442 65.0655 11.2141 64.212C12.0841 63.3584 13.1938 62.9316 14.5417 62.9316C15.564 62.9316 16.4603 63.2396 17.2333 63.8541L17.5423 63.1869ZM13.529 68.8958C13.8989 69.2672 14.3685 69.4522 14.9406 69.4522C15.5114 69.4522 15.9824 69.2672 16.3523 68.8958C16.7221 68.5244 16.9064 68.0584 16.9064 67.4966C16.9064 66.9347 16.7208 66.4688 16.3523 66.0974C15.9824 65.726 15.5142 65.541 14.9489 65.541C14.3727 65.541 13.8989 65.7273 13.5304 66.0974C13.1605 66.4688 12.9763 66.9347 12.9763 67.4966C12.9749 68.0584 13.1591 68.5244 13.529 68.8958Z" fill="#0B2545"/>
<path d="M28.2759 67.2413C28.7331 67.4115 29.0891 67.6762 29.344 68.0368C29.5989 68.3974 29.7277 68.8215 29.7277 69.3091C29.7277 70.0303 29.4618 70.6245 28.9284 71.0905C28.3951 71.5578 27.7052 71.7901 26.8574 71.7901H21.7192V63.2031H26.7923C27.575 63.2031 28.2136 63.4044 28.7095 63.8068C29.2041 64.2093 29.4521 64.7293 29.4521 65.3654C29.4521 65.7787 29.3482 66.1474 29.1417 66.4702C28.9326 66.7943 28.6444 67.0509 28.2759 67.2413ZM26.6773 65.7949C26.6773 65.5828 26.6066 65.4113 26.4653 65.2776C26.324 65.1452 26.1287 65.0791 25.8779 65.0791H24.5397V66.5255H25.8779C26.1273 66.5255 26.324 66.4567 26.4653 66.3189C26.6052 66.1825 26.6773 66.0069 26.6773 65.7949ZM25.9749 69.802C26.2354 69.802 26.4418 69.7358 26.5942 69.6035C26.7465 69.4711 26.8227 69.2834 26.8227 69.039C26.8227 68.8053 26.7493 68.6203 26.6025 68.4825C26.4556 68.3448 26.2464 68.2759 25.9749 68.2759H24.5397V69.802H25.9749Z" fill="#0B2545"/>
<path d="M35.5834 72.075C34.1482 72.075 32.9652 71.6428 32.0356 70.7785C31.1061 69.9141 30.6406 68.8201 30.6406 67.4939C30.6406 66.1581 31.1061 65.0601 32.0356 64.2025C32.9652 63.3435 34.1482 62.9141 35.5834 62.9141C37.0186 62.9141 38.2017 63.3462 39.1312 64.2106C40.0608 65.075 40.5262 66.1689 40.5262 67.4952C40.5262 68.8201 40.058 69.9154 39.1229 70.7798C38.1878 71.6428 37.0075 72.075 35.5834 72.075ZM34.2133 68.8782C34.5721 69.2388 35.0293 69.4184 35.5834 69.4184C36.1375 69.4184 36.5919 69.2388 36.9452 68.8782C37.2984 68.5176 37.4758 68.057 37.4758 67.4952C37.4758 66.9334 37.2984 66.4728 36.9452 66.1122C36.5919 65.7516 36.1375 65.572 35.5834 65.572C35.2135 65.572 34.8852 65.6544 34.5971 65.8192C34.3089 65.9839 34.0831 66.2122 33.9197 66.5025C33.7562 66.7943 33.6745 67.1252 33.6745 67.4966C33.6745 68.0571 33.8532 68.5176 34.2133 68.8782Z" fill="#0B2545"/>
<path d="M50.3121 69.1821H51.4217V73.7943H48.8118V71.7901H43.7554V73.7943H41.1621V69.1821H42.1401C42.4227 68.8958 42.6347 68.3637 42.776 67.5844C42.9173 66.8051 43.0918 65.3451 43.2983 63.2031H50.3121V69.1821ZM45.8597 65.6828C45.7184 67.4223 45.4621 68.5879 45.0936 69.1821H47.4916V65.6828H45.8597Z" fill="#0B2545"/>
<path d="M57.7825 60.6582C59.0001 60.6582 60.0086 61.0377 60.808 61.7954C61.6073 62.5531 62.0063 63.516 62.0063 64.6816C62.0063 65.8485 61.6031 66.8128 60.7997 67.5759C59.9948 68.3389 58.9891 68.7211 57.7825 68.7211H56.0702V71.791H52.9214V60.6596H57.7825V60.6582ZM57.407 66.0335C57.8088 66.0335 58.1385 65.9092 58.3934 65.6594C58.6483 65.4109 58.7771 65.084 58.7771 64.6816C58.7771 64.4277 58.7203 64.1967 58.6053 63.9901C58.4917 63.7834 58.331 63.6214 58.1246 63.5052C57.9182 63.3891 57.6786 63.3296 57.407 63.3296H56.0688V66.0335H57.407Z" fill="#FFB000"/>
<path d="M72.3161 67.4155C72.3161 67.66 72.2939 67.9193 72.251 68.1948H65.7095C65.8079 68.6824 66.0115 69.0538 66.3219 69.3077C66.6322 69.5616 67.0256 69.6899 67.5049 69.6899C67.7446 69.6899 67.9676 69.6575 68.174 69.594C68.3804 69.5305 68.5633 69.4373 68.7198 69.3158C68.8778 69.1942 69.0052 69.0484 69.1036 68.8782H72.1208C71.816 69.8641 71.248 70.6434 70.4168 71.216C69.5843 71.7887 68.6145 72.075 67.5049 72.075C66.1348 72.075 64.9947 71.6374 64.0874 70.7636C63.1786 69.8884 62.7256 68.7999 62.7256 67.4952C62.7256 66.6254 62.932 65.8408 63.3448 65.1412C63.7576 64.4416 64.3284 63.8959 65.0571 63.5029C65.7857 63.1112 66.6017 62.9141 67.5035 62.9141C68.4386 62.9141 69.274 63.1126 70.0068 63.511C70.7396 63.9094 71.309 64.4497 71.7107 65.1331C72.1152 65.8178 72.3161 66.5782 72.3161 67.4155ZM67.5049 65.237C67.0699 65.237 66.7028 65.3505 66.4036 65.5787C66.1044 65.807 65.8896 66.1325 65.7594 66.5566H69.3321C69.0592 65.6773 68.4511 65.237 67.5049 65.237Z" fill="#FFB000"/>
<path d="M78.0584 72.0758C77.1233 72.0758 76.2852 71.8799 75.5469 71.4869C74.8071 71.0953 74.228 70.5483 73.8097 69.8487C73.3913 69.1491 73.1821 68.3617 73.1821 67.4865C73.1821 66.6114 73.3913 65.8267 73.8097 65.1325C74.228 64.4383 74.8071 63.898 75.5469 63.5104C76.2866 63.1242 77.1233 62.9297 78.0584 62.9297C78.8744 62.9297 79.6155 63.0891 80.2846 63.4064C80.9537 63.7252 81.4996 64.1695 81.9235 64.7422C82.3474 65.3148 82.6133 65.9779 82.7228 66.7302H79.7707C79.6405 66.3804 79.4202 66.1022 79.1099 65.8956C78.7996 65.6889 78.4491 65.5849 78.0584 65.5849C77.5251 65.5849 77.0873 65.7632 76.7452 66.117C76.403 66.4722 76.2312 66.9314 76.2312 67.4933C76.2312 68.0551 76.403 68.517 76.7452 68.8763C77.0873 69.2369 77.5251 69.4165 78.0584 69.4165C78.4602 69.4165 78.8176 69.303 79.1265 69.0748C79.4368 68.8466 79.6515 68.5427 79.7707 68.1605H82.756C82.5815 69.3274 82.0648 70.2701 81.2059 70.9913C80.347 71.7152 79.2983 72.0758 78.0584 72.0758Z" fill="#FFB000"/>
<path d="M88.4329 72.0758C87.4979 72.0758 86.6597 71.8799 85.9214 71.4869C85.1816 71.0953 84.6025 70.5483 84.1842 69.8487C83.7658 69.1491 83.5566 68.3617 83.5566 67.4865C83.5566 66.6114 83.7658 65.8267 84.1842 65.1325C84.6025 64.4383 85.1816 63.898 85.9214 63.5104C86.6611 63.1242 87.4979 62.9297 88.4329 62.9297C89.2489 62.9297 89.99 63.0891 90.6591 63.4064C91.3282 63.7252 91.8741 64.1695 92.298 64.7422C92.7219 65.3148 92.9879 65.9779 93.0973 66.7302H90.1452C90.015 66.3804 89.7947 66.1022 89.4844 65.8956C89.1741 65.6889 88.8236 65.5849 88.4329 65.5849C87.8996 65.5849 87.4618 65.7632 87.1197 66.117C86.7775 66.4722 86.6057 66.9314 86.6057 67.4933C86.6057 68.0551 86.7775 68.517 87.1197 68.8763C87.4618 69.2369 87.8996 69.4165 88.4329 69.4165C88.8347 69.4165 89.1921 69.303 89.501 69.0748C89.8113 68.8466 90.0261 68.5427 90.1452 68.1605H93.1305C92.956 69.3274 92.4393 70.2701 91.5804 70.9913C90.7215 71.7152 89.6728 72.0758 88.4329 72.0758Z" fill="#FFB000"/>
<path d="M98.871 72.075C97.4358 72.075 96.2528 71.6428 95.3232 70.7785C94.3937 69.9141 93.9282 68.8201 93.9282 67.4939C93.9282 66.1581 94.3937 65.0601 95.3232 64.2025C96.2528 63.3435 97.4358 62.9141 98.871 62.9141C100.306 62.9141 101.489 63.3462 102.419 64.2106C103.348 65.075 103.814 66.1689 103.814 67.4952C103.814 68.8201 103.346 69.9154 102.41 70.7798C101.475 71.6428 100.297 72.075 98.871 72.075ZM97.5009 68.8782C97.8597 69.2388 98.3169 69.4184 98.871 69.4184C99.4251 69.4184 99.8795 69.2388 100.233 68.8782C100.586 68.5176 100.763 68.057 100.763 67.4952C100.763 66.9334 100.586 66.4728 100.233 66.1122C99.8795 65.7516 99.4251 65.572 98.871 65.572C98.5011 65.572 98.1728 65.6544 97.8847 65.8192C97.5965 65.9839 97.3707 66.2122 97.2073 66.5025C97.0438 66.7943 96.9621 67.1252 96.9621 67.4966C96.9634 68.0571 97.1421 68.5176 97.5009 68.8782Z" fill="#FFB000"/>
<path d="M110.355 62.916C111.703 62.916 112.81 63.3455 113.675 64.2045C114.539 65.0634 114.971 66.1601 114.971 67.4958C114.971 68.8315 114.539 69.9295 113.675 70.7872C112.81 71.6461 111.703 72.0756 110.355 72.0756C109.573 72.0756 108.855 71.8852 108.203 71.503V74.8902H105.217V63.2023H107.273L107.649 63.8857C108.409 63.2388 109.311 62.916 110.355 62.916ZM109.947 69.4676C110.512 69.4676 110.983 69.2799 111.358 68.9031C111.734 68.5263 111.921 68.0576 111.921 67.4958C111.921 66.934 111.734 66.4653 111.358 66.0885C110.983 65.7117 110.513 65.524 109.947 65.524C109.382 65.524 108.911 65.7117 108.535 66.0885C108.16 66.4653 107.973 66.934 107.973 67.4958C107.973 67.8672 108.057 68.2035 108.226 68.506C108.395 68.8086 108.631 69.0449 108.935 69.2137C109.24 69.3826 109.578 69.4676 109.947 69.4676Z" fill="#FFB000"/>
</svg>
