<svg width="62" height="16" viewBox="0 0 62 16" fill="none" xmlns="http://www.w3.org/2000/svg">
<path d="M14.6668 4.66699L9.42108 9.91275C9.15707 10.1768 9.02506 10.3088 8.87284 10.3582C8.73895 10.4017 8.59471 10.4017 8.46082 10.3582C8.3086 10.3088 8.17659 10.1768 7.91258 9.91275L6.08774 8.08791C5.82373 7.82389 5.69173 7.69189 5.53951 7.64243C5.40561 7.59893 5.26138 7.59893 5.12748 7.64243C4.97527 7.69189 4.84326 7.8239 4.57925 8.08791L1.3335 11.3337M14.6668 4.66699H10.0002M14.6668 4.66699V9.33366" stroke="#00B050" stroke-width="2" stroke-linecap="round" stroke-linejoin="round"/>
<path d="M20.6499 3.368L22.8699 2.6H23.5899V11H22.7499V3.524L20.8659 4.088L20.6499 3.368ZM28.128 5.6C28.944 5.6 29.62 5.86 30.156 6.38C30.684 6.9 30.948 7.564 30.948 8.372C30.948 9.196 30.684 9.864 30.156 10.376C29.636 10.888 28.96 11.144 28.128 11.144C27.296 11.144 26.62 10.888 26.1 10.376C25.572 9.864 25.308 9.196 25.308 8.372C25.308 7.74 25.48 7.18 25.824 6.692L28.572 2.6H29.52L27.456 5.672C27.672 5.624 27.896 5.6 28.128 5.6ZM26.688 9.788C27.064 10.148 27.544 10.328 28.128 10.328C28.72 10.328 29.196 10.148 29.556 9.788C29.924 9.428 30.108 8.956 30.108 8.372C30.108 7.788 29.924 7.316 29.556 6.956C29.196 6.596 28.72 6.416 28.128 6.416C27.544 6.416 27.064 6.596 26.688 6.956C26.328 7.316 26.148 7.788 26.148 8.372C26.148 8.956 26.328 9.428 26.688 9.788ZM37.1141 3.392L35.1581 6.092C35.8221 6.172 36.3741 6.432 36.8141 6.872C37.2541 7.288 37.4741 7.852 37.4741 8.564C37.4741 9.356 37.1981 9.988 36.6461 10.46C36.1101 10.916 35.4461 11.144 34.6541 11.144C34.0221 11.144 33.4621 11 32.9741 10.712C32.4861 10.416 32.1461 10.004 31.9541 9.476L32.6501 9.068C32.7861 9.476 33.0261 9.788 33.3701 10.004C33.7221 10.22 34.1501 10.328 34.6541 10.328C35.2461 10.328 35.7221 10.172 36.0821 9.86C36.4501 9.54 36.6341 9.108 36.6341 8.564C36.6341 8.02 36.4501 7.592 36.0821 7.28C35.7221 6.96 35.2461 6.8 34.6541 6.8V6.788L34.6421 6.8H34.4141L34.0541 6.248L36.1421 3.392H32.1941V2.6H37.1141V3.392ZM39.323 9.98H40.283L39.563 12.68H38.843L39.323 9.98ZM41.6459 3.392V2.6H46.8059V3.392L43.6379 11H42.7619L45.9299 3.392H41.6459ZM51.839 8.528H52.919V9.32H51.839V11H50.999V9.32H46.559V8.528L49.679 2.6H50.603L47.483 8.528H50.999V5.96H51.839V8.528ZM55.5783 6.056C55.0503 6.056 54.6143 5.884 54.2703 5.54C53.9183 5.188 53.7423 4.76 53.7423 4.256C53.7423 3.76 53.9183 3.336 54.2703 2.984C54.6223 2.632 55.0583 2.456 55.5783 2.456C56.0983 2.456 56.5343 2.632 56.8863 2.984C57.2383 3.336 57.4143 3.76 57.4143 4.256C57.4143 4.768 57.2423 5.196 56.8983 5.54C56.5543 5.884 56.1143 6.056 55.5783 6.056ZM54.5103 4.256C54.5103 4.56 54.6103 4.816 54.8103 5.024C55.0103 5.232 55.2663 5.336 55.5783 5.336C55.8903 5.336 56.1463 5.232 56.3463 5.024C56.5463 4.816 56.6463 4.56 56.6463 4.256C56.6463 3.952 56.5463 3.696 56.3463 3.488C56.1463 3.28 55.8903 3.176 55.5783 3.176C55.2663 3.176 55.0103 3.28 54.8103 3.488C54.6103 3.696 54.5103 3.952 54.5103 4.256ZM54.6663 10.148L54.1623 9.86L59.7903 3.536L60.3063 3.824L54.6663 10.148ZM60.2823 10.628C59.9383 10.972 59.5023 11.144 58.9743 11.144C58.4463 11.144 58.0103 10.972 57.6663 10.628C57.3143 10.276 57.1383 9.848 57.1383 9.344C57.1383 8.848 57.3143 8.424 57.6663 8.072C58.0183 7.72 58.4543 7.544 58.9743 7.544C59.4943 7.544 59.9303 7.72 60.2823 8.072C60.6343 8.424 60.8103 8.848 60.8103 9.344C60.8103 9.848 60.6343 10.276 60.2823 10.628ZM57.9063 9.344C57.9063 9.648 58.0063 9.904 58.2063 10.112C58.4063 10.32 58.6623 10.424 58.9743 10.424C59.2863 10.424 59.5423 10.32 59.7423 10.112C59.9423 9.904 60.0423 9.648 60.0423 9.344C60.0423 9.04 59.9423 8.784 59.7423 8.576C59.5423 8.368 59.2863 8.264 58.9743 8.264C58.6623 8.264 58.4063 8.368 58.2063 8.576C58.0063 8.784 57.9063 9.04 57.9063 9.344Z" fill="#00B050"/>
</svg>
