<svg width="64" height="16" viewBox="0 0 64 16" fill="none" xmlns="http://www.w3.org/2000/svg">
<path d="M14.6668 4.66699L9.42108 9.91275C9.15707 10.1768 9.02506 10.3088 8.87284 10.3582C8.73895 10.4017 8.59471 10.4017 8.46082 10.3582C8.3086 10.3088 8.17659 10.1768 7.91258 9.91275L6.08774 8.08791C5.82373 7.82389 5.69173 7.69189 5.53951 7.64243C5.40561 7.59893 5.26138 7.59893 5.12748 7.64243C4.97527 7.69189 4.84326 7.8239 4.57925 8.08791L1.3335 11.3337M14.6668 4.66699H10.0002M14.6668 4.66699V9.33366" stroke="#00B050" stroke-width="2" stroke-linecap="round" stroke-linejoin="round"/>
<path d="M20.5425 3.368L22.7625 2.6H23.4825V11H22.6425V3.524L20.7585 4.088L20.5425 3.368ZM30.4206 8.528H31.5006V9.32H30.4206V11H29.5806V9.32H25.1406V8.528L28.2606 2.6H29.1846L26.0646 8.528H29.5806V5.96H30.4206V8.528ZM33.9656 5.984H35.3816C36.1736 5.984 36.8376 6.216 37.3736 6.68C37.9256 7.136 38.2016 7.764 38.2016 8.564C38.2016 9.356 37.9256 9.988 37.3736 10.46C36.8376 10.916 36.1736 11.144 35.3816 11.144C34.7336 11.144 34.1616 10.988 33.6656 10.676C33.1776 10.356 32.8496 9.916 32.6816 9.356L33.3896 8.948C33.5096 9.388 33.7456 9.728 34.0976 9.968C34.4496 10.208 34.8776 10.328 35.3816 10.328C35.9736 10.328 36.4496 10.172 36.8096 9.86C37.1776 9.54 37.3616 9.108 37.3616 8.564C37.3616 8.02 37.1776 7.592 36.8096 7.28C36.4496 6.96 35.9736 6.8 35.3816 6.8H33.1016L33.4016 2.6H37.9016V3.392H34.1456L33.9656 5.984ZM40.0477 9.98H41.0077L40.2877 12.68H39.5677L40.0477 9.98ZM43.8945 5.984H45.3105C46.1025 5.984 46.7665 6.216 47.3025 6.68C47.8545 7.136 48.1305 7.764 48.1305 8.564C48.1305 9.356 47.8545 9.988 47.3025 10.46C46.7665 10.916 46.1025 11.144 45.3105 11.144C44.6625 11.144 44.0905 10.988 43.5945 10.676C43.1065 10.356 42.7785 9.916 42.6105 9.356L43.3185 8.948C43.4385 9.388 43.6745 9.728 44.0265 9.968C44.3785 10.208 44.8065 10.328 45.3105 10.328C45.9025 10.328 46.3785 10.172 46.7385 9.86C47.1065 9.54 47.2905 9.108 47.2905 8.564C47.2905 8.02 47.1065 7.592 46.7385 7.28C46.3785 6.96 45.9025 6.8 45.3105 6.8H43.0305L43.3305 2.6H47.8305V3.392H44.0745L43.8945 5.984ZM54.3622 11H49.0222V10.244L52.0462 7.196C52.9102 6.332 53.3422 5.592 53.3422 4.976C53.3422 4.456 53.1782 4.044 52.8502 3.74C52.5302 3.428 52.1302 3.272 51.6502 3.272C50.7942 3.272 50.1662 3.668 49.7662 4.46L49.0582 4.04C49.3142 3.528 49.6702 3.136 50.1262 2.864C50.5822 2.592 51.0902 2.456 51.6502 2.456C52.3222 2.456 52.9102 2.684 53.4142 3.14C53.9262 3.58 54.1822 4.192 54.1822 4.976C54.1822 5.44 54.0542 5.896 53.7982 6.344C53.5422 6.784 53.1502 7.268 52.6222 7.796L50.2222 10.184H54.3622V11ZM57.6857 6.056C57.1577 6.056 56.7217 5.884 56.3777 5.54C56.0257 5.188 55.8497 4.76 55.8497 4.256C55.8497 3.76 56.0257 3.336 56.3777 2.984C56.7297 2.632 57.1657 2.456 57.6857 2.456C58.2057 2.456 58.6417 2.632 58.9937 2.984C59.3457 3.336 59.5217 3.76 59.5217 4.256C59.5217 4.768 59.3497 5.196 59.0057 5.54C58.6617 5.884 58.2217 6.056 57.6857 6.056ZM56.6177 4.256C56.6177 4.56 56.7177 4.816 56.9177 5.024C57.1177 5.232 57.3737 5.336 57.6857 5.336C57.9977 5.336 58.2537 5.232 58.4537 5.024C58.6537 4.816 58.7537 4.56 58.7537 4.256C58.7537 3.952 58.6537 3.696 58.4537 3.488C58.2537 3.28 57.9977 3.176 57.6857 3.176C57.3737 3.176 57.1177 3.28 56.9177 3.488C56.7177 3.696 56.6177 3.952 56.6177 4.256ZM56.7737 10.148L56.2697 9.86L61.8977 3.536L62.4137 3.824L56.7737 10.148ZM62.3897 10.628C62.0457 10.972 61.6097 11.144 61.0817 11.144C60.5537 11.144 60.1177 10.972 59.7737 10.628C59.4217 10.276 59.2457 9.848 59.2457 9.344C59.2457 8.848 59.4217 8.424 59.7737 8.072C60.1257 7.72 60.5617 7.544 61.0817 7.544C61.6017 7.544 62.0377 7.72 62.3897 8.072C62.7417 8.424 62.9177 8.848 62.9177 9.344C62.9177 9.848 62.7417 10.276 62.3897 10.628ZM60.0137 9.344C60.0137 9.648 60.1137 9.904 60.3137 10.112C60.5137 10.32 60.7697 10.424 61.0817 10.424C61.3937 10.424 61.6497 10.32 61.8497 10.112C62.0497 9.904 62.1497 9.648 62.1497 9.344C62.1497 9.04 62.0497 8.784 61.8497 8.576C61.6497 8.368 61.3937 8.264 61.0817 8.264C60.7697 8.264 60.5137 8.368 60.3137 8.576C60.1137 8.784 60.0137 9.04 60.0137 9.344Z" fill="#00B050"/>
</svg>
