<svg width="36" height="36" viewBox="0 0 36 36" fill="none" xmlns="http://www.w3.org/2000/svg">
<g clip-path="url(#clip0_4152_4109)">
<path d="M36 18C36 8.05887 27.9412 0 18 0C8.05887 0 0 8.05887 0 18C0 27.9412 8.05887 36 18 36C27.9412 36 36 27.9412 36 18Z" fill="#FC3F1D"/>
<path d="M20.536 28.8177H24.2958V7.21777H18.8282C13.327 7.21777 10.4357 10.046 10.4357 14.2108C10.4357 17.5363 12.0197 19.4938 14.848 21.5143L9.93848 28.8177H14.011L19.4785 20.6435L17.584 19.37C15.2845 17.8175 14.164 16.6025 14.164 13.9925C14.164 11.693 15.7817 10.1383 18.8575 10.1383H20.536V28.8177Z" fill="white"/>
</g>
<defs>
<clipPath id="clip0_4152_4109">
<rect width="36" height="36" fill="white"/>
</clipPath>
</defs>
</svg>
