<svg width="20" height="21" viewBox="0 0 20 21" fill="none" xmlns="http://www.w3.org/2000/svg">
<path d="M16.6668 9.20378C16.6668 13.3646 12.051 17.6979 10.501 19.0363C10.3566 19.1449 10.1808 19.2036 10.0002 19.2036C9.8195 19.2036 9.64373 19.1449 9.49933 19.0363C7.94933 17.6979 3.3335 13.3646 3.3335 9.20378C3.3335 7.43567 4.03588 5.73997 5.28612 4.48973C6.53636 3.23949 8.23205 2.53711 10.0002 2.53711C11.7683 2.53711 13.464 3.23949 14.7142 4.48973C15.9645 5.73997 16.6668 7.43567 16.6668 9.20378Z" stroke="white" stroke-linecap="round" stroke-linejoin="round"/>
<path d="M10.0002 11.7038C11.3809 11.7038 12.5002 10.5845 12.5002 9.20378C12.5002 7.82306 11.3809 6.70378 10.0002 6.70378C8.61945 6.70378 7.50016 7.82306 7.50016 9.20378C7.50016 10.5845 8.61945 11.7038 10.0002 11.7038Z" stroke="white" stroke-linecap="round" stroke-linejoin="round"/>
</svg>
