<svg width="20" height="21" viewBox="0 0 20 21" fill="none" xmlns="http://www.w3.org/2000/svg">
<circle cx="10" cy="10.8701" r="10" fill="url(#paint0_linear_4069_349)"/>
<path d="M13.2904 6.87012H7.20961C6.52308 6.87012 6 7.39319 6 8.07973V14.1605C6 14.847 6.52308 15.3701 7.20961 15.3701H13.2904C13.9769 15.3701 14.5 14.847 14.5 14.1605V8.07973C14.5 7.39319 13.9769 6.87012 13.2904 6.87012ZM10.25 13.6701C11.6558 13.6701 12.8 12.5586 12.8 11.2182C12.8 10.9893 12.7673 10.7278 12.7019 10.5317H13.4212V13.997C13.4212 14.1605 13.2904 14.324 13.0942 14.324H7.40577C7.24231 14.324 7.07885 14.1932 7.07885 13.997V10.499H7.83077C7.76539 10.7278 7.73269 10.9567 7.73269 11.1855C7.7 12.5586 8.84423 13.6701 10.25 13.6701ZM10.25 12.6893C9.33462 12.6893 8.61538 11.9701 8.61538 11.0874C8.61538 10.2047 9.33462 9.4855 10.25 9.4855C11.1654 9.4855 11.8846 10.2047 11.8846 11.0874C11.8846 12.0028 11.1654 12.6893 10.25 12.6893ZM13.3885 9.19127C13.3885 9.38742 13.225 9.55089 13.0288 9.55089H12.1135C11.9173 9.55089 11.7538 9.38742 11.7538 9.19127V8.30858C11.7538 8.11242 11.9173 7.94896 12.1135 7.94896H13.0288C13.225 7.94896 13.3885 8.11242 13.3885 8.30858V9.19127Z" fill="white"/>
<defs>
<linearGradient id="paint0_linear_4069_349" x1="4.25" y1="18.6201" x2="17.5" y2="4.87012" gradientUnits="userSpaceOnUse">
<stop stop-color="#EEA054"/>
<stop offset="0.502762" stop-color="#D64763"/>
<stop offset="1" stop-color="#B62A99"/>
</linearGradient>
</defs>
</svg>
