<svg width="155" height="47" viewBox="0 0 155 47" fill="none" xmlns="http://www.w3.org/2000/svg">
<g clip-path="url(#clip0_4019_578)">
<path d="M8.69606 5.27272C17.5117 -2.10498 31.6535 -1.6377 39.962 6.30795C38.978 7.09055 38.0473 7.94343 37.0026 8.64815C34.632 6.58718 31.7694 5.18914 28.7606 4.33436C30.1985 6.53969 31.3173 8.93497 32.2538 11.391C32.6432 11.4214 33.0326 11.4537 33.422 11.4898C32.8464 12.1243 31.663 12.6504 32.0695 13.6932C32.2443 15.2167 34.3641 15.9765 33.8038 17.6461C32.7116 19.5798 31.5928 21.5192 30.3372 23.3542C29.7369 22.7596 29.1842 22.1176 28.7359 21.3977C29.3722 21.4299 30.0086 21.4698 30.6449 21.5097C30.4739 19.4981 30.0902 17.5132 29.659 15.5434C25.6834 15.6478 21.6887 15.9917 17.7282 15.3876C17.2799 17.3669 17.1071 19.3861 16.8526 21.3939C18.3209 21.5914 19.8063 21.3825 21.2765 21.5363C19.9696 22.7729 19.0351 24.8795 17.0938 25.0979C16.9361 27.0715 14.9265 28.1314 13.7659 29.5447C13.3252 28.0763 13.367 26.5415 13.2055 25.0333C10.1245 25.0409 7.04158 25.0694 3.96058 25.0181C4.30629 27.989 5.14208 30.9066 6.62369 33.5165C8.20978 33.036 9.72749 32.3255 11.3706 32.0406C9.49955 34.2174 7.52026 36.3221 5.45929 38.3242C-2.77888 28.8551 -1.30106 12.9239 8.69606 5.27272ZM18.7274 11.8754C22.004 12.2629 25.3035 12.261 28.5858 11.9761C27.619 9.02235 26.2665 5.95084 23.8048 3.94876C21.0486 5.58044 19.8405 9.00336 18.7274 11.8754ZM9.06266 9.91702C11.0078 10.654 13.0554 11.032 15.0936 11.41C15.918 8.96157 17.014 6.59668 18.4652 4.45593C14.8809 5.29361 11.5586 7.21022 9.06266 9.91702ZM6.79845 12.8556C5.24275 15.475 4.31959 18.4192 3.99287 21.4413C7.10047 21.411 10.2195 21.6161 13.3195 21.3749C13.2682 19.16 13.7943 16.9984 14.1249 14.8235C11.6175 14.4454 9.16524 13.7597 6.79845 12.8556Z" fill="white"/>
<path d="M34.672 13.8872C38.8642 10.3712 43.0982 6.89133 47.3873 3.49121C47.4842 8.89912 47.488 14.3127 47.4025 19.7187C46.1222 19.0026 44.9939 18.0548 43.7459 17.2873C39.8709 23.6051 36.298 30.1109 32.4685 36.4553C32.1551 37.1011 31.3231 37.0176 30.9356 36.4952C28.9336 34.2519 27.0454 31.9022 25.0491 29.6532C24.7641 29.2372 24.2266 29.1935 23.8999 29.5905C18.095 35.3042 12.2825 41.035 6.19262 46.4429C4.54005 46.7184 2.7982 46.5512 1.11523 46.4942C8.78546 38.4042 16.45 30.3085 24.0347 22.1387C24.4203 21.6448 25.1725 21.2345 25.693 21.7949C27.2601 23.4627 28.6068 25.3375 30.1815 26.9976C30.5253 27.4117 31.0857 27.1344 31.2795 26.7241C33.6937 22.8643 36.0073 18.938 38.4406 15.0896C37.204 14.6299 35.9276 14.2899 34.672 13.8872Z" fill="white"/>
<path d="M61.8273 10.3463C66.6464 7.60152 75.1334 9.10783 75.7013 15.6042C74.2007 15.6042 72.7001 15.6023 71.1995 15.608C70.622 12.4301 66.2911 11.4556 64.082 13.5565C63.0126 14.4834 63.0582 16.4361 64.365 17.1314C67.5353 18.9112 71.7142 18.4686 74.459 21.088C77.0937 23.489 76.4687 28.1504 73.5682 30.0727C68.5421 33.6058 58.7558 31.9456 58.165 24.8263C59.6296 24.8168 61.0941 24.8263 62.5586 24.8206C63.3982 28.4296 68.5402 29.406 71.0057 26.9366C72.134 25.7798 71.4863 23.7796 70.0579 23.2136C66.9256 21.9029 63.1361 22.0321 60.4748 19.6824C57.6883 17.1295 58.5032 12.0578 61.8273 10.3463Z" fill="white"/>
<path d="M97.8171 9.28993C99.2513 9.33932 100.685 9.34122 102.12 9.28613C102.207 16.6676 102.173 24.051 102.137 31.4325C100.682 31.4477 99.2266 31.4572 97.7734 31.4173C97.8285 24.0415 97.7393 16.6657 97.8171 9.28993Z" fill="white"/>
<path d="M105.782 9.30957C107.226 9.34186 108.671 9.30957 110.115 9.36086C110.164 16.7177 110.164 24.0764 110.117 31.4332C108.662 31.4503 107.208 31.4636 105.755 31.4142C105.797 24.046 105.744 16.6778 105.782 9.30957Z" fill="white"/>
<path d="M113.5 9.37016C115.179 9.38536 116.887 9.20491 118.55 9.44994C120.767 13.777 122.65 18.2827 124.885 22.6041C127.064 18.2466 129.045 13.7941 131.173 9.41385C132.865 9.40436 134.558 9.39676 136.252 9.42335C136.237 16.7555 136.225 24.0876 136.246 31.4197C134.797 31.4596 133.348 31.4463 131.9 31.4349C131.832 26.367 131.902 21.2972 131.866 16.2274C129.961 19.9846 128.274 23.8577 126.394 27.6245C125.565 28.2057 124.353 27.7802 123.375 27.8657C121.489 24.1256 119.821 20.2753 117.869 16.5731C117.728 21.5156 117.829 26.4677 117.817 31.414C116.379 31.4615 114.94 31.4501 113.502 31.4311C113.484 24.0781 113.473 16.7232 113.5 9.37016Z" fill="white"/>
<path d="M79.5954 18.8196C81.8368 14.01 89.2145 13.2787 92.6697 17.1214C94.402 19.0988 94.8484 21.8835 94.5369 24.425C90.7208 24.5048 86.9028 24.4269 83.0848 24.4611C82.6745 28.3342 88.6256 30.059 90.2345 26.5582C91.6534 26.4651 93.0762 26.5012 94.497 26.5354C93.137 32.1199 85.3851 33.3641 81.3372 29.9754C78.2258 27.2686 77.9656 22.3926 79.5954 18.8196ZM83.1056 21.6821C85.5104 21.6859 87.9152 21.6764 90.32 21.6878C90.3979 19.851 89.129 17.7976 87.0984 17.9192C84.895 17.6077 83.1151 19.5718 83.1056 21.6821Z" fill="white"/>
<path d="M140.148 18.3891C142.708 13.7562 150.242 13.3668 153.313 17.6464C154.766 19.5801 155.042 22.0875 154.905 24.4334C151.081 24.4884 147.258 24.4429 143.434 24.4543C143.001 28.3501 148.971 30.0407 150.607 26.5475C151.997 26.481 153.389 26.4981 154.782 26.5285C153.338 32.8938 143.546 33.5909 140.315 28.3634C138.51 25.3964 138.526 21.4283 140.148 18.3891ZM143.48 21.6886C145.882 21.6677 148.283 21.7114 150.686 21.662C150.652 19.8119 149.351 17.8117 147.311 17.9332C145.163 17.673 143.482 19.6523 143.48 21.6886Z" fill="white"/>
<path d="M43.5216 23.4563C43.4475 22.5085 43.9965 21.7088 44.5188 20.9756C45.4382 21.5948 46.3348 22.2464 47.2256 22.9036C47.5315 29.8254 44.4296 36.7757 39.1299 41.2225C31.9289 47.4225 20.8243 48.7065 12.5254 43.9844C13.441 43.0954 14.3299 42.1627 15.3367 41.382C16.4802 41.6138 17.5325 42.1779 18.6741 42.4438C18.1005 41.6005 17.39 40.8046 17.1146 39.8035C17.7528 38.8025 18.733 38.0769 19.6106 37.2981C20.6458 39.4027 21.8292 41.4941 23.6565 43.0194C25.7688 41.5207 26.7736 39.0475 27.9836 36.8555C28.7187 37.8071 29.7103 38.548 30.4891 39.4217C30.0959 40.5063 29.3418 41.4067 28.7814 42.4078C32.6203 41.629 36.0983 39.4616 38.674 36.5364C37.8155 36.1451 36.9227 35.8412 36.0185 35.579C36.6055 34.5134 37.0842 33.3357 37.9161 32.441C38.9286 32.6652 39.8517 33.1704 40.8395 33.4782C42.513 30.4067 43.5159 26.9685 43.5216 23.4563Z" fill="white"/>
<path d="M135.351 37.2266C135.579 37.2038 135.809 37.1811 136.041 37.1602C136.138 37.4071 136.235 37.654 136.337 37.901C136.459 37.8972 136.704 37.8896 136.825 37.8858C136.979 37.6483 137.135 37.4128 137.291 37.1753C137.443 37.1753 137.745 37.1716 137.897 37.1697C137.971 38.9305 135.243 39.0578 135.351 37.2266Z" fill="white"/>
<path d="M58.6323 39.0572C60.0646 39.0344 61.4949 39.0325 62.9271 39.0629C62.9062 40.8123 62.9062 42.5618 62.9195 44.3112C62.6156 44.3093 62.3136 44.3093 62.0115 44.3093C61.9033 42.8638 61.9679 41.4145 61.9736 39.9651C61.1701 39.91 60.3647 39.9062 59.5631 39.948C59.5441 41.4031 59.5935 42.86 59.5232 44.3131C59.2307 44.3112 58.9362 44.3093 58.6456 44.3093C58.6247 42.558 58.6399 40.8085 58.6323 39.0572Z" fill="white"/>
<path d="M64.4484 39.0497C65.9471 38.8864 68.6539 38.894 68.3272 41.1069C68.1525 42.5619 66.4448 42.5866 65.3203 42.6398C65.3032 43.1964 65.2861 43.7548 65.2652 44.3133C64.9955 44.3114 64.7277 44.3095 64.4598 44.3114C64.3838 42.5581 64.4047 40.803 64.4484 39.0497ZM65.2937 39.9482C65.2975 40.5428 65.2975 41.1373 65.2937 41.7319C67.8656 42.636 67.8618 39.0289 65.2937 39.9482Z" fill="white"/>
<path d="M71.0092 39.0779C72.9828 38.3713 74.9981 40.4627 74.3447 42.4135C73.9496 44.1496 71.674 44.9778 70.2475 43.9236C68.479 42.7782 68.8969 39.5737 71.0092 39.0779ZM71.4043 39.87C69.3471 40.2898 69.8695 43.8761 72.0216 43.5133C74.244 43.2265 73.6913 39.2641 71.4043 39.87Z" fill="white"/>
<path d="M76.2388 39.0475C77.3861 39.0399 78.5334 39.0399 79.6788 39.0494C79.7206 40.4664 79.6446 41.8853 79.7301 43.3005C80.6191 43.5797 80.2677 44.5883 80.2772 45.2874C80.0245 45.2304 79.7738 45.1753 79.5231 45.1202C79.5022 44.8543 79.4813 44.5902 79.4623 44.3281C78.2941 44.2635 77.1221 44.2464 75.9558 44.3376C75.9178 44.6415 75.8798 44.9474 75.8437 45.2551C75.5436 45.2551 75.2454 45.2589 74.9471 45.2646C74.7667 43.0934 76.8542 41.3934 76.2388 39.0475ZM77.2417 39.9535C77.1525 41.1483 76.841 42.307 76.4459 43.4334C77.2171 43.4695 77.9902 43.4714 78.7633 43.4391C78.8126 42.2709 78.8126 41.1008 78.7614 39.9345C78.2523 39.9345 77.747 39.9402 77.2417 39.9535Z" fill="white"/>
<path d="M81.4414 39.0685C83.0598 38.5139 86.5207 39.4902 84.5566 41.5474C86.9614 43.5837 83.2554 44.957 81.4433 44.2998C81.4642 42.556 81.4661 40.8123 81.4414 39.0685ZM82.4292 39.8454C82.4102 40.326 82.395 40.8066 82.3779 41.2891C84.5718 41.9767 84.6421 39.2091 82.4292 39.8454ZM82.3855 42.0356C82.3893 42.5009 82.3912 42.9663 82.3912 43.4336C83.0731 43.4336 84.5186 43.7603 84.4027 42.6757C84.2565 41.7373 83.0541 42.0451 82.3855 42.0356Z" fill="white"/>
<path d="M86.5703 39.0683C86.8761 39.0588 87.1839 39.0493 87.4935 39.0398C87.5657 40.3657 87.5391 41.6934 87.5068 43.0193C88.2742 41.6688 89.1574 40.3885 89.9704 39.0645C90.2839 39.0531 90.5992 39.0417 90.9164 39.0322C90.9696 40.795 90.9981 42.5634 90.8974 44.3243C90.603 44.3053 90.3086 44.2863 90.016 44.2673C90.0065 43.0706 90.0464 41.8701 89.9552 40.6753C89.0644 41.8131 88.3729 43.0877 87.5809 44.292C87.2541 44.2882 86.9293 44.2863 86.6045 44.2825C86.5665 42.5444 86.6159 40.8064 86.5703 39.0683Z" fill="white"/>
<path d="M92.1775 39.0552C92.491 39.0609 92.8063 39.0704 93.1216 39.0799C93.7161 39.8587 94.2195 40.7211 94.9679 41.3707C95.004 40.5938 95.0116 39.8169 95.0249 39.04C95.3041 39.04 95.5853 39.0419 95.8664 39.0419C95.8797 39.8188 95.8873 40.5957 95.9272 41.3726C96.6832 40.7211 97.1713 39.8416 97.7602 39.0514C98.0679 39.0533 98.3756 39.0571 98.6853 39.0628C98.1344 39.9518 97.481 40.7724 96.9206 41.6557C97.5911 42.5256 98.2977 43.3728 98.8657 44.3169C98.5162 44.3017 98.1686 44.2846 97.8229 44.2656C97.3138 43.5685 96.8123 42.8657 96.3204 42.1552C96.214 42.14 96.005 42.1115 95.8987 42.0983C95.8987 42.8372 95.8835 43.5761 95.8512 44.315C95.5796 44.3131 95.3079 44.3112 95.0382 44.3131C95.004 43.5761 94.9926 42.8391 95.0021 42.102C94.8938 42.1153 94.6773 42.14 94.569 42.1533C94.0789 42.8733 93.5851 43.5913 93.0912 44.3093C92.7664 44.2808 92.4416 44.2523 92.1187 44.22C92.698 43.3633 93.3229 42.5389 93.9194 41.6918C93.3438 40.8085 92.6847 39.9803 92.1775 39.0552Z" fill="white"/>
<path d="M99.9731 39.0517C101.079 39.0384 102.184 39.0346 103.29 39.0574C103.28 39.348 103.273 39.6387 103.267 39.9312C102.477 39.9198 101.69 39.9274 100.902 39.954C100.904 40.3947 100.908 40.8373 100.917 41.2798C101.637 41.2779 102.357 41.2855 103.077 41.2988C103.077 41.5572 103.077 41.8155 103.079 42.0757C102.357 42.0814 101.635 42.0871 100.913 42.0909C100.91 42.5373 100.908 42.9856 100.91 43.432C101.742 43.4624 102.577 43.4681 103.411 43.4586C103.409 43.7378 103.409 44.0189 103.409 44.3001C102.268 44.2944 101.126 44.2906 99.9864 44.3058C99.9085 42.5544 99.9294 40.8012 99.9731 39.0517Z" fill="white"/>
<path d="M104.739 39.0439C105.043 39.0496 105.349 39.0572 105.657 39.0648C105.649 39.7638 105.657 40.4647 105.676 41.1656C106.456 41.196 107.239 41.196 108.021 41.1637C108.038 40.4647 108.046 39.7657 108.042 39.0667C108.341 39.0572 108.641 39.0477 108.943 39.042C108.984 40.7971 109.011 42.5561 108.926 44.3131C108.629 44.3112 108.337 44.3093 108.044 44.3093C108.05 43.5514 108.042 42.7935 108.02 42.0375C107.239 42.0052 106.456 42.0052 105.676 42.0375C105.653 42.7935 105.645 43.5533 105.655 44.3112C105.353 44.3093 105.052 44.3093 104.752 44.3112C104.655 42.558 104.678 40.799 104.739 39.0439Z" fill="white"/>
<path d="M110.483 39.055C110.787 39.0512 111.091 39.0474 111.399 39.0436C111.429 40.3714 111.421 41.701 111.425 43.0288C112.474 41.6935 112.897 39.1728 114.803 38.998C114.846 40.7703 114.844 42.5406 114.797 44.3129C114.501 44.311 114.204 44.311 113.91 44.311C113.868 43.0459 113.906 41.7808 113.868 40.5139C113.028 41.7295 112.286 43.0079 111.492 44.254C111.161 44.2787 110.831 44.3015 110.504 44.3281C110.458 42.5691 110.491 40.8121 110.483 39.055Z" fill="white"/>
<path d="M116.33 39.0521C117.466 39.035 118.603 39.035 119.739 39.0711C119.734 39.356 119.73 39.641 119.726 39.9278C118.913 39.9183 118.098 39.9259 117.285 39.9525C117.287 40.3932 117.291 40.8358 117.297 41.2783C118.041 41.2764 118.786 41.2916 119.532 41.3277C119.532 41.5671 119.532 41.8083 119.536 42.0495C118.786 42.0723 118.037 42.0875 117.289 42.0913C117.287 42.5396 117.287 42.986 117.289 43.4362C118.153 43.4571 119.019 43.4685 119.884 43.4875C119.882 43.7477 119.882 44.0079 119.886 44.2701C118.706 44.3081 117.526 44.2948 116.349 44.3043C116.278 42.5548 116.297 40.8016 116.33 39.0521Z" fill="white"/>
<path d="M123.937 39.4069C125.261 38.4724 127.434 39.0688 127.759 40.7613C126.731 40.8885 126.198 39.5722 125.151 39.859C123.314 40.0889 123.31 43.2705 125.149 43.508C126.217 43.7473 126.714 42.4044 127.753 42.4556C127.533 44.188 125.297 44.925 123.947 43.9657C122.41 42.9647 122.397 40.4099 123.937 39.4069Z" fill="white"/>
<path d="M130.434 39.0361C130.72 39.0475 131.007 39.0608 131.298 39.0741C131.938 40.8236 132.772 42.5027 133.281 44.2978C132.971 44.2978 132.665 44.2959 132.36 44.2959C132.2 43.8837 132.039 43.4753 131.881 43.0669C131.203 43.0517 130.525 43.046 129.849 43.046C129.679 43.4601 129.509 43.8742 129.343 44.2902C129.03 44.2693 128.718 44.2503 128.409 44.2294C129.041 42.4818 129.738 40.759 130.434 39.0361ZM130.179 42.2064C130.627 42.2102 131.077 42.214 131.528 42.2178C131.307 41.4789 131.089 40.7419 130.882 40.0011C130.608 40.7229 130.367 41.458 130.179 42.2064Z" fill="white"/>
<path d="M134.438 39.0722C134.744 39.0589 135.052 39.0494 135.363 39.0399C135.435 40.3639 135.405 41.6916 135.378 43.0175C136.153 41.6708 136.999 40.3658 137.834 39.057C138.148 39.0494 138.465 39.0418 138.782 39.0361C138.833 40.797 138.864 42.5635 138.763 44.3244C138.467 44.3054 138.174 44.2883 137.882 44.2712C137.869 43.0707 137.912 41.8683 137.819 40.6716C136.907 41.7961 136.239 43.0859 135.447 44.2921C135.122 44.2883 134.797 44.2845 134.474 44.2826C134.436 42.5464 134.487 40.8084 134.438 39.0722Z" fill="white"/>
<path d="M139.912 39.0647C141.289 39.0324 142.668 39.0267 144.045 39.0704C144.042 39.3496 144.04 39.6308 144.04 39.9119C143.496 39.929 142.957 39.9499 142.418 39.9746C142.425 41.422 142.471 42.8694 142.393 44.3149C142.119 44.313 141.85 44.313 141.58 44.3149C141.502 42.8694 141.548 41.4239 141.557 39.9784C141.014 39.9499 140.469 39.929 139.927 39.9138C139.92 39.6289 139.916 39.3477 139.912 39.0647Z" fill="white"/>
<path d="M146.418 39.0877C148.53 38.2842 150.656 40.727 149.676 42.7177C149.108 44.4025 146.735 44.9287 145.453 43.7396C143.943 42.4707 144.454 39.593 146.418 39.0877ZM146.821 39.8722C144.828 40.3243 145.311 43.8403 147.431 43.5136C149.704 43.2837 149.144 39.2131 146.821 39.8722Z" fill="white"/>
<path d="M151.07 39.0511C152.677 38.5972 155.902 39.3779 154.202 41.5243C156.37 43.6347 152.876 44.9054 151.081 44.3014C151.002 42.5519 151.022 40.8006 151.07 39.0511ZM151.949 39.847C151.934 40.3257 151.919 40.8063 151.904 41.2869C154.117 41.9783 154.178 39.2069 151.949 39.847ZM151.911 42.0372C151.913 42.5007 151.915 42.9622 151.915 43.4257C152.916 43.6252 154.297 43.5226 153.906 42.1568C153.249 42.0258 152.578 41.9859 151.911 42.0372Z" fill="white"/>
</g>
<defs>
<clipPath id="clip0_4019_578">
<rect width="155" height="46.8704" fill="white"/>
</clipPath>
</defs>
</svg>
