<svg width="20" height="21" viewBox="0 0 20 21" fill="none" xmlns="http://www.w3.org/2000/svg">
<path d="M10.8332 2.53711C12.8223 2.53711 14.7299 3.32729 16.1365 4.73381C17.543 6.14033 18.3332 8.04799 18.3332 10.0371M10.8332 5.87044C11.9382 5.87044 12.998 6.30943 13.7794 7.09083C14.5609 7.87223 14.9998 8.93204 14.9998 10.0371M11.5265 14.6771C11.6986 14.7562 11.8925 14.7742 12.0762 14.7283C12.26 14.6824 12.4226 14.5753 12.5373 14.4246L12.8332 14.0371C12.9884 13.8301 13.1897 13.6621 13.4211 13.5464C13.6526 13.4307 13.9078 13.3704 14.1665 13.3704H16.6665C17.1085 13.3704 17.5325 13.546 17.845 13.8586C18.1576 14.1712 18.3332 14.5951 18.3332 15.0371V17.5371C18.3332 17.9791 18.1576 18.4031 17.845 18.7156C17.5325 19.0282 17.1085 19.2038 16.6665 19.2038C12.6883 19.2038 8.87295 17.6234 6.0599 14.8104C3.24686 11.9973 1.6665 8.18202 1.6665 4.20378C1.6665 3.76175 1.8421 3.33783 2.15466 3.02526C2.46722 2.7127 2.89114 2.53711 3.33317 2.53711H5.83317C6.2752 2.53711 6.69912 2.7127 7.01168 3.02526C7.32424 3.33783 7.49984 3.76175 7.49984 4.20378V6.70378C7.49984 6.96252 7.4396 7.21771 7.32388 7.44913C7.20817 7.68056 7.04016 7.88186 6.83317 8.03711L6.44317 8.32961C6.29018 8.44642 6.18235 8.6126 6.138 8.7999C6.09364 8.98721 6.11549 9.18409 6.19984 9.35711C7.33874 11.6703 9.21186 13.5411 11.5265 14.6771Z" stroke="white" stroke-linecap="round" stroke-linejoin="round"/>
</svg>
