<svg width="20" height="21" viewBox="0 0 20 21" fill="none" xmlns="http://www.w3.org/2000/svg">
<circle cx="10" cy="10.8701" r="10" fill="#2F89CE"/>
<path d="M4.67535 11.0572L6.9744 11.9144L7.87063 14.798C7.9096 14.9928 8.1434 15.0318 8.29927 14.9149L9.58517 13.8628C9.70207 13.7459 9.89691 13.7459 10.0528 13.8628L12.3518 15.5383C12.5077 15.6552 12.7415 15.5773 12.7804 15.3825L14.495 7.19944C14.534 7.00461 14.3391 6.80978 14.1443 6.88771L4.67535 10.5506C4.44155 10.6285 4.44155 10.9792 4.67535 11.0572ZM7.75374 11.4858L12.2739 8.71915C12.3518 8.68018 12.4297 8.79708 12.3518 8.83605L8.64997 12.3041C8.53307 12.421 8.41616 12.5769 8.41616 12.7717L8.29927 13.7069C8.29927 13.8238 8.10443 13.8628 8.06547 13.7069L7.59786 11.9924C7.48096 11.7975 7.5589 11.5637 7.75374 11.4858Z" fill="white"/>
</svg>
