<svg width="20" height="21" viewBox="0 0 20 21" fill="none" xmlns="http://www.w3.org/2000/svg">
<circle cx="10" cy="10" r="10" transform="matrix(1 0 0 -1 0 20.8701)" fill="#00B050"/>
<path d="M13.9634 14.8389C12.9756 15.8232 11.6585 16.3701 10.2683 16.3701C7.37805 16.3701 5.03658 14.0368 5.03658 11.1566C5.03658 10.2451 5.29268 9.33366 5.73171 8.56803L5 5.87012L7.78049 6.59928C8.54878 6.19824 9.39024 5.97949 10.2683 5.97949C13.1585 5.97949 15.5 8.31282 15.5 11.193C15.4634 12.542 14.9512 13.8545 13.9634 14.8389ZM12.7927 9.2972C12.6829 9.00553 12.1707 8.71387 11.9146 8.67741C11.6951 8.64095 11.4024 8.64095 11.1098 8.71387C10.9268 8.78678 10.6707 8.8597 10.378 9.00553C9.06098 9.55241 8.21951 10.8649 8.14634 10.9743C8.07317 11.0472 7.59756 11.667 7.59756 12.3232C7.59756 12.9795 7.92683 13.2712 8.03658 13.417C8.14634 13.5628 8.29268 13.5628 8.40244 13.5628C8.47561 13.5628 8.58536 13.5628 8.65853 13.5628C8.73171 13.5628 8.84146 13.5993 8.95122 13.3441C9.06098 13.0889 9.31707 12.4326 9.35366 12.3962C9.39024 12.3232 9.39024 12.2503 9.35366 12.1774C9.31707 12.1045 9.28049 12.0316 9.20732 11.9587C9.13414 11.8857 9.06097 11.7764 9.02439 11.7399C8.95122 11.667 8.87805 11.5941 8.95122 11.4847C9.02439 11.3389 9.28049 10.9378 9.68293 10.5732C10.1951 10.1357 10.5976 9.98991 10.7439 9.91699C10.8902 9.84408 10.9634 9.88053 11.0366 9.95345C11.1098 10.0264 11.3659 10.318 11.439 10.4639C11.5122 10.6097 11.6219 10.5732 11.7317 10.5368C11.8415 10.5003 12.5 10.1722 12.6098 10.0993C12.7561 10.0264 12.8293 9.98991 12.8659 9.95345C12.9024 9.84408 12.9024 9.58887 12.7927 9.2972Z" fill="white"/>
</svg>
