<svg width="155" height="48" viewBox="0 0 155 48" fill="none" xmlns="http://www.w3.org/2000/svg">
<g clip-path="url(#clip0_4008_1029)">
<path d="M8.69606 5.83815C17.5117 -1.53955 31.6535 -1.07227 39.962 6.87338C38.978 7.65598 38.0473 8.50886 37.0026 9.21358C34.632 7.15261 31.7694 5.75457 28.7606 4.89979C30.1985 7.10512 31.3173 9.5004 32.2538 11.9565C32.6432 11.9869 33.0326 12.0192 33.422 12.0552C32.8464 12.6897 31.663 13.2158 32.0695 14.2587C32.2443 15.7821 34.3641 16.5419 33.8038 18.2116C32.7116 20.1453 31.5928 22.0847 30.3372 23.9196C29.7369 23.325 29.1842 22.683 28.7359 21.9631C29.3722 21.9954 30.0086 22.0353 30.6449 22.0752C30.4739 20.0636 30.0902 18.0786 29.659 16.1088C25.6834 16.2133 21.6887 16.5571 17.7282 15.953C17.2799 17.9323 17.1071 19.9515 16.8526 21.9593C18.3209 22.1568 19.8063 21.9479 21.2765 22.1018C19.9696 23.3383 19.0351 25.4449 17.0938 25.6633C16.9361 27.6369 14.9265 28.6968 13.7659 30.1101C13.3252 28.6418 13.367 27.107 13.2055 25.5987C10.1245 25.6063 7.04158 25.6348 3.96058 25.5835C4.30629 28.5544 5.14208 31.472 6.62369 34.082C8.20978 33.6014 9.72749 32.891 11.3706 32.606C9.49955 34.7829 7.52026 36.8875 5.45929 38.8896C-2.77888 29.4206 -1.30106 13.4894 8.69606 5.83815ZM18.7274 12.4408C22.004 12.8283 25.3035 12.8264 28.5858 12.5415C27.619 9.58778 26.2665 6.51627 23.8048 4.51419C21.0486 6.14587 19.8405 9.56879 18.7274 12.4408ZM9.06266 10.4825C11.0078 11.2195 13.0554 11.5975 15.0936 11.9755C15.918 9.527 17.014 7.16211 18.4652 5.02136C14.8809 5.85904 11.5586 7.77565 9.06266 10.4825ZM6.79845 13.421C5.24275 16.0404 4.31959 18.9847 3.99287 22.0068C7.10047 21.9764 10.2195 22.1815 13.3195 21.9403C13.2682 19.7255 13.7943 17.5638 14.1249 15.3889C11.6175 15.0109 9.16524 14.3252 6.79845 13.421Z" fill="#1A4DC2"/>
<path d="M34.672 14.4522C38.8642 10.9362 43.0982 7.45627 47.3873 4.05615C47.4842 9.46406 47.488 14.8777 47.4025 20.2837C46.1222 19.5675 44.9939 18.6197 43.7459 17.8523C39.8709 24.1701 36.298 30.6759 32.4685 37.0202C32.1551 37.6661 31.3231 37.5825 30.9356 37.0601C28.9336 34.8168 27.0454 32.4671 25.0491 30.2181C24.7641 29.8021 24.2266 29.7584 23.8999 30.1554C18.095 35.8691 12.2825 41.6 6.19262 47.0079C4.54005 47.2833 2.7982 47.1161 1.11523 47.0592C8.78546 38.9691 16.45 30.8734 24.0347 22.7036C24.4203 22.2098 25.1725 21.7995 25.693 22.3598C27.2601 24.0276 28.6068 25.9024 30.1815 27.5626C30.5253 27.9767 31.0857 27.6994 31.2795 27.2891C33.6937 23.4293 36.0073 19.503 38.4406 15.6546C37.204 15.1949 35.9276 14.8549 34.672 14.4522Z" fill="#1A4DC2"/>
<path d="M61.8273 10.9117C66.6464 8.16695 75.1334 9.67326 75.7013 16.1696C74.2007 16.1696 72.7001 16.1677 71.1995 16.1734C70.622 12.9955 66.2911 12.0211 64.082 14.1219C63.0126 15.0489 63.0582 17.0016 64.365 17.6968C67.5353 19.4766 71.7142 19.034 74.459 21.6535C77.0937 24.0544 76.4687 28.7158 73.5682 30.6382C68.5421 34.1712 58.7558 32.5111 58.165 25.3917C59.6296 25.3822 61.0941 25.3917 62.5586 25.386C63.3982 28.9951 68.5402 29.9714 71.0057 27.5021C72.134 26.3453 71.4863 24.3451 70.0579 23.779C66.9256 22.4684 63.1361 22.5975 60.4748 20.2478C57.6883 17.6949 58.5032 12.6232 61.8273 10.9117Z" fill="#1A4DC2"/>
<path d="M97.8171 9.85536C99.2513 9.90475 100.685 9.90665 102.12 9.85156C102.207 17.2331 102.173 24.6165 102.137 31.9979C100.682 32.0131 99.2266 32.0226 97.7734 31.9828C97.8285 24.607 97.7393 17.2312 97.8171 9.85536Z" fill="#1A4DC2"/>
<path d="M105.782 9.87451C107.226 9.9068 108.671 9.87451 110.115 9.9258C110.164 17.2826 110.164 24.6413 110.117 31.9981C108.662 32.0152 107.208 32.0285 105.755 31.9791C105.797 24.6109 105.744 17.2427 105.782 9.87451Z" fill="#1A4DC2"/>
<path d="M113.5 9.93511C115.179 9.9503 116.887 9.76985 118.55 10.0149C120.767 14.342 122.65 18.8476 124.885 23.169C127.064 18.8115 129.045 14.3591 131.173 9.97879C132.865 9.9693 134.558 9.9617 136.252 9.98829C136.237 17.3204 136.225 24.6525 136.246 31.9846C134.797 32.0245 133.348 32.0112 131.9 31.9998C131.832 26.9319 131.902 21.8621 131.866 16.7923C129.961 20.5496 128.274 24.4227 126.394 28.1894C125.565 28.7706 124.353 28.3452 123.375 28.4306C121.489 24.6905 119.821 20.8402 117.869 17.138C117.728 22.0806 117.829 27.0326 117.817 31.9789C116.379 32.0264 114.94 32.015 113.502 31.996C113.484 24.643 113.473 17.2881 113.5 9.93511Z" fill="#1A4DC2"/>
<path d="M79.5954 19.3855C81.8368 14.5759 89.2145 13.8446 92.6697 17.6873C94.402 19.6647 94.8484 22.4494 94.5369 24.9909C90.7208 25.0707 86.9028 24.9928 83.0848 25.027C82.6745 28.9001 88.6256 30.6249 90.2345 27.1241C91.6534 27.031 93.0762 27.0671 94.497 27.1013C93.137 32.6859 85.3851 33.93 81.3372 30.5413C78.2258 27.8345 77.9656 22.9585 79.5954 19.3855ZM83.1056 22.2481C85.5104 22.2519 87.9152 22.2424 90.32 22.2538C90.3979 20.4169 89.129 18.3636 87.0984 18.4851C84.895 18.1736 83.1151 20.1377 83.1056 22.2481Z" fill="#1A4DC2"/>
<path d="M140.148 18.9541C142.708 14.3212 150.242 13.9318 153.313 18.2114C154.766 20.1451 155.042 22.6524 154.905 24.9983C151.081 25.0534 147.258 25.0078 143.434 25.0192C143.001 28.9151 148.971 30.6057 150.607 27.1125C151.997 27.046 153.389 27.0631 154.782 27.0935C153.338 33.4587 143.546 34.1558 140.315 28.9284C138.51 25.9614 138.526 21.9933 140.148 18.9541ZM143.48 22.2535C145.882 22.2326 148.283 22.2763 150.686 22.2269C150.652 20.3768 149.351 18.3766 147.311 18.4982C145.163 18.2379 143.482 20.2172 143.48 22.2535Z" fill="#1A4DC2"/>
<path d="M43.5216 24.0223C43.4475 23.0744 43.9965 22.2747 44.5188 21.5415C45.4382 22.1607 46.3348 22.8123 47.2256 23.4695C47.5315 30.3913 44.4296 37.3416 39.1299 41.7884C31.9289 47.9884 20.8243 49.2724 12.5254 44.5503C13.441 43.6613 14.3299 42.7286 15.3367 41.9479C16.4802 42.1797 17.5325 42.7438 18.6741 43.0098C18.1005 42.1664 17.39 41.3705 17.1146 40.3694C17.7528 39.3684 18.733 38.6428 19.6106 37.864C20.6458 39.9686 21.8292 42.06 23.6565 43.5853C25.7688 42.0866 26.7736 39.6134 27.9836 37.4214C28.7187 38.3731 29.7103 39.1139 30.4891 39.9876C30.0959 41.0723 29.3418 41.9726 28.7814 42.9737C32.6203 42.1949 36.0983 40.0275 38.674 37.1023C37.8155 36.711 36.9227 36.4071 36.0185 36.1449C36.6055 35.0793 37.0842 33.9016 37.9161 33.0069C38.9286 33.2311 39.8517 33.7364 40.8395 34.0441C42.513 30.9726 43.5159 27.5345 43.5216 24.0223Z" fill="#1A4DC2"/>
<path d="M135.351 37.7916C135.579 37.7688 135.809 37.746 136.041 37.7251C136.138 37.972 136.235 38.219 136.337 38.4659C136.459 38.4621 136.704 38.4545 136.825 38.4507C136.979 38.2133 137.135 37.9777 137.291 37.7403C137.443 37.7403 137.745 37.7365 137.897 37.7346C137.971 39.4954 135.243 39.6227 135.351 37.7916Z" fill="#1A4DC2"/>
<path d="M58.6323 39.6226C60.0646 39.5998 61.4949 39.5979 62.9271 39.6283C62.9062 41.3777 62.9062 43.1272 62.9195 44.8766C62.6156 44.8747 62.3136 44.8747 62.0115 44.8747C61.9033 43.4292 61.9679 41.9799 61.9736 40.5306C61.1701 40.4755 60.3647 40.4717 59.5631 40.5135C59.5441 41.9685 59.5935 43.4254 59.5232 44.8785C59.2307 44.8766 58.9362 44.8747 58.6456 44.8747C58.6247 43.1234 58.6399 41.3739 58.6323 39.6226Z" fill="#1A4DC2"/>
<path d="M64.4484 39.6152C65.9471 39.4518 68.6539 39.4594 68.3272 41.6723C68.1525 43.1274 66.4448 43.1521 65.3203 43.2053C65.3032 43.7618 65.2861 44.3203 65.2652 44.8787C64.9955 44.8768 64.7277 44.8749 64.4598 44.8768C64.3838 43.1236 64.4047 41.3684 64.4484 39.6152ZM65.2937 40.5136C65.2975 41.1082 65.2975 41.7027 65.2937 42.2973C67.8656 43.2015 67.8618 39.5943 65.2937 40.5136Z" fill="#1A4DC2"/>
<path d="M71.0092 39.6439C72.9828 38.9372 74.9981 41.0286 74.3447 42.9794C73.9496 44.7155 71.674 45.5437 70.2475 44.4895C68.479 43.3441 68.8969 40.1396 71.0092 39.6439ZM71.4043 40.4359C69.3471 40.8557 69.8695 44.442 72.0216 44.0792C74.244 43.7924 73.6913 39.83 71.4043 40.4359Z" fill="#1A4DC2"/>
<path d="M76.2388 39.6134C77.3861 39.6058 78.5334 39.6058 79.6788 39.6153C79.7206 41.0323 79.6446 42.4513 79.7301 43.8664C80.6191 44.1456 80.2677 45.1543 80.2772 45.8533C80.0245 45.7963 79.7738 45.7412 79.5231 45.6861C79.5022 45.4202 79.4813 45.1562 79.4623 44.894C78.2941 44.8294 77.1221 44.8124 75.9558 44.9035C75.9178 45.2075 75.8798 45.5133 75.8437 45.821C75.5436 45.821 75.2454 45.8248 74.9471 45.8305C74.7667 43.6593 76.8542 41.9593 76.2388 39.6134ZM77.2417 40.5195C77.1525 41.7142 76.841 42.873 76.4459 43.9994C77.2171 44.0355 77.9902 44.0374 78.7633 44.0051C78.8126 42.8369 78.8126 41.6668 78.7614 40.5005C78.2523 40.5005 77.747 40.5062 77.2417 40.5195Z" fill="#1A4DC2"/>
<path d="M81.4414 39.634C83.0598 39.0793 86.5207 40.0557 84.5566 42.1128C86.9614 44.1491 83.2554 45.5224 81.4433 44.8652C81.4642 43.1215 81.4661 41.3777 81.4414 39.634ZM82.4292 40.4109C82.4102 40.8914 82.395 41.372 82.3779 41.8545C84.5718 42.5421 84.6421 39.7745 82.4292 40.4109ZM82.3855 42.601C82.3893 43.0664 82.3912 43.5318 82.3912 43.999C83.0731 43.999 84.5186 44.3258 84.4027 43.2411C84.2565 42.3028 83.0541 42.6105 82.3855 42.601Z" fill="#1A4DC2"/>
<path d="M86.5703 39.6342C86.8761 39.6247 87.1839 39.6152 87.4935 39.6057C87.5657 40.9316 87.5391 42.2594 87.5068 43.5852C88.2742 42.2347 89.1574 40.9544 89.9704 39.6304C90.2839 39.619 90.5992 39.6076 90.9164 39.5981C90.9696 41.3609 90.9981 43.1293 90.8974 44.8902C90.603 44.8712 90.3086 44.8522 90.016 44.8332C90.0065 43.6365 90.0464 42.436 89.9552 41.2412C89.0644 42.379 88.3729 43.6536 87.5809 44.8579C87.2541 44.8541 86.9293 44.8522 86.6045 44.8484C86.5665 43.1103 86.6159 41.3723 86.5703 39.6342Z" fill="#1A4DC2"/>
<path d="M92.1775 39.6207C92.491 39.6264 92.8063 39.6359 93.1216 39.6454C93.7161 40.4242 94.2195 41.2865 94.9679 41.9362C95.004 41.1593 95.0116 40.3824 95.0249 39.6055C95.3041 39.6055 95.5853 39.6074 95.8664 39.6074C95.8797 40.3843 95.8873 41.1612 95.9272 41.9381C96.6832 41.2865 97.1713 40.4071 97.7602 39.6169C98.0679 39.6188 98.3756 39.6226 98.6853 39.6283C98.1344 40.5172 97.481 41.3378 96.9206 42.2211C97.5911 43.0911 98.2977 43.9383 98.8657 44.8823C98.5162 44.8671 98.1686 44.85 97.8229 44.831C97.3138 44.1339 96.8123 43.4311 96.3204 42.7207C96.214 42.7055 96.005 42.677 95.8987 42.6637C95.8987 43.4026 95.8835 44.1415 95.8512 44.8804C95.5796 44.8785 95.3079 44.8766 95.0382 44.8785C95.004 44.1415 94.9926 43.4045 95.0021 42.6675C94.8938 42.6808 94.6773 42.7055 94.569 42.7188C94.0789 43.4387 93.5851 44.1567 93.0912 44.8747C92.7664 44.8462 92.4416 44.8177 92.1187 44.7854C92.698 43.9288 93.3229 43.1044 93.9194 42.2572C93.3438 41.3739 92.6847 40.5457 92.1775 39.6207Z" fill="#1A4DC2"/>
<path d="M99.9731 39.6171C101.079 39.6038 102.184 39.6 103.29 39.6228C103.28 39.9135 103.273 40.2041 103.267 40.4966C102.477 40.4852 101.69 40.4928 100.902 40.5194C100.904 40.9601 100.908 41.4027 100.917 41.8453C101.637 41.8434 102.357 41.851 103.077 41.8643C103.077 42.1226 103.077 42.3809 103.079 42.6412C102.357 42.6469 101.635 42.6526 100.913 42.6564C100.91 43.1027 100.908 43.551 100.91 43.9974C101.742 44.0278 102.577 44.0335 103.411 44.024C103.409 44.3032 103.409 44.5844 103.409 44.8655C102.268 44.8598 101.126 44.856 99.9864 44.8712C99.9085 43.1198 99.9294 41.3666 99.9731 39.6171Z" fill="#1A4DC2"/>
<path d="M104.739 39.6093C105.043 39.615 105.349 39.6226 105.657 39.6302C105.649 40.3292 105.657 41.0302 105.676 41.7311C106.456 41.7615 107.239 41.7615 108.021 41.7292C108.038 41.0302 108.046 40.3311 108.042 39.6321C108.341 39.6226 108.641 39.6131 108.943 39.6074C108.984 41.3626 109.011 43.1215 108.926 44.8786C108.629 44.8767 108.337 44.8748 108.044 44.8748C108.05 44.1169 108.042 43.359 108.02 42.6029C107.239 42.5707 106.456 42.5707 105.676 42.6029C105.653 43.359 105.645 44.1188 105.655 44.8767C105.353 44.8748 105.052 44.8748 104.752 44.8767C104.655 43.1234 104.678 41.3645 104.739 39.6093Z" fill="#1A4DC2"/>
<path d="M110.483 39.6209C110.787 39.6171 111.091 39.6134 111.399 39.6096C111.429 40.9373 111.421 42.267 111.425 43.5947C112.474 42.2594 112.897 39.7387 114.803 39.564C114.846 41.3362 114.844 43.1066 114.797 44.8788C114.501 44.8769 114.204 44.8769 113.91 44.8769C113.868 43.6118 113.906 42.3467 113.868 41.0798C113.028 42.2955 112.286 43.5738 111.492 44.8199C111.161 44.8446 110.831 44.8674 110.504 44.894C110.458 43.135 110.491 41.378 110.483 39.6209Z" fill="#1A4DC2"/>
<path d="M116.33 39.6171C117.466 39.6 118.603 39.6 119.739 39.6361C119.734 39.921 119.73 40.2059 119.726 40.4927C118.913 40.4832 118.098 40.4908 117.285 40.5174C117.287 40.9581 117.291 41.4007 117.297 41.8433C118.041 41.8414 118.786 41.8566 119.532 41.8927C119.532 42.132 119.532 42.3732 119.536 42.6145C118.786 42.6373 118.037 42.6525 117.289 42.6563C117.287 43.1046 117.287 43.5509 117.289 44.0011C118.153 44.022 119.019 44.0334 119.884 44.0524C119.882 44.3126 119.882 44.5729 119.886 44.835C118.706 44.873 117.526 44.8597 116.349 44.8692C116.278 43.1197 116.297 41.3665 116.33 39.6171Z" fill="#1A4DC2"/>
<path d="M123.937 39.9724C125.261 39.0378 127.434 39.6342 127.759 41.3267C126.731 41.454 126.198 40.1376 125.151 40.4244C123.314 40.6543 123.31 43.836 125.149 44.0734C126.217 44.3127 126.714 42.9698 127.753 43.0211C127.533 44.7534 125.297 45.4904 123.947 44.5312C122.41 43.5301 122.397 40.9753 123.937 39.9724Z" fill="#1A4DC2"/>
<path d="M130.434 39.6021C130.72 39.6134 131.007 39.6267 131.298 39.64C131.938 41.3895 132.772 43.0687 133.281 44.8637C132.971 44.8637 132.665 44.8618 132.36 44.8618C132.2 44.4496 132.039 44.0412 131.881 43.6328C131.203 43.6176 130.525 43.6119 129.849 43.6119C129.679 44.026 129.509 44.4401 129.343 44.8561C129.03 44.8352 128.718 44.8162 128.409 44.7953C129.041 43.0478 129.738 41.3249 130.434 39.6021ZM130.179 42.7723C130.627 42.7761 131.077 42.7799 131.528 42.7837C131.307 42.0448 131.089 41.3078 130.882 40.567C130.608 41.2888 130.367 42.0239 130.179 42.7723Z" fill="#1A4DC2"/>
<path d="M134.438 39.6381C134.744 39.6248 135.052 39.6153 135.363 39.6058C135.435 40.9298 135.405 42.2576 135.378 43.5834C136.153 42.2367 136.999 40.9317 137.834 39.6229C138.148 39.6153 138.465 39.6077 138.782 39.6021C138.833 41.3629 138.864 43.1294 138.763 44.8903C138.467 44.8713 138.174 44.8542 137.882 44.8371C137.869 43.6366 137.912 42.4342 137.819 41.2375C136.907 42.362 136.239 43.6518 135.447 44.858C135.122 44.8542 134.797 44.8504 134.474 44.8485C134.436 43.1123 134.487 41.3743 134.438 39.6381Z" fill="#1A4DC2"/>
<path d="M139.912 39.6301C141.289 39.5978 142.668 39.5921 144.045 39.6358C144.042 39.9151 144.04 40.1962 144.04 40.4773C143.496 40.4944 142.957 40.5153 142.418 40.54C142.425 41.9874 142.471 43.4349 142.393 44.8804C142.119 44.8785 141.85 44.8785 141.58 44.8804C141.502 43.4349 141.548 41.9893 141.557 40.5438C141.014 40.5153 140.469 40.4944 139.927 40.4792C139.92 40.1943 139.916 39.9132 139.912 39.6301Z" fill="#1A4DC2"/>
<path d="M146.418 39.6531C148.53 38.8496 150.656 41.2924 149.676 43.2831C149.108 44.968 146.735 45.4941 145.453 44.305C143.943 43.0362 144.454 40.1584 146.418 39.6531ZM146.821 40.4376C144.828 40.8897 145.311 44.4057 147.431 44.079C149.704 43.8491 149.144 39.7785 146.821 40.4376Z" fill="#1A4DC2"/>
<path d="M151.07 39.6171C152.677 39.1631 155.902 39.9438 154.202 42.0902C156.37 44.2006 152.876 45.4714 151.081 44.8673C151.002 43.1179 151.022 41.3665 151.07 39.6171ZM151.949 40.413C151.934 40.8916 151.919 41.3722 151.904 41.8528C154.117 42.5442 154.178 39.7728 151.949 40.413ZM151.911 42.6031C151.913 43.0666 151.915 43.5282 151.915 43.9916C152.916 44.1911 154.297 44.0885 153.906 42.7228C153.249 42.5917 152.578 42.5518 151.911 42.6031Z" fill="#1A4DC2"/>
</g>
<defs>
<clipPath id="clip0_4008_1029">
<rect width="155" height="46.8704" fill="white" transform="translate(0 0.564941)"/>
</clipPath>
</defs>
</svg>
